<svg
   xmlns:rdf="http://www.w3.org/1999/02/22-rdf-syntax-ns#"
   xmlns:svg="http://www.w3.org/2000/svg"
   xmlns="http://www.w3.org/2000/svg"
   width="210mm"
   height="297mm"
   viewBox="0 0 210 297"
   version="1.1"
   id="svg255"
  <g
     id="layer42">
    <path
       style="fill:#808000;stroke-width:0.08466666"
       d="m 6.6800721,41.88422 c -0.849966,-0.42939 -1.159473,-1.568775 -0.680947,-2.506763 0.09149,-0.179331 0.398225,-0.52694 0.681638,-0.772466 0.854025,-0.739854 1.125239,-1.410746 1.086919,-2.688672 l -0.02091,-0.6974 0.335756,-0.345098 c 0.59544,-0.612006 0.816431,-0.706576 1.465093,-0.626968 0.6351149,0.07795 1.4352609,0.09288 1.8730459,0.03497 0.397401,-0.05257 0.417757,0.108915 0.09849,0.781346 -0.17201,0.362279 -0.280417,0.763461 -0.336379,1.244838 -0.09586,0.824564 -0.178681,0.938487 -1.082602,1.489135 -0.3112639,0.189611 -0.6817419,0.487837 -0.8232889,0.662722 -0.243863,0.301302 -0.260325,0.370137 -0.313991,1.312922 -0.04288,0.753253 -0.0986,1.076567 -0.229369,1.330941 -0.452894,0.880942 -1.252792,1.184974 -2.053453,0.780493 z M 37.716468,40.273442 c -0.95905,-0.543207 -1.17814,-1.926204 -0.44587,-2.814576 0.30555,-0.37069 0.68318,-0.548813 1.1635,-0.548813 0.43248,0 0.74347,0.158131 1.09229,0.555414 0.34485,0.392764 0.44241,0.650193 0.44731,1.180253 0.0123,1.333659 -1.21448,2.218333 -2.25723,1.627722 z m -15.58219,-3.991965 c -0.32135,-0.144166 -0.85126,-0.694935 -0.96862,-1.006769 -0.0493,-0.131089 -0.0897,-0.485693 -0.0897,-0.788008 0,-0.82744 -0.13785,-1.248643 -0.56362,-1.722202 -0.22766,-0.253216 -0.43859,-0.605933 -0.54187,-0.906121 -0.093,-0.270334 -0.26447,-0.629121 -0.38102,-0.797305 l -0.21191,-0.305788 0.17188,-0.400968 c 0.19601,-0.457288 0.21076,-0.63228 0.0779,-0.923976 -0.12676,-0.2782 -0.43233,-0.428718 -0.74386,-0.366411 -0.21956,0.04391 -0.28146,0.01292 -0.44183,-0.221237 -0.40718,-0.594523 -0.68141,-0.813493 -1.13733,-0.908144 -0.45461,-0.09437 -0.654087,-0.243661 -0.750888,-0.56194 -0.04403,-0.144787 0.0038,-0.218284 0.234972,-0.361168 0.572916,-0.354079 0.727586,-1.212061 0.300466,-1.666708 -0.511351,-0.54431 -1.177514,0.06969 -1.177514,1.085312 0,0.245111 -0.04832,0.347765 -0.215136,0.457069 -0.118325,0.07753 -0.312446,0.307008 -0.431379,0.509952 -0.118933,0.202944 -0.24408,0.368989 -0.278105,0.368989 -0.03402,0 -0.153644,-0.0977 -0.26582,-0.217103 -0.112177,-0.119407 -0.456365,-0.38339 -0.764862,-0.586629 -0.904502,-0.595889 -1.284793,-1.178758 -1.392982,-2.135017 -0.08755,-0.773873 0.0671,-1.28952 0.574479,-1.915428 0.232801,-0.287186 0.673154,-1.02784 0.978563,-1.645897 0.649858,-1.315125 0.714634,-1.721606 0.35746,-2.243146 -0.404493,-0.590633 -1.076866,-0.664536 -1.761471,-0.193611 l -0.424256,0.291837 -0.05677,-0.313003 c -0.03123,-0.172151 -0.203639,-0.636853 -0.383144,-1.032669 -0.179504,-0.395817 -0.367287,-0.875837 -0.417294,-1.066712 -0.138837,-0.529936 -0.431684,-0.898516 -0.925104,-1.16434 -0.24643,-0.132761 -0.468431,-0.294483 -0.493334,-0.359382 -0.05042,-0.131387 0.54626,-2.068095 0.635593,-2.06302 0.03111,0.0018 0.159487,0.152077 0.285283,0.334021 0.326174,0.471755 0.574104,0.603121 1.289769,0.68338 0.793428,0.08898 0.991087,0.192947 1.716564,0.902908 0.520699,0.50956 0.607845,0.642292 0.774718,1.179964 0.2134,0.687585 0.593114,1.266829 0.909235,1.387018 0.352651,0.134077 0.901298,0.09409 1.198934,-0.08738 0.991873,-0.604753 0.785363,-2.002245 -0.571763,-3.869175 -0.289375,-0.398081 -0.297099,-0.430012 -0.354429,-1.465282 -0.03223,-0.582083 -0.08369,-1.177216 -0.114341,-1.322519 -0.04684,-0.221997 0.01721,-0.385186 0.40107,-1.0219232 0.417489,-0.692522 0.570583,-1.092867 0.932376,-2.438202 0.10724,-0.398791 0.13229,-0.425632 0.44969,-0.481954 0.56475,-0.100213 1.30575,-0.07594 1.54683,0.05067 0.12574,0.06604 0.50631,0.407553 0.8457,0.758916 0.80622,0.834658 1.39633,1.011341 2.18358,0.653788 0.46544,-0.211391 0.65963,-0.482861 0.93312,-1.304417 0.34099,-1.02437 0.68175,-1.269396 1.92707,-1.385686 l 0.54059,-0.05048 0.34199,0.498069 c 0.1881,0.273938 0.53799,0.701226 0.77752,0.949529 0.23954,0.248303 0.42387,0.484943 0.40962,0.525867 -0.0143,0.04092 -0.3977,0.415947 -0.85213,0.833384 -0.79431,0.729651 -0.95062,0.822243 -1.72388,1.021147 -0.74537,0.191731 -1.1563,0.7890182 -1.16808,1.6978092 -0.004,0.302683 0.0222,0.655108 0.058,0.783167 0.0549,0.196433 0.0394,0.232833 -0.0993,0.232833 -0.24793,0 -0.65695,0.386675 -0.71476,0.675712 -0.0982,0.491152 0.24351,0.926076 0.63102,0.803085 0.23428,-0.07436 0.49826,-0.53058 0.49864,-0.861778 l 3.4e-4,-0.271981 0.55327,0.05166 c 0.40825,0.03812 0.68351,0.01223 1.05021,-0.0988 0.61326,-0.185681 0.95533,-0.132123 1.5027,0.235281 0.47296,0.317451 0.47501,0.330661 0.2466,1.583482 -0.0833,0.45671 -0.2723,1.083377 -0.43738,1.449989 -0.43761,0.971836 -0.39219,1.365219 0.25294,2.190677 0.20016,0.256117 0.5196,0.792422 0.70985,1.191788 0.4474,0.939193 0.75723,1.178879 1.52384,1.178879 0.28854,0 0.52462,0.0327 0.52462,0.07268 0,0.03997 -0.21143,0.213059 -0.46984,0.384632 -0.592,0.393064 -0.9695,0.959904 -0.9695,1.455756 0,0.268585 0.0749,0.467072 0.30536,0.808924 0.16795,0.249155 0.412,0.662558 0.54234,0.918675 0.30618,0.601666 0.58679,0.859605 1.2954,1.190715 0.86088,0.402267 1.42055,0.276221 1.89974,-0.427854 0.24171,-0.355152 0.24815,-0.85811 0.0212,-1.651861 -0.20522,-0.717618 -0.21215,-1.133026 -0.0321,-1.924752 0.25927,-1.139923 0.0195,-1.906535 -0.8146,-2.604914 -0.63474,-0.531429 -0.88815,-1.014333 -0.88862,-1.693334 -3.4e-4,-0.497842 0.0432,-0.636614 0.45621,-1.454945 0.38238,-0.757575 0.4566,-0.978088 0.4566,-1.356649 0,-0.553035 -0.17136,-0.90457 -0.61454,-1.260719 -0.18478,-0.148493 -0.31579,-0.30262 -0.29114,-0.342504 0.0246,-0.03988 0.23755,-0.07252 0.47311,-0.07252 0.38338,0 0.4622,-0.0339 0.75151,-0.323215 0.17777,-0.177767 0.34792,-0.434942 0.37811,-0.5715 0.14414,-0.651889 0.2454,-0.583231 0.37928,0.257162 0.11907,0.747435 0.32743,1.083952 0.81827,1.321562 0.35683,0.172742 0.43134,0.180111 0.91673,0.09067 0.744,-0.137086 1.10294,-0.121653 1.46468,0.06298 0.40369,0.206032 0.56186,0.385598 0.78602,0.892352 0.31232,0.706047 0.0692,1.770443 -0.55719,2.439823 -0.19076,0.20385 -0.28104,0.232834 -0.72518,0.232834 -0.88878,0 -1.35013,0.336554 -1.89443,1.381985 -0.5337,1.025052 -0.36005,1.565297 0.67409,2.097287 0.5122,0.263484 0.68512,0.419627 1.28999,1.164808 0.80958,0.997389 0.82944,1.085521 0.43207,1.917417 -0.33825,0.708121 -0.57023,0.904502 -0.94238,0.797771 -0.50141,-0.143803 -1.01426,-0.09399 -1.34482,0.130632 -0.31478,0.213898 -0.66371,0.805331 -0.66371,1.124985 0,0.309237 -0.16494,0.636272 -0.62982,1.248781 -0.57019,0.751253 -0.70194,1.014318 -0.77181,1.541014 -0.10826,0.816088 0.48262,1.623098 1.1053,1.509588 0.1397,-0.02547 0.41704,-0.160296 0.61631,-0.29962 0.19927,-0.139323 0.41834,-0.253316 0.48683,-0.253316 0.19064,0 0.15208,0.374582 -0.0871,0.846667 -0.11641,0.229737 -0.21166,0.498937 -0.21166,0.598223 0,0.299482 0.248,0.728359 0.74008,1.279845 0.25659,0.287566 0.5239,0.658917 0.59401,0.825223 0.31983,0.758591 0.0205,1.780336 -0.65953,2.251628 -0.28119,0.194863 -0.44548,0.245572 -0.78996,0.243818 -0.5962,-0.003 -0.88764,-0.181904 -1.48246,-0.909844 -0.28043,-0.34319 -0.62422,-0.671347 -0.76398,-0.729237 -0.28107,-0.116422 -0.81325,-0.08699 -1.54974,0.0857 -0.69259,0.162396 -0.84157,0.06179 -1.18743,-0.801862 -0.15076,-0.376468 -0.41771,-0.962524 -0.59322,-1.302345 -0.17551,-0.339821 -0.31911,-0.686767 -0.31911,-0.770991 0,-0.08423 0.1335,-0.327972 0.29666,-0.541661 0.37467,-0.490689 0.46586,-0.732573 0.46327,-1.228837 -0.006,-1.233184 -0.44504,-1.82897 -1.56426,-2.124845 -0.18627,-0.04924 -0.45747,-0.162706 -0.60268,-0.252145 -0.23389,-0.144056 -0.26849,-0.216527 -0.30319,-0.634994 -0.0476,-0.574623 -0.23254,-0.813671 -0.6293,-0.813671 -0.52648,0 -0.73865,0.683872 -0.39003,1.257136 l 0.16683,0.274335 -0.21713,0.525431 c -0.15387,0.37234 -0.21841,0.685779 -0.22149,1.075765 -0.004,0.482722 0.0409,0.642409 0.36375,1.299795 0.43534,0.886409 0.43364,0.936181 -0.0727,2.127651 -0.3535,0.831766 -0.35809,0.855166 -0.29066,1.481667 0.15707,1.459193 0.007,2.25304 -0.5336,2.817256 -0.36451,0.380641 -1.08249,0.507731 -1.58777,0.281054 z m -1.1943,-7.01259 c 0.11866,-0.18952 -0.0211,-0.43377 -0.26949,-0.470854 -0.2497,-0.03728 -0.50591,0.354374 -0.35264,0.539058 0.13761,0.165806 0.50052,0.126021 0.62213,-0.0682 z m -0.50876,-4.727642 c 0.35076,-0.275905 0.47545,-0.600708 0.47492,-1.237153 -5.9e-4,-0.739208 -0.11319,-1.133201 -0.41663,-1.458041 -0.48132,-0.515251 -1.13203,-0.243171 -1.35717,0.567465 -0.13517,0.486726 -0.10812,1.348369 0.053,1.687905 0.15275,0.321898 0.5543,0.615808 0.84203,0.616316 0.0985,1.7e-4 0.28023,-0.07925 0.40386,-0.176492 z m 3.73026,-2.89003 c 0.0725,-0.103494 0.1318,-0.274944 0.1318,-0.381 0,-0.216665 -0.27388,-0.531494 -0.46236,-0.531494 -0.17785,0 -0.46897,0.339843 -0.46897,0.54746 0,0.269515 0.2388,0.553206 0.46567,0.553206 0.11282,0 0.26027,-0.0831 0.33386,-0.188172 z m -4.00592,-3.271901 c 0.82366,-0.522352 1.12133,-1.053408 0.92459,-1.649531 -0.12168,-0.368697 0.0445,-1.078548 0.41931,-1.791066 0.67986,-1.292434 -0.14191,-2.640544 -1.09059,-1.789097 -0.22656,0.203339 -0.43359,0.635307 -0.43359,0.904691 0,0.09847 -0.11788,0.447611 -0.26196,0.77588 -0.18107,0.412551 -0.24864,0.678374 -0.21882,0.860858 0.0237,0.145203 0.0707,0.428233 0.10446,0.628954 0.0602,0.358499 0.0536,0.372056 -0.37384,0.767115 -0.39197,0.362243 -0.43517,0.43776 -0.43517,0.760732 0,0.742952 0.63962,0.991876 1.36561,0.531464 z m 2.86772,-0.984926 c 0.32364,-0.162984 0.60747,-0.296334 0.63072,-0.296334 0.0232,0 0.10109,0.113748 0.17298,0.252774 0.17936,0.34683 0.52778,0.429335 0.73459,0.173944 0.0853,-0.105313 0.15505,-0.275322 0.15505,-0.377799 0,-0.21416 -0.25553,-0.519119 -0.49998,-0.596706 -0.121,-0.0384 -0.1935,-0.180488 -0.26304,-0.515461 -0.15787,-0.760436 -0.74648,-1.291968 -1.31301,-1.185686 -0.57232,0.107367 -0.9534,0.612619 -1.17342,1.555773 -0.13316,0.570815 -0.0461,0.908144 0.2963,1.147965 0.29678,0.207873 0.61079,0.168374 1.25981,-0.15847 z m -7.260757,16.539038 c -0.154531,-0.154531 -0.125277,-0.569331 0.07061,-1.001183 0.231056,-0.509386 0.384523,-0.663633 0.761197,-0.76506 0.45024,-0.121237 0.81632,-0.567079 0.88219,-1.07439 0.0911,-0.701404 0.1207,-0.768357 0.42274,-0.95503 0.34649,-0.214143 0.42145,-0.185023 0.55348,0.215022 0.10408,0.315385 0.0961,0.336217 -0.3371,0.884602 -0.092,0.116417 -0.23523,0.478367 -0.31835,0.804333 -0.14197,0.556761 -0.17222,0.602926 -0.49924,0.762 -0.488615,0.237676 -0.618135,0.363417 -0.825489,0.801401 -0.191874,0.405287 -0.493561,0.544781 -0.710038,0.328305 z m 21.738757,-1.087372 c 0,-0.04657 0.0381,-0.08467 0.0847,-0.08467 0.0466,0 0.0847,0.0381 0.0847,0.08467 0,0.04657 -0.0381,0.08467 -0.0847,0.08467 -0.0466,0 -0.0847,-0.0381 -0.0847,-0.08467 z M 5.5844791,32.248187 c -1.221381,-0.512753 -1.530287,-2.076652 -0.606697,-3.071526 0.54661,-0.588798 1.238844,-0.64402 2.214127,-0.176628 0.347334,0.166455 0.656507,0.343082 0.687052,0.392505 0.03055,0.04942 0.0046,0.246607 -0.05765,0.438188 -0.06225,0.19158 -0.154395,0.634078 -0.204763,0.983328 -0.107446,0.745024 -0.245001,0.963462 -0.784717,1.246133 -0.459486,0.24065 -0.946937,0.314119 -1.247352,0.188 z m 3.798179,-3.680154 c 0.373403,-0.425282 0.601967,-0.913415 0.601897,-1.285439 -3.3e-5,-0.17648 -0.09795,-0.678012 -0.2176,-1.114514 -0.182466,-0.665681 -0.201463,-0.832451 -0.11783,-1.034359 0.05484,-0.132396 0.150061,-0.282508 0.211604,-0.333584 0.08917,-0.074 0.123693,-0.01009 0.1699829,0.314693 0.03195,0.224157 0.17581,0.674257 0.319691,1.000224 0.271963,0.616145 0.301154,0.886862 0.190363,1.76539 l -0.06247,0.49539 -0.5413129,0.245444 c -0.745192,0.337886 -0.885874,0.324373 -0.554322,-0.05325 z m -3.730289,-2.497526 c -0.355525,-0.187807 -0.87606,-0.786163 -1.00454,-1.154722 -0.06994,-0.200636 -0.03812,-0.442146 0.160584,-1.218808 0.136296,-0.532724 0.27386,-1.29244 0.305696,-1.688256 0.0869,-1.080403 0.178772,-1.347359 0.604605,-1.756833 0.205815,-0.197909 0.424604,-0.359834 0.486199,-0.359834 0.283769,0 1.174922,-0.546103 1.461139,-0.895394 0.55631,-0.678902 0.912148,-0.400862 0.663339,0.518312 -0.173321,0.640301 -0.129182,1.034303 0.188418,1.681877 l 0.224448,0.457639 -0.267761,0.41727 c -0.402577,0.62736 -0.569785,1.407595 -0.452867,2.113177 0.08181,0.493705 0.0743,0.609643 -0.0589,0.909318 -0.23646,0.531992 -0.565204,0.86508 -1.000025,1.013238 -0.517724,0.176407 -0.928315,0.164818 -1.310335,-0.03698 z M 41.373978,24.938919 c -0.39148,-0.143647 -0.49782,-0.223491 -1.05523,-0.792325 -0.45797,-0.467348 -0.87349,-0.69854 -1.25547,-0.69854 -0.34296,0 -0.20475,-0.182333 0.23553,-0.310713 0.31829,-0.09281 0.50446,-0.2393 0.99618,-0.783878 0.83485,-0.924581 1.34121,-1.112952 2.08445,-0.775431 0.9843,0.446988 1.27867,1.90518 0.57593,2.85294 -0.35401,0.477437 -1.05282,0.701897 -1.58139,0.507947 z M 1.2357271,24.746276 c -0.08273,-0.08272 -0.0689,-0.366889 0.01785,-0.366889 0.04086,0 0.120345,0.05548 0.176623,0.123292 0.150393,0.181213 -0.0304,0.407672 -0.194478,0.243597 z m 9.4591289,-2.504722 c -0.07743,-0.151342 -0.253702,-0.418857 -0.391724,-0.594479 -0.23511,-0.299158 -0.242782,-0.331778 -0.121539,-0.516817 0.09305,-0.14201 0.241507,-0.212869 0.528366,-0.252188 0.632457,-0.08669 0.620302,-0.09263 0.53776,0.262817 -0.04055,0.174625 -0.07464,0.495754 -0.07575,0.713619 -0.0013,0.244919 -0.05281,0.446905 -0.135068,0.529167 -0.176636,0.176638 -0.1796,0.175406 -0.342045,-0.142119 z M 5.6666161,15.109589 c 0,-0.02262 0.151005,-0.141063 0.335567,-0.2632 0.440765,-0.291684 0.719906,-0.851418 0.641308,-1.285952 -0.03131,-0.173094 -0.210957,-0.576085 -0.399218,-0.895536 -0.221951,-0.376617 -0.423344,-0.890584 -0.57283,-1.461892 l -0.230537,-0.881071 0.364786,-0.298915 c 0.234581,-0.1922212 0.446908,-0.4778252 0.59486,-0.8001532 0.12654,-0.27568 0.285857,-0.522644 0.354038,-0.548807 0.06818,-0.02616 0.260854,0.04143 0.428162,0.150202 0.682275,0.443577 1.784308,0.926538 1.99407,0.87389 0.347818,-0.0873 0.667771,-0.593185 0.67475,-1.066871 0.0052,-0.352206 -0.04575,-0.4836 -0.360684,-0.930319 -0.425199,-0.603128 -0.424471,-0.800186 0.0025,-0.665286 0.153782,0.04859 0.6606029,0.119933 1.1262699,0.158537 0.928882,0.077 1.845098,0.325418 2.184292,0.592227 0.119891,0.09431 0.298946,0.387856 0.397898,0.652332 0.09895,0.264476 0.385302,0.784532 0.636331,1.15568 0.251028,0.371149 0.440297,0.7008972 0.420596,0.7327732 -0.0197,0.03188 -0.245114,0.07956 -0.500919,0.10596 -0.553158,0.05709 -2.091769,0.724769 -2.445822,1.061361 -0.131426,0.124945 -0.319417,0.370047 -0.417757,0.544672 -0.09834,0.174625 -0.205502,0.3175 -0.238139,0.3175 -0.03264,0 -0.121229,-0.09446 -0.196873,-0.209904 -0.07564,-0.115448 -0.257662,-0.272025 -0.404484,-0.34795 -0.4326899,-0.223753 -0.7579409,-0.06273 -1.6867069,0.835058 -0.682703,0.659929 -0.842402,0.865856 -1.001296,1.291143 -0.211419,0.565878 -0.387715,0.80232 -0.598224,0.80232 -0.07802,0 -0.329294,0.09509 -0.558378,0.211312 -0.41251,0.20928 -0.543516,0.25047 -0.543516,0.170889 z M 28.460418,12.936307 c 0.0439,-0.131835 0.23336,-0.154922 0.24,-0.02925 0.002,0.04657 -0.0591,0.09783 -0.13675,0.113919 -0.0883,0.01829 -0.12699,-0.01345 -0.10325,-0.08467 z M 0.5866161,11.213721 c 0,-0.06985 0.0381,-0.127 0.08467,-0.127 0.04657,0 0.08467,0.05715 0.08467,0.127 0,0.06985 -0.0381,0.127 -0.08467,0.127 -0.04657,0 -0.08467,-0.05715 -0.08467,-0.127 z m 3.019493,-1.5034202 c -0.174917,-0.127902 -0.170015,-0.576703 0.0069,-0.634803 0.137228,-0.04506 0.638522,0.456236 0.593465,0.593464 -0.04933,0.150231 -0.416871,0.175538 -0.600397,0.04134 z M 29.514388,5.7809438 c -0.11395,-0.113959 -0.0512,-0.197556 0.1483,-0.197556 0.25922,0 0.47259,0.08054 0.47259,0.178392 0,0.08719 -0.53631,0.103744 -0.62089,0.01916 z M 15.872913,4.5498988 c -0.165164,-0.245255 -0.300298,-0.479131 -0.300298,-0.519726 0,-0.08472 0.42876,0.0052 0.539291,0.113063 0.107084,0.104529 0.212949,0.758858 0.130972,0.809522 -0.03832,0.02368 -0.204801,-0.157605 -0.369965,-0.402859 z m -3.27207,-0.906917 c -0.350794,-0.192501 -0.812109,-0.689207 -0.931329,-1.00278 -0.100228,-0.263619 0.05798,-1.501151 0.226176,-1.76921999 0.06306,-0.100507 0.326052,-0.286165 0.584419,-0.412572 0.629776,-0.30812 1.236825,-0.271632 1.760456,0.105818 0.554368,0.399606 0.640636,0.61031799 0.68597,1.67549599 0.02179,0.511865 0.08082,1.03792 0.131178,1.16901 0.05036,0.131089 0.09157,0.256116 0.09157,0.277836 0,0.02172 -0.180975,0.03325 -0.402167,0.02562 -0.221191,-0.0076 -0.726016,0.01131 -1.121833,0.04208 -0.623818,0.0485 -0.760257,0.03368 -1.024439,-0.111294 z"
       id="path319" />
  </g>
</svg>
