<svg
   xmlns:rdf="http://www.w3.org/1999/02/22-rdf-syntax-ns#"
   xmlns:svg="http://www.w3.org/2000/svg"
   xmlns="http://www.w3.org/2000/svg"
   width="210mm"
   height="297mm"
   viewBox="0 0 210 297"
   version="1.1"
   id="svg158"
  <g
     id="layer13">
    <path
       style="fill:#808000;stroke-width:0.08466666"
       d="m 3.5184371,43.072565 c 0,-0.09313 0.0381,-0.169333 0.08467,-0.169333 0.04657,0 0.08467,0.0762 0.08467,0.169333 0,0.09313 -0.0381,0.169334 -0.08467,0.169334 -0.04657,0 -0.08467,-0.0762 -0.08467,-0.169334 z m 1.654213,-0.19488 c -0.189317,-0.288935 -0.0391,-0.667788 0.335626,-0.846484 0.358103,-0.170768 0.446633,-0.06597 0.166552,0.197149 -0.139553,0.131103 -0.209058,0.288352 -0.209058,0.472977 0,0.355271 -0.126158,0.431175 -0.29312,0.176358 z M 24.558103,42.061998 c 0,-0.674393 0.07183,-0.799104 0.632391,-1.097877 0.275367,-0.14677 0.52325,-0.338003 0.55085,-0.424963 0.0276,-0.08696 -0.01509,-0.29499 -0.09487,-0.462288 -0.175519,-0.36807 -0.118789,-0.453028 0.174284,-0.260998 0.252291,0.165307 0.284802,0.456119 0.1001,0.895395 -0.07647,0.181861 -0.102727,0.439628 -0.07357,0.722139 0.04024,0.389893 0.0211,0.463575 -0.17013,0.654801 -0.118509,0.11851 -0.323528,0.237156 -0.455597,0.26366 -0.132069,0.0265 -0.335375,0.07812 -0.451791,0.114708 -0.208388,0.06549 -0.211667,0.05922 -0.211667,-0.404577 z M 7.6318361,42.171447 c -0.02936,-0.07652 -0.03597,-0.15653 -0.01469,-0.177811 0.06729,-0.06729 0.219292,0.06783 0.219292,0.194926 0,0.166076 -0.138758,0.154469 -0.204601,-0.01712 z m -1.234732,-1.182203 v -0.305322 l -0.750572,0.05941 c -0.610648,0.04833 -0.800054,0.03382 -1.016,-0.07785 -0.294626,-0.152357 -0.324475,-0.232504 -0.142759,-0.383315 0.06747,-0.05599 0.165376,-0.231211 0.217574,-0.389371 0.0522,-0.158161 0.263222,-0.435725 0.468944,-0.616807 0.230859,-0.203211 0.486135,-0.556061 0.666879,-0.921781 0.272445,-0.551271 0.315376,-0.596143 0.616426,-0.644282 0.177973,-0.02846 0.456244,-0.03028 0.618381,-0.004 0.257767,0.0417 0.319039,0.01485 0.487829,-0.213806 0.190129,-0.257561 0.542657,-0.35639 0.650253,-0.182295 0.02692,0.04356 0.257771,0.174803 0.512997,0.291649 0.324674,0.148641 0.464048,0.260714 0.464048,0.373149 0,0.457754 -0.843654,1.39156 -1.87673,2.077276 -0.536839,0.356334 -0.609733,0.472491 -0.491562,0.783305 0.138793,0.365047 0.103522,0.459415 -0.171708,0.459415 -0.235266,0 -0.254,-0.02252 -0.254,-0.305321 z m 9.9059989,-0.02429 c 0,-0.22304 0.265269,-0.308649 0.397222,-0.128193 0.136114,0.186148 0.06853,0.288468 -0.190552,0.288468 -0.146332,0 -0.20667,-0.04679 -0.20667,-0.160275 z m -1.608666,-0.423333 c 0,-0.04158 0.05715,-0.09754 0.127,-0.124343 0.07736,-0.02969 0.127,-1.69e-4 0.127,0.07561 0,0.06839 -0.05715,0.124343 -0.127,0.124343 -0.06985,0 -0.127,-0.03402 -0.127,-0.07561 z m 20.912665,-0.136058 c 0,-0.06985 0.0381,-0.127 0.08467,-0.127 0.04657,0 0.08467,0.05715 0.08467,0.127 0,0.06985 -0.0381,0.127 -0.08467,0.127 -0.04657,0 -0.08467,-0.05715 -0.08467,-0.127 z M 23.669103,39.850235 c 0,-0.04931 0.0381,-0.06612 0.08467,-0.03734 0.04657,0.02878 0.08467,0.06913 0.08467,0.08966 0,0.02054 -0.0381,0.03734 -0.08467,0.03734 -0.04657,0 -0.08467,-0.04035 -0.08467,-0.08966 z m -8.98626,-0.05152 c -0.226662,-0.06031 -0.813867,-0.820282 -0.910081,-1.177847 -0.04913,-0.182582 -0.113989,-0.598667 -0.144132,-0.924634 l -0.05481,-0.592666 0.399723,-0.193652 c 0.219848,-0.106507 0.416792,-0.25892 0.437653,-0.338694 0.02086,-0.07977 0.1252,-0.186229 0.231862,-0.236566 0.177157,-0.0836 0.212866,-0.05784 0.412815,0.297862 0.120386,0.214161 0.265155,0.573142 0.321708,0.797739 0.05655,0.224595 0.195556,0.494339 0.308893,0.599432 l 0.206067,0.191076 -0.257957,0.257958 c -0.159875,0.159875 -0.277815,0.382138 -0.310182,0.584552 -0.04262,0.266542 -0.380645,0.819939 -0.477742,0.782138 -0.01388,-0.0054 -0.0876,-0.02642 -0.163822,-0.0467 z m 9.93876,-2.121395 c -0.151342,-0.01878 -0.275167,-0.07396 -0.275167,-0.122629 0,-0.05133 0.08606,-0.06688 0.204939,-0.03704 0.305169,0.07659 0.460664,-0.01683 0.651891,-0.391666 0.168995,-0.331259 0.174673,-0.334291 0.297527,-0.158892 0.222085,0.31707 0.792977,0.193945 0.792977,-0.171023 0,-0.184564 -0.47213,-0.528713 -0.638005,-0.46506 -0.314285,0.120601 0.04354,-0.869429 0.406053,-1.123481 0.09264,-0.06492 0.329732,-0.464974 0.526869,-0.889 0.197136,-0.424026 0.497176,-0.952261 0.666756,-1.173856 0.355911,-0.465079 0.380391,-0.70344 0.128185,-1.248101 -0.09703,-0.20955 -0.192027,-0.586059 -0.211098,-0.836688 -0.03648,-0.479434 -0.569417,-1.735713 -0.82701,-1.949496 -0.173348,-0.143866 -0.173471,-0.294996 -3.39e-4,-0.438666 0.101844,-0.08452 0.123921,-0.201466 0.08779,-0.465048 -0.02654,-0.193672 -0.02577,-0.374628 0.0017,-0.402126 0.06023,-0.06023 0.53269,0.618679 0.534878,0.768614 8.47e-4,0.05807 0.129752,0.248573 0.286454,0.423333 0.418989,0.467286 0.900403,1.637325 0.900403,2.188394 0,0.589298 0.05084,0.695275 0.40437,0.842991 0.26568,0.111009 0.321389,0.110437 0.497731,-0.0051 0.109211,-0.07156 0.198566,-0.167326 0.198566,-0.212819 0,-0.138924 0.340444,-0.09193 0.396737,0.05476 0.03573,0.09311 -0.06077,0.242308 -0.298991,0.46227 -0.19346,0.178634 -0.35771,0.373944 -0.364998,0.43402 -0.0073,0.06008 -0.02064,0.212763 -0.02967,0.339301 -0.009,0.126539 -0.06344,0.286721 -0.120902,0.355962 -0.07348,0.08853 -0.08721,0.287166 -0.04628,0.669378 0.06758,0.631082 0.01585,0.764492 -0.521389,1.344463 -0.229224,0.247458 -0.369173,0.478065 -0.369173,0.608322 0,0.288405 0.147959,0.652174 0.314921,0.77426 0.234096,0.171176 -0.156868,0.319195 -0.660233,0.249964 -0.398893,-0.05486 -0.430689,-0.04348 -0.808871,0.289404 -0.439328,0.386712 -0.583243,0.426141 -0.648237,0.177605 -0.07128,-0.272581 -0.287553,-0.291942 -0.573492,-0.05134 -0.255483,0.214975 -0.337595,0.229402 -0.904921,0.158998 z M 12.747104,36.692817 c 0,-0.212897 -0.428515,-0.489248 -0.715158,-0.461206 -0.217122,0.02124 -0.263111,0.06581 -0.287258,0.278413 l -0.02875,0.253125 -0.115331,-0.274291 c -0.130868,-0.311243 -0.232818,-0.329196 -0.833899,-0.146846 -0.41033,0.124481 -0.415927,0.1236 -0.621185,-0.09788 -0.2036069,-0.219697 -0.2044839,-0.227024 -0.05161,-0.431494 0.08554,-0.114402 0.316889,-0.324827 0.514119,-0.46761 0.337582,-0.244391 0.367748,-0.251328 0.514666,-0.118368 0.233412,0.211234 0.533061,0.171536 0.883099,-0.116995 0.255559,-0.210654 0.343887,-0.241853 0.479392,-0.169334 0.09136,0.04889 0.29606,0.0889 0.454887,0.0889 0.461288,0 0.654156,-0.308669 0.555481,-0.888999 -0.02182,-0.1283 0.01224,-0.163351 0.140541,-0.144645 0.09313,0.01358 0.332653,0.04727 0.532268,0.07486 0.579518,0.08011 0.598775,0.253575 0.09773,0.880369 -0.23374,0.292404 -0.40809,0.572542 -0.387447,0.622529 0.16336,0.39557 0.167796,0.383588 -0.104021,0.280989 -0.21799,-0.08228 -0.283219,-0.07334 -0.429257,0.05882 -0.106025,0.09595 -0.157305,0.224488 -0.133433,0.334461 0.02721,0.125368 -0.0363,0.23733 -0.213036,0.375557 -0.193207,0.151107 -0.251808,0.167315 -0.251808,0.06965 z m 3.405645,-1.932472 c -0.08123,-0.08123 -0.05758,-0.150926 0.11085,-0.326731 0.238783,-0.249236 0.209463,-0.505048 -0.05789,-0.505048 -0.357589,0 -1.174999,-0.2988 -1.222166,-0.446756 -0.02637,-0.08273 -0.140979,-0.211375 -0.254678,-0.285874 -0.237302,-0.155486 -0.16523,-0.316852 0.180245,-0.40356 0.146133,-0.03668 0.282599,-0.200449 0.460215,-0.552307 0.151546,-0.30021 0.325199,-0.523248 0.434367,-0.557897 0.229096,-0.07271 0.34633,0.09316 0.282123,0.399162 -0.06497,0.309644 0.503351,0.914425 0.863544,0.918943 0.366908,0.0046 0.925948,0.534814 0.829339,0.786573 -0.0421,0.109701 -0.08106,0.115436 -0.216731,0.0319 -0.137929,-0.08493 -0.231622,-0.06497 -0.563971,0.120131 -0.36097,0.201044 -0.398562,0.250959 -0.398562,0.529223 0,0.168982 -0.02546,0.307217 -0.05658,0.307186 -0.03112,-3e-5 -0.108389,0.01983 -0.171717,0.04413 -0.06333,0.0243 -0.161606,-0.0023 -0.218396,-0.05907 z m -0.324392,-1.445612 c 0.127565,-0.203497 -0.03318,-0.4445 -0.296481,-0.4445 -0.210514,0 -0.312214,0.252461 -0.209513,0.520095 0.0632,0.164687 0.38556,0.116525 0.505994,-0.07559 z m 22.424361,0.677333 c -0.180768,-0.226533 -0.359616,-0.657958 -0.359616,-0.867477 0,-0.123823 -0.09623,-0.315952 -0.220487,-0.440207 -0.232369,-0.23237 -0.428467,-0.675083 -0.338761,-0.764791 0.07093,-0.07093 0.281813,0.221573 0.349311,0.484502 0.07715,0.300518 0.201358,0.423806 0.426974,0.423806 0.234458,0 0.268791,-0.04829 0.405872,-0.570913 0.130009,-0.495656 0.687603,-1.291753 0.904757,-1.291753 0.125178,0 0.216512,0.185013 0.449318,0.910166 0.239138,0.744882 0.332167,0.930225 0.512275,1.020621 0.351266,0.176297 0.280986,0.355213 -0.139533,0.355213 -0.323192,0 -0.399018,0.04287 -0.748798,0.423333 -0.35718,0.388515 -0.42076,0.423333 -0.773025,0.423333 -0.211109,0 -0.421839,-0.04763 -0.468287,-0.105833 z m -2.668267,-1.355074 c -0.02542,-0.06624 -0.01976,-0.25041 0.01257,-0.409265 0.0442,-0.217181 0.131504,-0.324573 0.351934,-0.432928 0.339526,-0.166898 0.420147,-0.181468 0.420147,-0.07593 0,0.04197 -0.13335,0.154983 -0.296333,0.251145 -0.199971,0.117986 -0.296755,0.237717 -0.297629,0.368196 -0.0018,0.266899 -0.1274,0.463711 -0.190689,0.298782 z m -1.322623,-0.329845 c -0.111251,-0.04134 -0.327855,-0.05161 -0.48134,-0.02282 -0.365156,0.0685 -0.439062,0.01225 -0.393326,-0.29937 0.04301,-0.293073 0.249887,-0.337316 0.611274,-0.130728 0.116417,0.06655 0.316441,0.12235 0.4445,0.123999 0.170946,0.0022 0.232833,0.0456 0.232833,0.163275 0,0.201486 -0.152871,0.262658 -0.413941,0.16564 z m -2.06728,-0.79232 c -0.130655,-0.11601 -0.29258,-0.210928 -0.359833,-0.210928 -0.07312,0 -0.122279,-0.08289 -0.122279,-0.206155 0,-0.427693 -0.142096,-0.60979 -0.630536,-0.808033 -0.339038,-0.137605 -0.573041,-0.179638 -0.817522,-0.146846 -0.296232,0.03973 -0.33448,0.02689 -0.283011,-0.09501 0.138011,-0.326879 0.127509,-0.51869 -0.04714,-0.861031 -0.120592,-0.236382 -0.170373,-0.45378 -0.143218,-0.625454 0.190981,-1.207378 0.262576,-1.460429 0.481675,-1.702468 0.126459,-0.1397 0.255383,-0.326129 0.286499,-0.414285 0.117365,-0.332521 0.160083,-0.03381 0.05676,0.396897 -0.05927,0.247076 -0.0936,0.523515 -0.07627,0.614308 0.0394,0.206527 0.346938,0.25934 0.492043,0.0845 0.05983,-0.0721 0.151751,-0.130503 0.204257,-0.12979 0.06854,9.31e-4 0.06926,0.01884 0.0026,0.0635 -0.119071,0.07972 -0.219435,1.0423 -0.124664,1.195643 0.04535,0.07337 0.0105,0.220266 -0.09445,0.39815 -0.216494,0.366931 -0.172685,0.638828 0.12592,0.781508 0.185547,0.08866 0.263932,0.09118 0.359833,0.01159 0.09176,-0.07615 0.151724,-0.0776 0.238325,-0.0057 0.06364,0.05282 0.204957,0.08606 0.31403,0.07387 0.252673,-0.02825 0.304291,0.184478 0.15473,0.637652 -0.104111,0.31546 -0.09905,0.344804 0.08513,0.493948 0.107701,0.08721 0.270329,0.158565 0.361397,0.158565 0.130679,0 0.159931,0.04907 0.138786,0.232833 -0.03564,0.309764 -0.294486,0.336705 -0.603011,0.06276 z m -13.690111,0.04307 c 0,-0.04657 0.04462,-0.08467 0.09917,-0.08467 0.05454,0 0.159317,-0.05031 0.232834,-0.111808 0.207292,-0.173394 0.792701,-0.321358 0.889287,-0.224772 0.115906,0.115906 -0.0038,0.204728 -0.495537,0.36766 -0.476267,0.157808 -0.72575,0.176229 -0.72575,0.05359 z M 3.8218311,31.173375 c -0.211833,-0.187049 -0.418254,-0.292809 -0.5715,-0.292809 -0.183102,0 -0.239894,-0.03991 -0.239894,-0.168601 0,-0.09273 -0.134883,-0.345306 -0.299739,-0.561281 -0.164857,-0.215974 -0.285456,-0.435378 -0.267997,-0.487565 0.01746,-0.05219 0.189458,-0.09489 0.382221,-0.09489 0.313729,0 0.355868,0.02449 0.401879,0.233538 0.10213,0.464029 0.456906,0.478346 0.871385,0.03516 0.324445,-0.346912 0.119578,-0.844084 -0.473915,-1.150102 -0.232117,-0.119684 -0.243058,-0.29371 -0.03175,-0.505018 0.08731,-0.08731 0.177346,-0.211137 0.200075,-0.275166 0.07075,-0.199303 0.151136,-0.03229 0.233856,0.485863 0.06664,0.417432 0.128112,0.539644 0.378445,0.752386 0.23474,0.199491 0.29888,0.316401 0.298877,0.544769 -2e-6,0.159923 0.07878,0.453523 0.17508,0.652444 l 0.175085,0.361675 -0.225463,0.384723 c -0.283854,0.48436 -0.530654,0.505166 -1.006645,0.08486 z m 12.4506539,0.172858 c 0.0268,-0.06985 0.08742,-0.127 0.13471,-0.127 0.04956,0 0.04133,0.0538 -0.01943,0.127 -0.05797,0.06985 -0.11859,0.127 -0.13471,0.127 -0.01612,0 -0.0074,-0.05715 0.01942,-0.127 z m 4.217059,-0.04971 c -0.03129,-0.05062 -0.01449,-0.134444 0.03734,-0.186266 0.06919,-0.06919 0.09422,-0.04473 0.09422,0.09204 0,0.204429 -0.04398,0.235928 -0.131559,0.09422 z m -2.602856,-0.393039 c -0.09454,-0.145964 0.08616,-0.448248 0.260894,-0.436429 0.134418,0.0091 0.134577,0.01262 0.0021,0.04756 -0.07955,0.02098 -0.154716,0.138771 -0.169333,0.265345 -0.01722,0.149125 -0.04953,0.191721 -0.0937,0.123528 z M 20.70577,30.09984 c 0,-0.147077 0.04555,-0.487953 0.101226,-0.757501 0.08647,-0.418648 0.08144,-0.531584 -0.03452,-0.774747 -0.08667,-0.18175 -0.10843,-0.327804 -0.06019,-0.404008 0.102468,-0.161865 0.098,-0.615968 -0.0071,-0.721065 -0.05722,-0.05722 -0.0028,-0.146184 0.165432,-0.270583 0.167875,-0.124115 0.269688,-0.290326 0.308229,-0.503185 0.03165,-0.174818 0.112227,-0.425795 0.179053,-0.557729 0.06683,-0.131932 0.110211,-0.360532 0.09641,-0.508 -0.04579,-0.489286 0.160457,-0.84891 0.592695,-1.03346 0.213829,-0.0913 0.412062,-0.176506 0.440516,-0.189354 0.09131,-0.04123 0.257185,0.41845 0.207496,0.575004 -0.02639,0.08315 -0.13488,0.172998 -0.241087,0.199653 -0.106207,0.02666 -0.245575,0.15427 -0.309706,0.283585 -0.06413,0.129314 -0.24257,0.357 -0.396529,0.505968 -0.426936,0.413091 -0.369547,0.912347 0.13764,1.197402 0.313559,0.17623 0.320246,0.190566 0.371451,0.796318 0.06606,0.78146 0.01296,1.022452 -0.200132,0.908406 -0.202491,-0.108369 -0.500429,-0.104671 -0.830253,0.01031 -0.300286,0.10468 -0.351873,0.340344 -0.140546,0.642055 0.110753,0.158121 0.111136,0.2158 0.0031,0.474237 -0.170957,0.409174 -0.383235,0.479353 -0.383235,0.126698 z m -12.3318319,-0.141003 -0.3515,-0.314153 0.3515,-0.171125 c 0.281554,-0.137074 0.347976,-0.212073 0.333794,-0.376892 -0.0097,-0.113172 0.0021,-0.332711 0.0263,-0.487864 0.03795,-0.243279 0.104469,-0.309137 0.483372,-0.478591 0.24165,-0.108072 0.601288,-0.336522 0.7991969,-0.507667 0.527222,-0.455925 0.477021,-0.82064 -0.1296569,-0.941976 -0.143927,-0.02878 -0.281975,-0.105211 -0.306774,-0.169836 -0.0248,-0.06462 -0.122483,-0.117499 -0.217079,-0.117499 -0.230237,0 -0.231711,-0.363035 -0.0027,-0.65423 0.09313,-0.1184 0.169334,-0.279052 0.169334,-0.357006 0,-0.07795 0.05594,-0.21569 0.124307,-0.306082 0.06837,-0.09039 0.125519,-0.304975 0.127,-0.476852 0.0015,-0.171876 0.04079,-0.33605 0.08736,-0.36483 0.1801169,-0.111318 0.06941,-0.380038 -0.285137,-0.692123 -0.233612,-0.205634 -0.392405,-0.428421 -0.431176,-0.60494 -0.04115,-0.187382 -0.130383,-0.305662 -0.27088,-0.35908 -0.167602,-0.06372 -0.1978,-0.117746 -0.150973,-0.27009 0.07832,-0.254784 0.09992,-0.271212 0.225953,-0.17184 0.31838,0.251025 0.912215,0.125562 0.912215,-0.192727 0,-0.210718 0.1711129,-0.133497 0.3214379,0.14506 0.224844,0.416642 0.419121,0.579407 0.691584,0.579407 0.29219,0 0.384344,0.134643 0.517681,0.756375 0.06372,0.297091 0.149235,0.459988 0.275667,0.525082 0.100814,0.0519 0.259497,0.16143 0.35263,0.243392 0.09313,0.08196 0.264583,0.175965 0.381,0.208896 0.116417,0.03293 0.306917,0.171613 0.423333,0.308181 0.145821,0.171063 0.31702,0.263005 0.550334,0.295557 0.540038,0.07535 0.746227,0.189197 0.997552,0.55082 0.212367,0.305568 0.266535,0.336357 0.550333,0.312812 0.290071,-0.02407 0.31694,-0.04873 0.34228,-0.314254 0.01833,-0.192027 -0.0308,-0.366993 -0.147284,-0.524544 -0.190058,-0.257067 -0.157203,-0.499651 0.06767,-0.499651 0.224169,0 0.517781,-0.247372 0.517781,-0.436237 0,-0.09495 -0.06483,-0.282377 -0.144057,-0.416505 -0.110441,-0.186962 -0.1249,-0.298675 -0.06196,-0.47873 0.06834,-0.195487 0.138436,-0.239467 0.41815,-0.262336 0.184828,-0.01511 0.385774,-0.06874 0.446546,-0.119179 0.07972,-0.06616 0.137792,-0.06441 0.208507,0.0063 0.167631,0.167632 0.56572,0.112134 0.78766,-0.109807 0.242997,-0.242995 0.298115,-0.863512 0.084,-0.945675 -0.107863,-0.04139 -0.107147,-0.07296 0.0056,-0.244962 0.08856,-0.135162 0.121502,-0.356283 0.10442,-0.70095 -0.0159,-0.320863 0.01472,-0.551308 0.08443,-0.635298 0.09022,-0.108705 0.08475,-0.179427 -0.03118,-0.403617 -0.112403,-0.217361 -0.121314,-0.314063 -0.04448,-0.482689 0.05284,-0.11598 0.07676,-0.230193 0.05314,-0.253807 -0.02361,-0.02362 0.326719,-0.16835 0.778517,-0.321634 0.850249,-0.288466 1.120748,-0.491575 1.120748,-0.841536 0,-0.202832 0.142834,-0.296012 0.453752,-0.296012 0.102247,0 0.272651,-0.06076 0.378677,-0.135024 0.118675,-0.08312 0.272364,-0.115047 0.399838,-0.08305 0.258967,0.065 0.266644,0.182733 0.01657,0.254039 -0.104775,0.02987 -0.466725,0.383814 -0.804333,0.786533 -0.603988,0.72047 -0.613834,0.739928 -0.613834,1.213043 0,0.264456 -0.02405,0.656264 -0.05344,0.870684 -0.04792,0.349649 -0.06993,0.381024 -0.213416,0.304234 -0.263371,-0.140951 -0.34808,-0.0088 -0.307552,0.479964 0.02693,0.324763 0.0059,0.463354 -0.07509,0.494426 -0.172941,0.06636 -0.133399,0.447588 0.06051,0.58341 0.16177,0.113307 0.164926,0.139778 0.04851,0.406968 -0.06848,0.157177 -0.145891,0.354395 -0.172024,0.438262 -0.08126,0.260774 -0.762588,0.505133 -1.229415,0.440928 -0.41527,-0.05711 -0.682765,0.0725 -0.682765,0.330845 0,0.274317 0.326301,0.409966 1.034885,0.430222 0.758023,0.02167 1.335781,0.208599 1.335781,0.432182 0,0.102817 -0.05971,0.08315 -0.260496,-0.0858 -0.351466,-0.295739 -0.669656,-0.284128 -0.953829,0.03481 -0.265336,0.297796 -0.39654,0.316126 -0.606008,0.08467 -0.2638,-0.291495 -0.623596,-0.168327 -0.629713,0.215569 -0.0014,0.09099 -0.04095,0.459236 -0.08777,0.818332 -0.09893,0.758651 -0.02107,1.082766 0.260092,1.082766 0.152352,0 0.16465,0.02066 0.07593,0.127561 -0.101438,0.122226 -0.06886,0.778607 0.05462,1.100385 0.03377,0.088 -0.06647,0.174309 -0.337264,0.290383 -0.256565,0.109978 -0.461287,0.27997 -0.612687,0.508751 -0.21791,0.329285 -0.24717,0.344231 -0.702957,0.359096 -0.946697,0.03087 -1.146709,-0.07096 -1.439518,-0.732894 -0.156424,-0.353618 -0.693472,-0.891282 -0.890259,-0.891282 -0.06195,0 -0.203499,0.07045 -0.314554,0.156563 -0.111054,0.08611 -0.363843,0.181809 -0.561751,0.212667 -0.295883,0.04613 -0.359833,0.0322 -0.359833,-0.07841 0,-0.07398 -0.115332,-0.249844 -0.256292,-0.390805 -0.239354,-0.239353 -0.268732,-0.247848 -0.4445,-0.128539 -0.353158,0.239718 -0.08745,0.82119 0.375248,0.82119 0.200491,0 0.240877,0.03549 0.240877,0.211667 0,0.189386 -0.03456,0.211666 -0.3283,0.211666 -0.188532,0 -0.373172,0.05407 -0.4337,0.127 -0.05797,0.06985 -0.149229,0.127 -0.202798,0.127 -0.05357,0 -0.305119,0.136801 -0.559001,0.304003 -0.2538829,0.167201 -0.5578139,0.357557 -0.6754019,0.423014 -0.11759,0.06546 -0.328099,0.21105 -0.467799,0.323542 l -0.254,0.204529 z m 2.1589959,-6.349878 c 0.06279,-0.03979 0.100565,-0.143983 0.08394,-0.231537 -0.039,-0.20543 -0.427916,-0.256694 -0.57775,-0.07615 -0.09357,0.112749 -0.08573,0.153164 0.04958,0.255587 0.186309,0.141024 0.285549,0.152664 0.444226,0.05211 z m 8.949839,6.573108 c -0.01779,-0.05821 -0.05476,-0.239183 -0.08215,-0.402167 l -0.0498,-0.296333 0.211809,0.368475 c 0.116494,0.202662 0.211809,0.383637 0.211809,0.402167 0,0.08634 -0.263116,0.02126 -0.291664,-0.07214 z m -0.330214,-1.065 c -0.189475,-0.209367 -0.179066,-0.437833 0.01995,-0.437833 0.119904,0 0.168751,0.07436 0.194665,0.296333 0.03895,0.333638 -0.01095,0.366541 -0.214613,0.1415 z M 6.6542041,28.669912 c -0.290003,-0.115763 -0.287981,-0.106227 -0.100464,-0.47379 0.168027,-0.32936 0.465433,-0.532889 0.778681,-0.532889 0.233191,0 0.211456,0.270881 -0.04632,0.577226 -0.116417,0.138354 -0.211667,0.312726 -0.211667,0.387496 0,0.152749 -0.114133,0.164144 -0.420233,0.04196 z m 25.1005649,0.0093 c 0.02878,-0.04657 0.06913,-0.08467 0.08966,-0.08467 0.02053,0 0.03734,0.0381 0.03734,0.08467 0,0.04657 -0.04035,0.08467 -0.08966,0.08467 -0.04931,0 -0.06612,-0.0381 -0.03734,-0.08467 z M 4.7625491,27.533557 c -0.259355,-0.22817 -0.406595,-0.255364 -0.657011,-0.121346 -0.146593,0.07845 -0.163767,0.05823 -0.163767,-0.192827 0,-0.398576 0.190905,-0.620828 0.62775,-0.730827 0.478433,-0.120471 1.196137,0.01268 1.320459,0.24498 0.136744,0.255507 0.09897,0.720384 -0.07104,0.87424 -0.236789,0.214292 -0.771116,0.176751 -1.056388,-0.07422 z m 3.553646,0.09353 c -0.05531,-0.144142 0.152754,-0.340219 0.278534,-0.262482 0.04861,0.03004 0.08837,0.12857 0.08837,0.218955 0,0.194031 -0.295694,0.22911 -0.366909,0.04353 z m 15.8609079,0.05498 c 0,-0.03621 0.05898,-0.150037 0.131072,-0.252959 0.07209,-0.102922 0.180914,-0.330475 0.241832,-0.505672 l 0.110761,-0.318541 0.03804,0.32216 c 0.04258,0.360597 -0.178031,0.82084 -0.393463,0.82084 -0.07053,0 -0.128245,-0.02962 -0.128245,-0.06583 z m 2.3495,-0.321688 c -0.03493,-0.03522 -0.0635,-0.14151 -0.0635,-0.236196 0,-0.124611 0.02557,-0.14658 0.09261,-0.07955 0.05093,0.05093 0.07951,0.157221 0.0635,0.236195 -0.01601,0.07897 -0.05768,0.114771 -0.09261,0.07955 z M 25.66513,26.508878 c -0.199383,-0.17525 -0.305202,-0.208326 -0.543027,-0.169733 -0.415187,0.06738 -0.221504,-0.105576 0.232457,-0.207573 0.457895,-0.102883 0.854543,0.07853 0.854543,0.39083 0,0.276643 -0.220072,0.271172 -0.543973,-0.01352 z M 27.521436,25.9699 c -0.147466,-0.162949 -0.14751,-0.175669 -0.0012,-0.337369 0.151526,-0.167433 0.153241,-0.167378 0.478789,0.01559 0.344882,0.193835 0.415261,0.354352 0.192794,0.43972 -0.253748,0.09737 -0.517552,0.05096 -0.670408,-0.117941 z m -0.804333,0.0527 c 0,-0.01758 0.06668,-0.08426 0.148167,-0.148167 0.134286,-0.105314 0.137281,-0.10232 0.03197,0.03197 -0.110606,0.141033 -0.180133,0.185884 -0.180133,0.1162 z m 4.924034,-0.137367 c 0,-0.116417 0.01922,-0.164042 0.0427,-0.105833 0.02349,0.05821 0.02349,0.153458 0,0.211666 -0.02349,0.05821 -0.0427,0.01058 -0.0427,-0.105833 z m -2.214701,-0.240992 c 0,-0.03941 0.05782,-0.187565 0.128493,-0.329229 0.176754,-0.354312 0.07512,-0.570347 -0.500771,-1.064492 -0.5709,-0.489857 -0.600421,-0.608416 -0.132875,-0.533653 0.468873,0.07498 0.674486,-0.0503 0.674486,-0.410964 0,-0.234351 0.08982,-0.381337 0.486834,-0.796664 0.498592,-0.521594 0.787653,-0.688006 1.195078,-0.688006 0.401054,0 0.555666,0.316689 0.330577,0.677113 -0.08577,0.137339 -0.07951,0.191482 0.03541,0.306402 0.113644,0.113644 0.121738,0.178756 0.04355,0.350353 -0.08551,0.187664 -0.0685,0.232794 0.155092,0.411696 0.138119,0.110511 0.346375,0.201701 0.462792,0.202646 0.381685,0.0031 0.45789,0.110041 0.298306,0.418642 -0.179861,0.347812 -0.84017,0.668941 -1.074534,0.522578 -0.08404,-0.05249 -0.229231,-0.09543 -0.322637,-0.09543 -0.172264,0 -0.595309,0.407115 -0.686889,0.661025 -0.03759,0.104207 -0.136829,0.132605 -0.397612,0.113776 -0.276388,-0.01996 -0.369956,0.01083 -0.457112,0.150387 -0.111484,0.178515 -0.238189,0.233742 -0.238188,0.10382 z m -5.574919,-0.812062 c 0.01609,-0.07767 0.06735,-0.139211 0.113919,-0.136751 0.12567,0.0066 0.102583,0.196055 -0.02925,0.24 -0.07121,0.02374 -0.102954,-0.01497 -0.08467,-0.103249 z M 35.607102,22.0329 c 0,-0.06985 0.0381,-0.127 0.08467,-0.127 0.04657,0 0.08467,0.05715 0.08467,0.127 0,0.06985 -0.0381,0.127 -0.08467,0.127 -0.04657,0 -0.08467,-0.05715 -0.08467,-0.127 z M 7.4131041,21.827397 c 0,-0.183243 -0.08275,-0.316299 -0.3175,-0.510523 -0.379607,-0.314072 -0.594917,-0.303434 -0.783044,0.03869 -0.18417,0.334926 -0.532087,0.382877 -0.819426,0.112936 -0.114951,-0.107987 -0.368158,-0.272826 -0.562682,-0.366305 -0.383225,-0.184159 -0.496639,-0.446717 -0.273101,-0.632238 0.0721,-0.05983 0.131086,-0.213761 0.131086,-0.342057 0,-0.30932 0.186695,-0.465312 0.412355,-0.344542 0.09305,0.0498 0.278364,0.09054 0.411812,0.09054 0.133448,0 0.278828,0.03555 0.323066,0.07901 0.04424,0.04346 0.229666,0.09108 0.41206,0.105834 0.292767,0.02368 0.34297,0.06069 0.428423,0.315837 0.111167,0.331923 0.530189,0.599988 0.937863,0.599988 0.259428,0 0.261181,0.003 0.255321,0.4445 -0.007,0.529914 -0.07429,0.656166 -0.349563,0.656166 -0.172046,0 -0.20667,-0.04152 -0.20667,-0.247836 z M 36.390599,21.146859 c -0.09468,-0.151606 -0.07379,-0.174484 0.235373,-0.257732 0.186601,-0.05025 0.477775,-0.185346 0.647052,-0.30022 0.347298,-0.235684 0.442999,-0.212602 0.291581,0.07033 -0.09394,0.175522 -0.823443,0.654001 -0.997114,0.654001 -0.04014,0 -0.119745,-0.07487 -0.176892,-0.166374 z M 8.8902111,21.136519 c -0.08725,-0.141175 0.108984,-0.303065 0.225783,-0.186267 0.0977,0.0977 0.03655,0.278311 -0.09422,0.278311 -0.04107,0 -0.100272,-0.04142 -0.13156,-0.09204 z M 34.640177,20.604592 c -0.126687,-0.255154 -0.123567,-0.272128 0.08372,-0.455529 0.274801,-0.243134 0.297504,-0.238945 0.509211,0.09396 l 0.176343,0.277299 -0.318844,0.174648 -0.318843,0.174648 z m 2.858026,-0.863387 c -0.02801,-0.07298 -0.0078,-0.17585 0.04499,-0.2286 0.07143,-0.07143 0.09591,-0.03757 0.09591,0.132691 0,0.254737 -0.06339,0.297888 -0.140899,0.09591 z M 21.239978,19.345208 c -0.195617,-0.215277 -0.314082,-0.805153 -0.198921,-0.990494 0.06192,-0.09966 0.116792,-0.103563 0.297633,-0.02117 0.354496,0.161518 0.708435,0.119789 1.023729,-0.120697 0.338947,-0.258527 0.38782,-0.595467 0.121351,-0.836618 -0.222675,-0.201518 -0.21363,-0.266858 0.04596,-0.332011 0.11841,-0.02972 0.238301,-0.113997 0.266424,-0.187285 0.07648,-0.19931 0.280283,0.33637 0.280283,0.736711 0,0.288128 0.03358,0.340907 0.296136,0.465499 0.244526,0.116036 0.889198,0.835638 0.889198,0.992552 0,0.02426 -0.176704,0.147666 -0.392675,0.274233 -0.441986,0.259021 -0.800498,0.256685 -1.619661,-0.01056 -0.439441,-0.143362 -0.448872,-0.142807 -0.640963,0.03765 l -0.194959,0.183154 z m 17.37711,-0.412949 c -0.19969,-0.237319 -0.256136,-0.258915 -0.55275,-0.211483 -0.424047,0.06781 -0.503645,-0.0545 -0.124656,-0.19155 0.310179,-0.112162 0.428134,-0.352483 0.35662,-0.726582 -0.03478,-0.181942 -0.01407,-0.200894 0.180928,-0.16558 0.121113,0.02193 0.315456,-0.01162 0.431872,-0.07456 0.192708,-0.104188 0.239593,-0.09278 0.523456,0.127402 0.538588,0.417756 0.603021,1.047068 0.140383,1.371113 -0.321317,0.225059 -0.70119,0.173886 -0.955853,-0.128764 z M 28.495103,18.392233 c 0,-0.06985 0.0381,-0.127 0.08467,-0.127 0.04657,0 0.08467,0.05715 0.08467,0.127 0,0.06985 -0.0381,0.127 -0.08467,0.127 -0.04657,0 -0.08467,-0.05715 -0.08467,-0.127 z m -1.27,-0.296333 c 0,-0.04657 0.0381,-0.08467 0.08467,-0.08467 0.04657,0 0.08467,0.0381 0.08467,0.08467 0,0.04657 -0.0381,0.08467 -0.08467,0.08467 -0.04657,0 -0.08467,-0.0381 -0.08467,-0.08467 z M 3.6877711,18.01123 c 0,-0.04657 0.0381,-0.08467 0.08467,-0.08467 0.04657,0 0.08467,0.0381 0.08467,0.08467 0,0.04657 -0.0381,0.08467 -0.08467,0.08467 -0.04657,0 -0.08467,-0.0381 -0.08467,-0.08467 z M 33.817496,17.828416 c -0.09607,-0.15133 -0.105338,-0.254288 -0.03919,-0.435487 0.114054,-0.312427 -0.01514,-0.516831 -0.347844,-0.55033 -0.214314,-0.02158 -0.27018,-0.07775 -0.353332,-0.355291 -0.05432,-0.181312 -0.192254,-0.403196 -0.306516,-0.493074 -0.240128,-0.188884 -0.380844,-0.510717 -0.380844,-0.87103 0,-0.317827 -0.33511,-0.667973 -0.639287,-0.667973 -0.367112,0 -1.129393,0.254575 -1.243802,0.415387 -0.133172,0.187185 -0.727451,0.22794 -0.794025,0.05445 -0.02489,-0.06487 -0.003,-0.196993 0.04876,-0.293613 0.100122,-0.187081 0.65118,-0.506012 0.855081,-0.494888 0.494654,0.02699 0.648998,-0.191864 0.457885,-0.64926 -0.172177,-0.412076 -0.0273,-0.462771 0.492413,-0.172299 0.369474,0.206502 0.568335,0.403159 0.930263,0.919954 0.140624,0.200795 0.183901,0.211159 0.719667,0.172351 0.944506,-0.06841 1.015221,-0.06578 1.28991,0.048 l 0.264534,0.109574 -0.330613,0.347339 c -0.877322,0.921705 -0.976883,1.576505 -0.338792,2.228188 0.293953,0.300214 0.326512,0.365636 0.205151,0.412206 -0.07934,0.03045 -0.193607,0.149548 -0.253926,0.26467 l -0.109673,0.209312 z M 17.568694,16.378495 c -0.170259,-0.230287 -0.216778,-0.24649 -0.601552,-0.209518 -0.453754,0.0436 -0.579372,-0.05691 -0.579372,-0.463577 0,-0.399657 -0.343013,-0.510084 -0.883268,-0.284352 -0.208459,0.0871 -0.300631,0.189582 -0.342674,0.381 -0.06462,0.294235 -0.176915,0.340826 -0.251914,0.104523 -0.02746,-0.08653 -0.200353,-0.225158 -0.384197,-0.308061 -0.183844,-0.0829 -0.397614,-0.220734 -0.475045,-0.306294 -0.07743,-0.08556 -0.364309,-0.19954 -0.637508,-0.253289 -0.413053,-0.08126 -0.496727,-0.12704 -0.496727,-0.271752 0,-0.09572 0.07383,-0.252683 0.164073,-0.348818 0.09024,-0.09614 0.21303,-0.357962 0.272866,-0.581839 0.09578,-0.358357 0.09152,-0.434316 -0.03557,-0.635 -0.0794,-0.125373 -0.199989,-0.345284 -0.267975,-0.488691 -0.06798,-0.143407 -0.18296,-0.309997 -0.2555,-0.3702 -0.07254,-0.0602 -0.131892,-0.144834 -0.131892,-0.188069 0,-0.09082 0.572485,0.321453 0.762588,0.549176 0.188907,0.22629 0.75719,0.277814 1.101329,0.09985 0.269646,-0.139439 0.28802,-0.139119 0.394779,0.0069 0.06158,0.08422 0.111971,0.295998 0.111971,0.470616 0,0.174619 0.03136,0.336869 0.06969,0.360557 0.03833,0.02369 0.311871,0.08207 0.607875,0.129741 0.71033,0.114396 0.791287,0.04854 0.743999,-0.60523 -0.03264,-0.451195 -0.06629,-0.521044 -0.409595,-0.850086 l -0.374036,-0.358501 0.279694,-0.02698 c 0.158508,-0.01529 0.370926,0.0328 0.490254,0.110986 0.115807,0.07588 0.313135,0.12612 0.438507,0.111645 0.192423,-0.02222 0.232326,-0.07245 0.256033,-0.322313 0.04227,-0.445511 0.156495,-0.535854 0.6041,-0.477795 0.211098,0.02738 0.469796,0.07432 0.574883,0.10431 0.149076,0.04254 0.252736,-0.0128 0.471678,-0.251832 0.154336,-0.168496 0.319626,-0.306356 0.367311,-0.306356 0.04768,0 0.154003,-0.07437 0.236263,-0.165266 0.129306,-0.142883 0.222839,-0.158423 0.690587,-0.114745 l 0.541024,0.05052 0.09282,-0.266256 c 0.08532,-0.24474 0.123246,-0.266255 0.469384,-0.266255 0.376709,0 0.699616,-0.2040676 0.811444,-0.5128106 0.03475,-0.09594 0.06758,-0.100228 0.152853,-0.01994 0.08825,0.08309 0.08829,0.126714 2.54e-4,0.232834 -0.05961,0.07182 -0.154958,0.130588 -0.211889,0.130588 -0.148358,0 -0.331908,0.2467726 -0.456203,0.6133386 -0.11593,0.341899 -0.106559,0.371295 0.26895,0.843713 0.217689,0.273869 0.243993,0.364066 0.205572,0.704935 -0.03032,0.269023 -0.115501,0.465454 -0.27322,0.630077 -0.284951,0.297425 -0.252296,0.514584 0.102147,0.679269 0.339552,0.157767 0.357882,0.265943 0.03409,0.201185 -0.487647,-0.09753 -0.835374,0.628247 -0.396749,0.828098 0.258465,0.117764 0.327475,0.28703 0.208022,0.510229 -0.08365,0.156307 -0.07645,0.591393 0.01513,0.913811 0.02326,0.08188 -0.03749,0.135048 -0.176164,0.154156 -0.116417,0.01604 -0.260084,0.09199 -0.319262,0.168768 -0.17169,0.222764 -0.714807,0.338575 -1.368477,0.291805 -0.484687,-0.03468 -0.582166,-0.06443 -0.507179,-0.154783 0.05106,-0.06152 0.06825,-0.151621 0.03821,-0.200228 -0.07697,-0.124545 -0.277541,-0.109828 -0.357918,0.02627 -0.101343,0.17159 -0.447397,0.333149 -0.845481,0.394721 -0.32368,0.05007 -0.370453,0.03316 -0.538969,-0.194767 z m 2.678455,-0.210058 c 0.05044,-0.03421 0.191365,-0.274791 0.313161,-0.534621 0.183882,-0.39228 0.220682,-0.589251 0.216931,-1.16115 -0.0029,-0.443569 -0.04228,-0.720071 -0.110599,-0.776772 -0.05834,-0.04842 -0.311534,-0.158671 -0.562644,-0.244997 -0.251108,-0.08633 -0.514804,-0.182256 -0.58599,-0.213178 -0.19492,-0.08467 -0.455471,0.15181 -0.467395,0.424214 -0.0096,0.218622 -0.06102,0.257709 -0.55353,0.420529 -0.425137,0.140548 -0.548984,0.219864 -0.570645,0.365466 -0.03396,0.228254 0.122015,0.430639 0.331885,0.430639 0.107524,0 0.223511,0.146536 0.370714,0.468356 0.117827,0.257594 0.280868,0.490568 0.362315,0.517719 0.08145,0.02715 0.300485,0.121161 0.486751,0.208911 0.355141,0.167308 0.614994,0.199368 0.769046,0.09488 z m -2.426467,-1.870539 c 0.06605,-0.123421 0.02862,-0.232918 -0.173679,-0.508 -0.300931,-0.409201 -0.420698,-0.432338 -0.660421,-0.12758 -0.230135,0.292569 -0.221402,0.405836 0.04761,0.617437 0.280862,0.220926 0.673126,0.229975 0.786494,0.01814 z m 3.051049,-1.150935 c 0.05612,-0.06761 0.07954,-0.19144 0.05205,-0.275166 -0.05771,-0.175783 -0.860096,-0.78723 -1.033058,-0.78723 -0.196354,0 -0.455024,0.325863 -0.453657,0.5715 0.002,0.35279 0.103529,0.448367 0.557225,0.52437 0.630192,0.105571 0.766354,0.100377 0.87744,-0.03347 z m 9.951705,3.34027 c -0.02878,-0.04657 -0.03414,-0.08467 -0.01192,-0.08467 0.02222,0 0.100671,-0.02313 0.174329,-0.05139 0.08788,-0.03372 0.133925,-0.0046 0.133925,0.08467 0,0.149364 -0.212957,0.186297 -0.296334,0.05139 z m 8.042645,-0.339779 c -0.05602,-0.09064 0.356528,-0.67622 0.476404,-0.67622 0.143483,0 0.07259,0.191621 -0.175381,0.474045 -0.1375,0.156603 -0.27296,0.247582 -0.301023,0.202175 z m -8.762312,-0.125887 c -0.05797,-0.06985 -0.176129,-0.127 -0.262575,-0.127 -0.150838,0 -0.1513,-0.01141 -0.01145,-0.283043 0.20616,-0.400429 0.400388,-0.323046 0.403269,0.160666 0.0012,0.207007 -0.0036,0.376377 -0.0108,0.376377 -0.0072,0 -0.06047,-0.05715 -0.118442,-0.127 z m -1.907347,-0.489754 c -0.0463,-0.105493 -0.174946,-0.20009 -0.293986,-0.216168 -0.26038,-0.03517 -0.592666,-0.330887 -0.592666,-0.527445 0,-0.200473 -0.222167,-0.268038 -0.37589,-0.114315 -0.112609,0.112609 -0.157864,0.109839 -0.404617,-0.02476 -0.170864,-0.09321 -0.277827,-0.216747 -0.277827,-0.320887 0,-0.241503 -0.341327,-0.274666 -0.464186,-0.0451 -0.131547,0.245799 -0.25548,0.136 -0.25548,-0.226343 0,-0.221853 -0.07992,-0.401316 -0.296334,-0.665418 -0.47431,-0.578834 -0.361363,-0.845441 0.296334,-0.699483 0.441601,0.098 0.626492,0.11051 1.287828,0.08712 0.472055,-0.0167 0.543606,-0.05291 0.780179,-0.394837 0.112632,-0.162791 0.121357,-0.161591 0.442411,0.0609 0.210999,0.146222 0.3916,0.210208 0.507659,0.179857 0.09908,-0.02591 0.205744,-0.0057 0.237031,0.04493 0.03129,0.05062 0.0027,0.09204 -0.06343,0.09204 -0.06618,0 -0.29223,0.139407 -0.502342,0.309791 -0.35458,0.287538 -0.385718,0.345155 -0.433478,0.802092 -0.04258,0.407415 -0.02102,0.54388 0.125045,0.791445 0.231265,0.391965 0.523557,0.467502 0.80088,0.20697 l 0.209071,-0.196411 0.186056,0.186057 c 0.160477,0.160476 0.16601,0.186056 0.04024,0.186056 -0.0802,0 -0.215613,0.06668 -0.300923,0.148167 -0.08531,0.08149 -0.248291,0.232577 -0.362181,0.335746 l -0.207072,0.187579 z M 9.5057181,13.672067 c -0.02541,-0.151342 -0.07411,-0.351367 -0.108205,-0.4445 -0.05095,-0.139167 -0.04168,-0.150479 0.05206,-0.0635 0.06273,0.05821 0.182641,0.105833 0.266461,0.105833 0.170892,0 0.19197,0.138899 0.06983,0.460155 -0.112527,0.295969 -0.224604,0.27277 -0.280148,-0.05799 z m 23.7730509,-0.5715 c -0.02878,-0.04657 -0.01423,-0.08467 0.03234,-0.08467 0.04657,0 0.108214,0.0381 0.136994,0.08467 0.02878,0.04657 0.01423,0.08467 -0.03234,0.08467 -0.04657,0 -0.108213,-0.0381 -0.136993,-0.08467 z M 7.6231141,12.903626 c -0.140612,-0.05467 -0.401058,-0.242267 -0.578769,-0.416892 -0.34055,-0.334635 -0.506408,-0.378038 -0.848681,-0.222088 -0.115173,0.05248 -0.307466,0.0708 -0.427317,0.04072 -0.186361,-0.04677 -0.21791,-0.101354 -0.21791,-0.376987 0,-0.23431 0.05778,-0.37658 0.211667,-0.521145 0.306808,-0.288232 0.271207,-0.567868 -0.123553,-0.970462 -0.339825,-0.346569 -0.40383,-0.5885516 -0.32557,-1.2308706 0.02247,-0.18445 -0.01061,-0.215154 -0.257297,-0.238788 -0.166428,-0.01595 -0.340881,0.02494 -0.423333,0.09921 -0.07714,0.06948 -0.26983,0.138839 -0.428209,0.154121 -0.367768,0.03549 -0.590366,0.326539 -0.67292,0.8798586 -0.06,0.402146 -0.06657,0.410286 -0.173902,0.215555 -0.07457,-0.135284 -0.09345,-0.3388086 -0.05695,-0.6139266 0.03392,-0.255675 0.01715,-0.481525 -0.04427,-0.596289 -0.08343,-0.155882 -0.07131,-0.207048 0.0776,-0.327623 0.09826,-0.07956 0.263774,-0.1262 0.373469,-0.10523 0.410055,0.07839 0.650158,-0.517471 0.276449,-0.686059 -0.09286,-0.04189 -0.259215,-0.186884 -0.369676,-0.322206 l -0.200837,-0.24604 0.190026,-0.202273 c 0.254913,-0.271343 0.174766,-0.615674 -0.173943,-0.747297 -0.28864,-0.10895 -0.287157,-0.188609 0.0068,-0.366362 0.161283,-0.09752 0.26297,-0.106196 0.442271,-0.03774 0.198195,0.07567 0.232833,0.137306 0.232833,0.414309 0,0.569918 0.694223,1.530479 1.787141,2.472777 0.189036,0.162983 0.608681,0.554754 0.932545,0.870603 0.346833,0.3382486 0.688025,0.5941046 0.830163,0.6225326 0.239197,0.04784 0.24184,0.05523 0.300671,0.839911 0.03264,0.435406 0.03531,0.901122 0.0059,1.034925 -0.02939,0.133802 -0.0147,0.345146 0.03263,0.469652 0.09791,0.257524 0.03827,0.275572 -0.377065,0.114101 z m 1.483323,-0.819059 c 0,-0.04657 0.0381,-0.08467 0.08467,-0.08467 0.04657,0 0.08467,0.0381 0.08467,0.08467 0,0.04657 -0.0381,0.08467 -0.08467,0.08467 -0.04657,0 -0.08467,-0.0381 -0.08467,-0.08467 z m 5.8215149,-0.486833 c 0.115454,-0.151342 0.219922,-0.275167 0.232152,-0.275167 0.01223,0 0.116507,0.123825 0.231728,0.275167 L 15.601326,11.8729 H 15.15968 14.718035 Z M 27.33844,11.27516 c -0.03277,-0.08539 0.06172,-0.235028 0.2673,-0.423334 0.37047,-0.339338 0.392049,-0.344006 0.588201,-0.12726 0.170427,0.188319 0.1125,0.344001 -0.127997,0.344001 -0.09084,0 -0.23041,0.0762 -0.310153,0.169333 -0.173684,0.202849 -0.347842,0.218397 -0.417351,0.03726 z M 13.819548,10.673456 c -0.122167,-0.122167 -0.05291,-0.366889 0.10383,-0.366889 0.193586,0 0.286392,0.1968 0.154843,0.328349 -0.108709,0.10871 -0.178156,0.119056 -0.258673,0.03854 z m 15.585721,0.0071 c -0.09634,-0.09637 -0.0759,-0.610311 0.0268,-0.67378 0.14385,-0.0889 0.164454,-0.0103 0.09849,0.375733 -0.03398,0.198862 -0.09036,0.332983 -0.125287,0.298047 z m -17.63446,-0.208884 c -0.08045,-0.130173 0.02975,-0.214161 0.138416,-0.105493 0.06081,0.06081 0.06227,0.108164 0.0044,0.143903 -0.04741,0.0293 -0.111691,0.01201 -0.142856,-0.03841 z m 19.490072,-0.136859 c -0.10734,-0.107341 -0.05579,-0.197557 0.112888,-0.197557 0.09407,0 0.169334,0.05644 0.169334,0.127 0,0.128897 -0.179104,0.173673 -0.282222,0.07055 z M 8.3444371,10.221901 c 0,-0.04657 0.0594,-0.08467 0.131997,-0.08467 0.0726,0 0.10845,0.0381 0.07967,0.08467 -0.02878,0.04657 -0.08818,0.08467 -0.131997,0.08467 -0.04382,0 -0.07967,-0.0381 -0.07967,-0.08467 z m 16.4676659,-0.08467 c -0.02878,-0.04657 -0.01198,-0.08467 0.03734,-0.08467 0.04931,0 0.08966,0.0381 0.08966,0.08467 0,0.04657 -0.0168,0.08467 -0.03734,0.08467 -0.02053,0 -0.06088,-0.0381 -0.08966,-0.08467 z m 4.94035,-0.5185966 c 0.05572,-0.150632 0.181983,-0.231393 0.181983,-0.116403 0,0.02328 0,0.07636 0,0.117942 0,0.04158 -0.0552,0.09679 -0.122674,0.122683 -0.09309,0.03572 -0.107392,0.0058 -0.05931,-0.124222 z m 4.161316,-0.371658 c -0.116416,-0.06586 -0.290109,-0.121095 -0.385984,-0.122744 -0.09587,-0.0017 -0.248275,-0.05778 -0.338667,-0.124723 -0.157771,-0.11685 -0.148254,-0.138144 0.237818,-0.532074 0.221192,-0.225695 0.402167,-0.460437 0.402167,-0.52165 0,-0.259639 -0.27805,-0.662109 -0.591077,-0.855571 -0.349724,-0.216141 -0.561836,-0.503618 -0.277717,-0.376392 0.08202,0.03673 0.325354,0.08243 0.540743,0.101553 0.338762,0.03008 0.426445,0.0023 0.649672,-0.205517 0.141931,-0.132161 0.359887,-0.311506 0.484347,-0.398545 0.230146,-0.160947 0.251892,-0.36237 0.08222,-0.761618 -0.06209,-0.146115 -0.03512,-0.153472 0.362291,-0.09882 0.377794,0.05196 0.440361,0.03854 0.520781,-0.111731 0.05027,-0.09393 0.0914,-0.24949 0.0914,-0.345685 0,-0.116129 0.05472,-0.174899 0.162837,-0.174899 0.08956,0 0.270536,-0.0877 0.402167,-0.194894 0.454635,-0.370225 0.890928,-0.478908 1.502186,-0.374204 0.917655,0.157188 1.181746,-0.104457 0.8364,-0.828656 -0.133836,-0.280656 -0.134326,-0.319451 -0.0067,-0.529809 0.303773,-0.500643 0.396152,-0.322158 0.418362,0.808312 0.0099,0.506298 -0.01978,0.820965 -0.08358,0.884767 -0.05838,0.05838 -0.09902,0.365778 -0.09902,0.74905 0,0.719557 -0.0392,0.786209 -0.569624,0.96856 -0.346314,0.119057 -0.368882,0.14786 -0.580452,0.740782 -0.101697,0.285006 -0.200825,0.417837 -0.337401,0.452115 -0.106367,0.0267 -0.259253,0.121312 -0.339748,0.210258 -0.08049,0.08894 -0.217988,0.161718 -0.305543,0.161718 -0.192612,0 -0.528163,0.200509 -0.878975,0.525231 -0.185061,0.171298 -0.401308,0.263721 -0.74972,0.320426 -0.500902,0.08152 -0.725871,0.198118 -0.725871,0.376195 0,0.05525 -0.04763,0.162967 -0.105833,0.239376 -0.09331,0.122494 -0.130872,0.124763 -0.3175,0.01918 z m 2.100997,-2.302919 c 0.03538,-0.248793 -0.356104,-0.366005 -0.555723,-0.166385 -0.112187,0.112187 -0.11561,0.155558 -0.02125,0.269257 0.164874,0.198661 0.543697,0.131118 0.576971,-0.102872 z m -24.918662,2.092508 c -0.07087,-0.11467 0.02476,-0.254 0.17433,-0.254 0.0671,0 0.122003,0.0762 0.122003,0.169333 0,0.175286 -0.204259,0.233646 -0.296333,0.08467 z M 2.4637201,8.8730824 c -0.06262,-0.101313 0.09666,-0.201696 0.209432,-0.131997 0.09469,0.05852 0.03253,0.210813 -0.08605,0.210813 -0.04107,0 -0.09659,-0.03547 -0.123384,-0.07882 z m 24.0482439,-0.07995 c -0.01862,-0.03012 0.02031,-0.128819 0.08649,-0.219331 0.109641,-0.149944 0.154587,-0.155407 0.505788,-0.06148 0.324731,0.08685 0.414261,0.08291 0.568329,-0.025 0.100582,-0.07045 0.231548,-0.128091 0.291038,-0.128091 0.183097,0 0.119525,0.25397 -0.08234,0.328944 -0.250124,0.0929 -1.325801,0.175343 -1.369306,0.104951 z M 8.6548821,8.5567924 c -0.09742,-0.09742 -0.06166,-0.197556 0.07056,-0.197556 0.06985,0 0.127,0.05715 0.127,0.127 0,0.132214 -0.100135,0.167976 -0.197555,0.07055 z m 16.2505329,-0.27307 c -0.47252,-0.07372 -0.546007,-0.240059 -0.354698,-0.80288 0.08631,-0.25391 0.138717,-0.556883 0.116467,-0.673273 -0.03248,-0.169897 -0.0017,-0.21903 0.1562,-0.249211 0.135913,-0.02598 0.211423,0.0089 0.244468,0.113057 0.04299,0.135461 0.352537,0.440393 0.878141,0.865058 l 0.186772,0.150904 -0.360252,0.33593 c -0.198138,0.184761 -0.400038,0.330523 -0.448664,0.323915 -0.04863,-0.0066 -0.236922,-0.03518 -0.418434,-0.0635 z M 1.4211731,7.5813594 c 0.05233,-0.156991 0.234598,-0.183029 0.234598,-0.03351 0,0.07373 -0.06032,0.134056 -0.134056,0.134056 -0.07373,0 -0.118974,-0.04524 -0.100542,-0.100542 z m 11.0162279,-0.03077 c -0.02852,-0.07433 0.02774,-0.214465 0.129658,-0.322957 0.214818,-0.228663 0.238686,-0.629214 0.04199,-0.704693 -0.07593,-0.02914 -0.256905,0.0076 -0.402167,0.0816 -0.145262,0.07402 -0.414976,0.149487 -0.599364,0.167705 -0.288881,0.02854 -0.374011,-0.0056 -0.615482,-0.247107 -0.387764,-0.387763 -0.480546,-0.65955 -0.31264,-0.915808 0.103148,-0.157423 0.111561,-0.241033 0.03807,-0.378348 -0.07781,-0.145394 -0.06775,-0.184806 0.05748,-0.225021 0.37214,-0.119509 0.570393,-0.265623 0.753089,-0.555031 0.256089,-0.405671 0.32601,-0.441202 0.604885,-0.307371 0.231943,0.111309 0.233019,0.115817 0.20338,0.852166 l -0.0298,0.740265 0.304965,0.127422 c 0.167729,0.07008 0.304963,0.166953 0.304963,0.215268 0,0.04832 0.135429,0.211917 0.300954,0.363558 l 0.300955,0.27571 -0.152788,0.480808 -0.152788,0.480808 -0.36249,0.0012 c -0.250175,8.09e-4 -0.378093,-0.03951 -0.41287,-0.130138 z M 2.5024371,6.8775644 c 0.05797,-0.06985 0.138836,-0.127 0.179701,-0.127 0.04087,0 0.0743,0.05715 0.0743,0.127 0,0.073 -0.07641,0.127 -0.179701,0.127 -0.150134,0 -0.162358,-0.0209 -0.0743,-0.127 z M 23.541795,5.9380714 c -0.155039,-0.264554 -0.239669,-0.540453 -0.25434,-0.829159 -0.01209,-0.237973 -0.0496,-0.537453 -0.08335,-0.665511 -0.0555,-0.210586 -0.04006,-0.232833 0.161579,-0.232833 0.217863,0 0.388083,-0.241151 0.388083,-0.549798 0,-0.194079 -0.252562,-0.381535 -0.514048,-0.381535 -0.136373,0 -0.247952,-0.04463 -0.247952,-0.09917 0,-0.05454 -0.0566,-0.161708 -0.125776,-0.238148 -0.115581,-0.127716 -0.08298,-0.136364 0.402167,-0.106697 0.694011,0.04244 0.714329,0.0515 0.7794,0.347773 0.08439,0.38424 0.231773,0.4628 0.747365,0.398381 0.383056,-0.04786 0.483872,-0.02937 0.679666,0.12464 0.319207,0.251088 0.474924,0.589004 0.458716,0.99544 -0.0093,0.233267 0.03751,0.402142 0.144131,0.519957 0.157807,0.174375 0.15758,0.174487 -0.353476,0.174487 -0.456457,0 -0.526779,-0.02349 -0.654708,-0.218739 -0.07882,-0.120306 -0.273706,-0.273217 -0.433068,-0.339802 -0.159361,-0.06659 -0.289748,-0.158653 -0.289748,-0.204595 0,-0.04594 -0.113574,-0.08353 -0.252387,-0.08353 -0.331741,0 -0.408586,0.281148 -0.215227,0.787448 0.152039,0.398111 0.147208,0.915319 -0.009,0.966524 -0.0526,0.01724 -0.200203,-0.147071 -0.327998,-0.365136 z m -8.593358,-0.48947 c 0,-0.206564 0.186002,-0.431142 0.27958,-0.337564 0.05239,0.05239 -0.163752,0.538864 -0.239421,0.538864 -0.02209,0 -0.04016,-0.09059 -0.04016,-0.2013 z M 0.5551041,4.6508344 c 0,-0.105513 0.191267,-0.270933 0.313267,-0.270933 0.155773,0 0.137043,0.225531 -0.02386,0.287275 -0.183478,0.07041 -0.289409,0.06443 -0.289409,-0.01634 z M 21.322988,2.9575334 c -0.113606,-0.0722 -0.617218,-0.981086 -0.617218,-1.113915 0,-0.145947 0.525677,0.01196 1.036526,0.311361 0.268111,0.157135 0.487474,0.33826 0.487474,0.4025 0,0.288758 -0.638594,0.570494 -0.906782,0.400054 z m -7.330325,-0.219465 c -0.251546,-0.233124 -0.234029,-0.428331 0.08046,-0.896654 0.108889,-0.162151 0.19798,-0.359455 0.19798,-0.438452 0,-0.238862 0.245859,-0.40972697 0.589558,-0.40972697 0.45595,0 1.008594,0.44331697 1.014739,0.81399697 0.0039,0.234295 -0.03639,0.279229 -0.361541,0.403406 -0.267701,0.102236 -0.403678,0.218944 -0.50663,0.434836 -0.124911,0.261941 -0.177533,0.295094 -0.468394,0.295094 -0.228213,0 -0.393995,-0.06146 -0.546173,-0.2025 z m 10.705808,-0.0515 c 0,-0.116416 0.01922,-0.164041 0.0427,-0.105833 0.02349,0.05821 0.02349,0.153458 0,0.211667 -0.02349,0.05821 -0.0427,0.01058 -0.0427,-0.105834 z m 15.623748,-0.486833 c -0.01992,-0.03493 -0.06179,-0.20528 -0.09304,-0.378567 -0.03251,-0.180204 -0.135933,-0.37047 -0.241626,-0.4445 l -0.184795,-0.129433 h 0.224009 c 0.27095,0 0.745002,0.37806 0.745002,0.594145 0,0.255022 -0.349573,0.533681 -0.44955,0.358355 z m -1.569082,-0.359834 c 0,-0.116416 0.01922,-0.164041 0.0427,-0.105833 0.02349,0.05821 0.02349,0.153458 0,0.211667 -0.02349,0.05821 -0.0427,0.01058 -0.0427,-0.105834 z"
       id="path225" />
  </g>
</svg>
