<svg
   xmlns:rdf="http://www.w3.org/1999/02/22-rdf-syntax-ns#"
   xmlns:svg="http://www.w3.org/2000/svg"
   xmlns="http://www.w3.org/2000/svg"
   width="210mm"
   height="297mm"
   viewBox="0 0 210 297"
   version="1.1"
   id="svg12">
   <g id="layer4">
    <path
       style="fill:#808000;stroke-width:0.08466666"
       d="m 15.319082,43.061166 c -0.418568,-0.0783 -0.442885,-0.5902 -0.05241,-1.103347 0.474658,-0.623785 1.294936,-0.06804 0.932904,0.632048 -0.206424,0.399181 -0.480832,0.546064 -0.88049,0.471299 z m 13.242473,-1.95668 c -0.311041,-0.343697 -0.04823,-0.756996 0.408474,-0.64237 0.250074,0.06276 0.284461,0.31941 0.0816,0.609031 -0.160182,0.228692 -0.304405,0.238503 -0.490077,0.03334 z M 1.8950814,40.713538 c -0.477594,-0.477594 -0.01018,-1.824885 0.633112,-1.824885 0.225985,0 0.238899,0.01994 0.23306,0.359833 -0.01058,0.615868 -0.128357,1.250591 -0.254243,1.370146 -0.202524,0.192342 -0.472606,0.234229 -0.611929,0.09491 z m 35.6491846,-0.05367 c -0.233646,-0.136086 -0.188864,-0.489936 0.07468,-0.590137 0.122567,-0.0466 0.293928,-0.06217 0.380803,-0.0346 0.171513,0.05444 0.290753,0.384987 0.212469,0.588991 -0.05565,0.14502 -0.444603,0.165832 -0.667955,0.03574 z M 27.154189,39.35764 c -0.05645,-0.06802 -0.122037,-0.268259 -0.145739,-0.444968 -0.03403,-0.253699 -0.0057,-0.35512 0.134611,-0.48211 0.176021,-0.159296 0.177705,-0.158801 0.177705,0.05215 0,0.117134 0.02423,0.389739 0.05384,0.605789 0.0555,0.404928 -0.02557,0.503917 -0.220419,0.269137 z M 8.2444874,39.129629 c -0.200805,-0.112377 -0.187094,-0.550115 0.02071,-0.661331 0.232127,-0.12423 0.510849,-0.108577 0.564683,0.03171 0.05587,0.145597 -0.170841,0.605488 -0.328266,0.665898 -0.06274,0.02408 -0.178452,0.0077 -0.257131,-0.03628 z M 35.92413,38.839121 c -0.371971,-0.383006 -0.539751,-0.857291 -0.397379,-1.123316 0.189948,-0.354921 0.331645,-0.210615 0.644315,0.656181 0.275383,0.763425 0.192709,0.919822 -0.246936,0.467135 z m -18.915763,-0.05207 c -0.161883,-0.161883 -0.116715,-0.733298 0.115428,-1.460273 0.209197,-0.655114 0.211225,-0.684164 0.07688,-1.100667 -0.440841,-1.366694 -1.516821,-2.28643 -2.483737,-2.12307 -0.471311,0.07963 -0.633278,0.0096 -0.896154,-0.38767 -0.440059,-0.664975 -0.09532,-1.014815 0.828587,-0.840848 0.356629,0.06715 0.628901,0.07224 0.860397,0.01608 0.582051,-0.141207 1.602459,-0.419685 1.74493,-0.476206 0.373777,-0.148285 0.47914,-1.08472 0.179859,-1.598537 -0.0855,-0.14678 -0.313191,-0.354222 -0.505992,-0.460982 -0.29819,-0.165117 -0.369859,-0.260543 -0.479856,-0.638919 -0.202496,-0.696561 -0.60785,-0.96872 -1.199503,-0.805356 -0.485508,0.134055 -0.7798,0.469525 -0.991634,1.130384 l -0.189976,0.592666 h -0.522181 c -0.287199,0 -0.564987,0.04221 -0.617307,0.09379 -0.05232,0.05159 -0.153581,0.318287 -0.225026,0.592667 -0.07145,0.27438 -0.16742,0.544404 -0.213279,0.600054 -0.04586,0.05565 -0.284798,0.142996 -0.530973,0.194101 -0.246176,0.05111 -0.5745,0.18655 -0.72961,0.300985 -0.342136,0.252421 -0.574911,0.261269 -1.01166,0.03846 -0.4131966,-0.210797 -0.5074576,-0.382096 -0.5074576,-0.922192 0,-0.331783 -0.04181,-0.464554 -0.189672,-0.602307 -0.261807,-0.243912 -0.536603,-0.160217 -0.953329,0.290356 -0.206675,0.223463 -0.493868,0.422018 -0.736888,0.50946 -0.470925,0.169445 -0.875118,0.595883 -0.987027,1.041348 -0.04402,0.175236 -0.104982,0.623412 -0.135466,0.995945 -0.07662,0.936318 -0.170343,1.058333 -0.812943,1.058333 -0.874228,0 -1.280751,0.303848 -1.712414,1.279915 -0.212204,0.479833 -0.566947,0.752085 -0.97996,0.752085 -0.357554,0 -0.453997,-1.168157 -0.145669,-1.764397 0.07096,-0.137226 0.321778,-0.390998 0.557368,-0.563936 0.609503,-0.447416 0.709874,-0.681954 0.639093,-1.49337 -0.05309,-0.608643 -0.0335,-0.737175 0.251522,-1.650212 0.223348,-0.715465 0.37623,-1.057288 0.551074,-1.232133 0.235888,-0.235888 0.262859,-0.241595 1.072309,-0.226908 0.765524,0.01389 0.883203,-0.0069 1.507668,-0.265673 0.826164,-0.342426 1.571164,-1.019792 1.737839,-1.580074 0.155055,-0.521221 -0.09435,-0.990827 -0.785409,-1.478859 -0.28824,-0.203557 -0.653785,-0.494876 -0.812322,-0.647374 -0.27111,-0.260783 -0.285739,-0.303389 -0.24604,-0.716544 0.05859,-0.609724 -0.03549,-0.811684 -0.616212,-1.322856 -0.278038,-0.24474 -0.505523,-0.479494 -0.505523,-0.521677 0,-0.126155 0.317185,-0.257368 0.819952,-0.339195 0.527088,-0.08579 0.756301,-0.246662 0.9274,-0.650905 0.193666,-0.457565 0.144185,-1.009575 -0.143416,-1.59993 -0.292582,-0.600578 -0.283402,-0.931961 0.03907,-1.410481 0.239518,-0.355422 0.461771,-0.348028 0.697112,0.02319 0.543572,0.857414 0.73305,0.963517 1.8803656,1.052961 0.438499,0.03419 0.685548,0.09837 0.836917,0.217437 0.595659,0.468546 1.055873,-0.08835 0.560008,-0.677648 l -0.224589,-0.266908 0.173871,-0.438088 c 0.268504,-0.676526 0.279027,-0.812734 0.101746,-1.317131 -0.09081,-0.258364 -0.165106,-0.608315 -0.165106,-0.777668 0,-0.528288 -0.282914,-0.823814 -1.270263,-1.326895 -1.2473696,-0.635568 -1.4092596,-0.579152 -2.1948306,0.764847 -0.280776,0.480371 -0.604222,0.961444 -0.718766,1.069054 -0.290142,0.272573 -0.886527,0.335885 -1.08615,0.115304 -0.22239,-0.245738 -0.330266,-0.987117 -0.268353,-1.844263 0.05151,-0.713079 0.03757,-0.812445 -0.217042,-1.547726 -0.149644,-0.432149 -0.253747,-0.833503 -0.231339,-0.891897 0.02241,-0.05839 0.397517,-0.173736 0.833576,-0.256317 1.473715,-0.279089 1.769634,-0.449982 2.022787,-1.168152 0.09979,-0.283089 0.186717,-0.3838 0.381,-0.441404 0.138443,-0.04105 0.307496,-0.102043 0.375673,-0.135544 0.184667,-0.09074 0.418845,-0.831433 0.422853,-1.33746 0.0026,-0.3228249 0.03596,-0.4444999 0.1220246,-0.4444999 0.06518,0 0.469585,0.135588 0.898684,0.3013059 0.536109,0.207045 0.93745,0.432187 1.282893,0.719667 0.731337,0.608626 1.122075,0.552892 1.323498,-0.188779 0.04642,-0.170943 0.198072,-0.47601 0.336993,-0.6779249 0.138921,-0.201916 0.355189,-0.656139 0.480594,-1.009384 0.198276,-0.558515 0.217768,-0.698611 0.149473,-1.07436 -0.0863,-0.474803 -0.02364,-0.610524 0.281869,-0.610524 0.100085,0 0.439073,-0.136437 0.753306,-0.303192 0.662321,-0.351478 0.867534,-0.322052 1.232186,0.176683 0.258037,0.352917 0.532342,0.460717 1.029683,0.40466 0.274824,-0.03098 0.485604,0.0062 0.770352,0.135935 0.215605,0.09822 0.486425,0.17858 0.601824,0.17858 0.27352,0 0.678555,-0.346351 0.953313,-0.81519 0.120551,-0.205705 0.288749,-0.411239 0.373773,-0.456743 0.08502,-0.0455 0.495773,-0.08273 0.912775,-0.08273 0.59709,0 0.79642,0.03148 0.938127,0.148167 0.16819,0.138493 0.173493,0.17857 0.08122,0.613833 -0.09576,0.451717 -0.08928,0.487226 0.21641,1.185334 0.39889,0.910955 0.503771,1.070569 0.836956,1.273725 0.365842,0.223068 0.74832,0.21319 0.963788,-0.02489 0.260865,-0.288245 0.284627,-0.536352 0.105168,-1.098108 -0.241158,-0.754889 -0.213823,-1.304442 0.10235,-2.057657 0.318136,-0.757895 0.418581,-0.785775 0.960441,-0.266582 0.324155,0.310596 0.382929,0.41712 0.385391,0.6985 0.0019,0.222508 0.120627,0.555413 0.359834,1.009347 0.333894,0.633622 0.376052,0.678879 0.653261,0.701288 0.304854,0.02464 0.492577,-0.07753 1.705028,-0.928018 l 0.494477,-0.346855 0.380023,0.350292 c 0.455754,0.420101 0.82513,0.467636 1.167586,0.150259 0.531855,-0.492906 0.667094,-1.146191 0.411486,-1.987723 -0.0986,-0.324608 -0.179267,-0.666178 -0.179267,-0.759045 0,-0.09287 -0.13335,-0.367006 -0.296333,-0.609198 -0.570443,-0.847676 -0.383093,-1.118909 0.961587,-1.392116 0.541467,-0.110014 0.660635,-0.110804 0.911357,-0.0061 0.158639,0.06628 0.309808,0.176209 0.335928,0.244278 0.02612,0.06807 -0.135893,0.441264 -0.36003,0.829322 -0.364647,0.631331 -0.41079,0.769399 -0.438579,1.312332 -0.04014,0.784225 0.06035,1.066 0.613027,1.718968 0.335074,0.395876 0.515478,0.712857 0.688362,1.209493 0.128857,0.370161 0.358222,0.853192 0.5097,1.073402 0.151478,0.22021 0.392931,0.6331819 0.536563,0.9177149 0.143632,0.284533 0.376035,0.69849 0.51645,0.919902 0.140416,0.221413 0.255302,0.465957 0.255302,0.543433 0,0.07747 -0.115605,0.365291 -0.2569,0.639591 -0.198646,0.385636 -0.261042,0.625234 -0.275167,1.056631 -0.02141,0.653875 0.08627,0.839094 0.487819,0.839094 0.383746,0 1.097119,-0.751202 1.235587,-1.301109 0.140751,-0.558971 0.261082,-0.630803 0.743345,-0.443737 0.216507,0.08398 0.616621,0.229807 0.889143,0.324056 0.458729,0.158647 0.510495,0.203579 0.697672,0.605576 0.111199,0.238818 0.202552,0.483472 0.203006,0.543675 4.24e-4,0.0602 -0.1653,0.288803 -0.368345,0.508 -0.563853,0.608706 -0.600157,0.712928 -0.602448,1.729497 -0.0018,0.794316 -0.02319,0.928322 -0.171379,1.073416 -0.193792,0.18974 -1.118049,0.520887 -1.280184,0.458669 -0.05946,-0.02282 -0.171914,-0.238187 -0.249889,-0.478598 -0.328145,-1.01173 -0.783468,-1.410778 -1.609727,-1.410778 -0.871778,0 -1.408145,0.491014 -1.419836,1.299778 -0.0059,0.408505 0.05848,0.59765 0.519614,1.52645 0.289496,0.58309 0.526355,1.135747 0.526355,1.228123 0,0.481067 -0.414031,1.01454 -1.162105,1.497354 -0.298648,0.19275 -0.527326,0.430785 -0.703636,0.732424 -0.143659,0.245779 -0.427816,0.683755 -0.63146,0.973282 -0.246143,0.349945 -0.389856,0.657065 -0.42871,0.916164 -0.03244,0.216317 -0.147958,0.496131 -0.259602,0.628811 -0.278296,0.330737 -0.273726,0.743506 0.009,0.814471 0.115595,0.02901 0.331602,0.01042 0.480017,-0.04132 0.321557,-0.112095 1.535828,0.01375 1.998677,0.207141 l 0.294235,0.12294 -0.06101,0.569653 c -0.057,0.532225 -0.08546,0.59243 -0.433217,0.916274 -0.204717,0.190642 -0.372213,0.387443 -0.372213,0.437337 0,0.04989 -0.1905,0.282219 -0.423333,0.51628 -0.232833,0.234061 -0.422497,0.476326 -0.421474,0.538368 10e-4,0.06204 0.07722,0.278887 0.169333,0.481881 0.219917,0.484652 0.226416,1.202335 0.01264,1.395798 -0.08516,0.07707 -0.186337,0.140123 -0.224842,0.140123 -0.20239,0 -0.640713,0.460668 -0.733732,0.771137 -0.09262,0.309147 -0.124527,0.33828 -0.320232,0.292424 -0.699505,-0.163903 -0.849374,-0.156706 -1.171147,0.05623 -0.69457,0.459644 -1.047579,1.679844 -0.864693,2.988872 0.07885,0.564365 0.0736,0.736725 -0.03091,1.016 -0.170804,0.45641 -0.368367,1.044805 -0.454069,1.352333 -0.05929,0.212743 -0.145142,0.277911 -0.528569,0.401204 -0.251782,0.08096 -0.475316,0.129674 -0.496742,0.108248 -0.02143,-0.02142 0.0026,-0.240068 0.05348,-0.48587 0.08419,-0.407044 0.07423,-0.482853 -0.11159,-0.849738 -0.290981,-0.574511 -0.328244,-0.888085 -0.175556,-1.477328 0.07339,-0.283227 0.133439,-0.843409 0.133439,-1.244848 0,-0.8968 0.193587,-1.646617 0.567307,-2.197334 0.273135,-0.402496 0.279359,-0.431923 0.279359,-1.32089 0,-0.807236 -0.02374,-0.953877 -0.211666,-1.307314 -0.116417,-0.218948 -0.211667,-0.444543 -0.211667,-0.501318 0,-0.152796 0.502147,-0.734478 0.634049,-0.734478 0.06255,0 0.238991,0.158165 0.392098,0.351479 0.354292,0.44733 0.960297,0.833854 1.307344,0.833854 0.344413,0 0.660236,-0.250596 0.824961,-0.654581 0.07156,-0.175497 0.22838,-0.450313 0.348494,-0.610701 0.272628,-0.364044 0.275026,-0.548443 0.01057,-0.812899 -0.162516,-0.162517 -0.296325,-0.207999 -0.613834,-0.208646 -0.253483,-5.08e-4 -0.576162,-0.08004 -0.858922,-0.211666 -0.586339,-0.272955 -0.767049,-0.265747 -1.159655,0.04626 -0.195403,0.155286 -0.376034,0.236253 -0.456142,0.204463 -0.769783,-0.305481 -1.186126,-0.0021 -1.31635,0.959299 -0.05253,0.38783 -0.10576,0.483362 -0.400965,0.719667 -0.187214,0.149861 -0.510926,0.510963 -0.71936,0.802449 -0.491683,0.687599 -0.636938,0.781952 -1.207293,0.784218 -0.281802,0.0011 -0.614832,0.06849 -0.837073,0.169333 -0.204626,0.09285 -0.55143,0.167474 -0.778327,0.167474 -0.250165,0 -0.518092,0.06326 -0.689254,0.162744 -0.226379,0.131575 -0.466484,0.165775 -1.253673,0.178568 -0.535517,0.0087 -1.003848,0.01167 -1.040735,0.0066 -0.104315,-0.01436 0.358303,-0.779448 0.673272,-1.113471 0.293436,-0.311186 0.355898,-0.566795 0.181196,-0.741497 -0.143849,-0.14385 -0.534718,-0.126037 -0.664449,0.03028 -0.0602,0.07253 -0.270779,0.226424 -0.467959,0.34198 -0.482216,0.282597 -0.664925,0.674285 -0.601443,1.289365 0.04709,0.456302 0.04053,0.474384 -0.316416,0.871392 -0.207464,0.23075 -0.446759,0.625357 -0.555415,0.9159 -0.124874,0.333909 -0.363241,0.705694 -0.689145,1.074873 -0.75778,0.858399 -0.668595,1.222368 0.433094,1.767497 0.256117,0.126729 0.532342,0.289128 0.613833,0.360887 0.214872,0.189208 0.184139,0.672721 -0.07115,1.119373 -0.119502,0.209082 -0.255911,0.58914 -0.303131,0.844575 -0.169506,0.916946 -0.953114,1.710852 -1.323286,1.34068 z m 7.173588,-11.551484 c 0.243611,-0.309702 0.229604,-0.746487 -0.03234,-1.00843 -0.1143,-0.1143 -0.266099,-0.207819 -0.337331,-0.207819 -0.210817,0 -0.636755,0.445499 -0.689345,0.721003 -0.116783,0.611794 0.67579,0.982439 1.059016,0.495246 z m 1.134566,-1.416368 c 0.151974,-0.0635 0.493986,-0.363381 0.760027,-0.666406 0.436149,-0.49678 0.521619,-0.555227 0.869236,-0.594408 0.437867,-0.04935 0.798316,-0.32782 0.798316,-0.616741 0,-0.28711 -0.29748,-0.599054 -0.810754,-0.850175 -0.428234,-0.209515 -0.497142,-0.220266 -0.81034,-0.12643 -0.198359,0.05943 -0.490247,0.253086 -0.694107,0.460514 -0.374509,0.381066 -0.986799,1.513569 -0.986799,1.825204 0,0.335143 0.224007,0.599843 0.574219,0.678528 0.01314,0.003 0.148229,-0.04659 0.300202,-0.110086 z m -15.042582,-1.06801 c 0.240261,-0.137798 0.516486,-0.362397 0.613833,-0.499109 0.360373,-0.506096 0.121202,-1.113396 -0.504878,-1.281982 -1.1383836,-0.306535 -2.1097326,1.098154 -1.2560846,1.816452 0.334083,0.281112 0.610175,0.272601 1.1471296,-0.03536 z m 18.960246,-0.897958 c 0.06493,-0.155401 0.09414,-0.390311 0.06601,-0.530949 -0.05413,-0.270637 -4.24e-4,-0.338919 0.558559,-0.709958 0.161876,-0.107452 0.379518,-0.327809 0.483649,-0.489685 0.104132,-0.161875 0.309321,-0.449886 0.455976,-0.640023 0.146654,-0.190137 0.398881,-0.685437 0.560505,-1.100667 0.35797,-0.919664 0.350789,-1.345622 -0.03664,-2.173536 -0.205868,-0.439931 -0.356255,-0.628929 -0.692874,-0.870766 -0.450381,-0.323567 -0.491109,-0.430909 -0.334233,-0.880922 0.212933,-0.610821 -0.259724,-1.307567 -0.853189,-1.257689 -0.253648,0.02132 -0.325423,0.07559 -0.457499,0.345952 -0.154495,0.31625 -0.154027,0.328678 0.03403,0.90231 l 0.190685,0.581643 -0.245698,0.578173 c -0.2977,0.700538 -0.312645,1.206365 -0.04544,1.537858 0.563268,0.698785 0.668171,0.880879 0.718344,1.246929 0.09296,0.678212 -0.135442,0.839263 -0.892164,0.629091 -0.283308,-0.07869 -0.324499,-0.128936 -0.444735,-0.542532 -0.133708,-0.459942 -0.511894,-0.893806 -0.779101,-0.893806 -0.157453,0 -0.475446,0.163994 -0.558142,0.287841 -0.131179,0.19646 -0.05522,0.625387 0.174744,0.98675 0.266413,0.418638 0.401482,0.546676 0.788489,0.747445 0.195269,0.101301 0.316257,0.267472 0.464659,0.638179 0.230592,0.576023 0.245318,0.787268 0.07095,1.0178 -0.193179,0.255405 -0.15443,0.604 0.08837,0.794983 0.28191,0.221751 0.538712,0.145087 0.684745,-0.204421 z M 15.682948,23.694835 c 0.297638,-0.297637 0.289929,-0.824837 -0.01621,-1.108557 -0.123217,-0.114194 -0.320241,-0.207624 -0.437833,-0.207624 -0.25968,0 -0.52347,0.222061 -0.52347,0.44066 0,0.308891 0.497508,1.08334 0.69594,1.08334 0.04057,0 0.167274,-0.09352 0.281573,-0.207819 z M 22.1561,21.662056 c 0,-0.198069 -0.195053,-0.468735 -0.33779,-0.468735 -0.36854,0 -0.476253,0.48731 -0.15712,0.710839 0.235918,0.165243 0.49491,0.03855 0.49491,-0.242104 z m 2.242508,-0.05962 c 0.645975,-0.508123 0.58297,-1.676952 -0.104714,-1.942598 -0.583208,-0.225289 -1.388205,0.115288 -1.535779,0.649754 -0.259251,0.938932 0.914478,1.863928 1.640493,1.292844 z m -3.255469,-1.00746 c 0.07286,-0.136138 0.06368,-0.220764 -0.04131,-0.381 -0.158579,-0.242022 -0.272465,-0.257513 -0.484232,-0.06587 -0.189868,0.171828 -0.196223,0.314393 -0.02179,0.488829 0.185228,0.185228 0.436026,0.166 0.547325,-0.04196 z m 4.336175,-1.516836 c 0.471646,-0.370997 0.332727,-1.167616 -0.245765,-1.409326 -0.522517,-0.218321 -1.130116,0.118539 -1.130116,0.62655 0,0.710527 0.85171,1.195088 1.375881,0.782776 z M 15.373228,18.829447 c 0.33259,-0.236826 0.540846,-0.630166 0.539912,-1.019748 -8.47e-4,-0.354586 -0.388085,-1.3201 -0.637912,-1.590545 -0.347855,-0.376561 -1.178897,-0.162975 -1.564628,0.402124 -0.163265,0.239185 -0.1905,0.389592 -0.1905,1.052058 0,0.865178 0.09153,1.083192 0.54003,1.286346 0.363221,0.164525 0.985873,0.102769 1.313098,-0.130235 z m 8.562567,-1.912669 c 0.456223,-0.235922 0.56095,-0.708273 0.20827,-0.939358 -0.198755,-0.130229 -0.239414,-0.129858 -0.593633,0.0054 -0.558053,0.213123 -0.733817,0.667827 -0.359493,0.930014 0.236327,0.165529 0.430368,0.166552 0.744856,0.0039 z M 18.2191,15.817051 c 0.372533,-0.0096 0.757277,-0.04285 0.854984,-0.07388 0.172499,-0.0548 0.372683,-0.373182 0.372683,-0.592738 0,-0.159444 -0.346871,-0.45542 -0.610361,-0.520805 -0.330428,-0.082 -0.378665,-0.178836 -0.443336,-0.890013 -0.05335,-0.586647 -0.04323,-0.651432 0.125613,-0.80423 0.100999,-0.0914 0.277701,-0.3267 0.392671,-0.522882 0.154302,-0.263297 0.327988,-0.412968 0.663315,-0.571604 0.249853,-0.118198 0.491815,-0.214907 0.537692,-0.214907 0.141166,0 0.603592,-0.430169 0.734447,-0.683215 0.161761,-0.312812 0.158323,-0.794326 -0.0069,-0.9595009 -0.07194,-0.07195 -0.29102,-0.170558 -0.486833,-0.21914 -0.195763,-0.04859 -0.546473,-0.160904 -0.779307,-0.2496 -0.232833,-0.0887 -0.640092,-0.221794 -0.905021,-0.295775 -0.436035,-0.121763 -0.530863,-0.193961 -1.000542,-0.761774 -0.678524,-0.820293 -0.821749,-0.877712 -1.263065,-0.506369 -0.33844,0.284779 -0.85304,1.207942 -0.85304,1.530306 0,0.8357669 0.571261,1.7033059 1.285973,1.9529279 0.546006,0.190699 0.670639,0.373608 0.581142,0.852868 -0.05406,0.289497 -0.164081,0.454825 -0.535257,0.804333 l -0.467211,0.439935 -0.05874,0.89944 c -0.04476,0.685376 -0.03179,0.944693 0.05451,1.089581 0.156938,0.263494 0.565687,0.435923 0.875249,0.369222 0.1397,-0.0301 0.5588,-0.06258 0.931334,-0.07218 z m 7.998844,-1.268732 c 0.133275,-0.08237 0.311473,-0.472186 0.37408,-0.818324 0.07377,-0.407857 0.218332,-0.524256 0.512289,-0.412494 0.32657,0.124162 0.448577,0.108363 0.639787,-0.08285 0.105334,-0.105334 0.169333,-0.282222 0.169333,-0.468024 v -0.298692 l 0.529167,0.05226 c 0.622348,0.06146 1.690847,-0.135433 2.005023,-0.369464 0.444785,-0.331321 0.749564,-1.330472 0.569555,-1.867157 -0.05394,-0.160827 -0.195631,-0.3647739 -0.314862,-0.4532149 -0.248608,-0.184408 -1.318405,-0.368461 -1.653219,-0.284429 -0.123342,0.03096 -0.460569,0.302084 -0.749394,0.6025049 -0.5814,0.604745 -0.753269,0.657361 -1.21926,0.373259 -0.27585,-0.168177 -0.281257,-0.182496 -0.224577,-0.5946109 0.09649,-0.701579 -0.330129,-1.088162 -0.884497,-0.801487 -0.260044,0.134474 -0.321945,0.251117 -0.374976,0.706586 -0.02274,0.1953319 -0.14673,0.3880409 -0.415112,0.6451959 -0.212465,0.203577 -0.407533,0.479826 -0.438554,0.621063 -0.03073,0.139914 -0.224608,0.534925 -0.430839,0.877801 -0.206232,0.342877 -0.3756,0.704249 -0.376377,0.803049 -0.0016,0.200536 0.716486,1.3448 1.023248,1.630592 0.333417,0.310626 0.882842,0.37103 1.259185,0.138436 z M 14.233719,13.01694 c 0.157908,-0.157908 0.173921,-0.469546 0.03145,-0.612019 -0.179422,-0.179422 -0.559408,-0.120559 -0.710519,0.110067 -0.128474,0.196077 -0.128474,0.227256 0,0.423333 0.159464,0.243372 0.477498,0.280192 0.679071,0.07862 z m 7.418212,-4.2319019 c 0.09103,-0.109688 0.08124,-0.159608 -0.05878,-0.29963 -0.190219,-0.190219 -0.453049,-0.141079 -0.453049,0.08471 0,0.310245 0.320893,0.444992 0.511831,0.214924 z M 12.425703,37.245208 c -0.05452,-0.0657 -0.120723,-0.252507 -0.147114,-0.415138 -0.06584,-0.40573 0.159176,-0.535188 0.57202,-0.329097 0.346651,0.173046 0.412123,0.443715 0.166698,0.689141 -0.202644,0.202643 -0.450027,0.225682 -0.591604,0.05509 z m 9.744977,-2.278035 c -0.17154,-0.182596 -0.18053,-0.251322 -0.130136,-0.994833 0.08054,-1.188206 0.214672,-1.342582 0.53579,-0.616642 0.09408,0.212683 0.285664,0.517231 0.425743,0.676772 0.292913,0.33361 0.30721,0.421627 0.115303,0.709844 -0.312259,0.468967 -0.643468,0.547635 -0.9467,0.224859 z m 19.853864,-1.130298 c -0.03104,-0.03104 -0.05645,-0.148275 -0.05645,-0.260512 0,-0.24741 -0.429417,-0.699043 -0.664656,-0.699043 -0.09333,0 -0.28775,-0.142875 -0.432054,-0.3175 -0.466852,-0.564944 -0.598206,-0.946269 -0.682281,-1.980693 -0.115828,-1.425089 0.0055,-1.444444 0.718754,-0.114682 0.397322,0.740729 0.534743,0.921103 0.836478,1.097931 0.484809,0.284117 0.700722,0.528351 0.855897,0.968166 0.192165,0.544652 0.167541,0.909462 -0.07796,1.154959 -0.205421,0.205422 -0.388124,0.260987 -0.497736,0.151374 z m -5.912491,-9.428333 c -0.337018,-0.178033 -0.917287,-1.027266 -0.917287,-1.342463 0,-0.201508 0.04068,-0.212136 0.389533,-0.101759 0.135006,0.04272 0.349779,0.100477 0.477271,0.128355 0.157626,0.03447 0.293093,0.162177 0.423333,0.399091 0.105341,0.191622 0.240884,0.437934 0.301208,0.547361 0.08122,0.147332 0.08594,0.243317 0.01819,0.369909 -0.113155,0.21143 -0.291314,0.211302 -0.692246,-5.08e-4 z M 4.0374344,22.402854 c 0,-0.364949 0.539983,-0.588048 0.765527,-0.316284 0.150521,0.181367 -0.04343,0.366393 -0.453891,0.433001 -0.270985,0.04397 -0.311636,0.02875 -0.311636,-0.116717 z M 39.229555,20.784487 c -0.19522,-0.215716 -0.174947,-0.3412 0.06485,-0.401384 0.408962,-0.102643 0.731243,0.116075 0.615494,0.41771 -0.07244,0.188783 -0.504096,0.178424 -0.680342,-0.01633 z M 0.58303438,18.213054 c -0.158426,-0.158427 -0.124459,-0.28991 0.201861,-0.781383 0.37111302,-0.558938 0.69569502,-0.727004 1.00837302,-0.52213 0.341625,0.223841 0.279949,0.502632 -0.169462,0.766005 -0.209895,0.123006 -0.442877,0.317127 -0.517737,0.431378 -0.14718702,0.224636 -0.36111902,0.268046 -0.52303502,0.10613 z m 1.47349102,-5.5499 c -0.424992,-0.364154 -0.469595,-0.434752 -0.47189,-0.746917 -0.0029,-0.395049 0.214021,-1.109061 0.403284,-1.327416 0.07063,-0.08149 0.223189,-0.148167 0.339009,-0.148167 0.371438,0 1.455049,1.051216 1.45619,1.412655 5.16e-4,0.165062 -0.961862,1.210115 -1.115294,1.211101 -0.07807,5.08e-4 -0.353153,-0.180064 -0.611299,-0.401256 z M 40.911214,11.244415 c -0.576252,-0.23687 -0.801184,-0.476027 -0.803899,-0.85474 -0.004,-0.5544549 0.744634,-1.2765169 1.224399,-1.1809789 0.610192,0.121511 1.296509,0.8141859 1.373194,1.3859169 0.05867,0.437436 -0.07838,0.666481 -0.462639,0.773198 -0.478325,0.13284 -0.774484,0.105385 -1.331055,-0.123396 z M 5.0812674,8.2005641 c -0.55383,-0.240912 -0.604921,-0.758743 -0.122461,-1.241203 0.259905,-0.259904 0.392409,-0.328706 0.633049,-0.328706 0.388138,0 0.5553,0.237499 0.621995,0.883709 0.03955,0.383221 0.01987,0.505532 -0.103229,0.641558 -0.180061,0.198964 -0.62975,0.218467 -1.029354,0.04464 z M 34.919599,6.1998481 c -0.229131,-0.132387 -0.178402,-0.340041 0.192811,-0.78926 0.187538,-0.226947 0.405302,-0.521523 0.483921,-0.654615 0.07862,-0.133092 0.17283,-0.241985 0.209356,-0.241985 0.08939,0 0.0807,0.640654 -0.01424,1.049948 -0.119046,0.513206 -0.545663,0.824374 -0.871848,0.635912 z M 10.541574,5.1578791 C 9.9262124,4.9921851 9.1174344,4.2733771 9.1174344,3.8921631 c 0,-0.169235 0.159482,-0.17461 0.723572,-0.02439 0.5892226,0.156917 0.7807776,0.267135 1.2449276,0.716316 0.448446,0.433984 0.491401,0.563566 0.211667,0.638532 -0.245382,0.06576 -0.283465,0.0625 -0.756027,-0.06475 z M 0.03693438,4.2580581 c -0.256661,-0.157895 -0.184956,-0.540893 0.157573,-0.841637 0.52615,-0.461966 0.89766502,-0.516145 0.99709502,-0.145409 0.165038,0.615367 -0.05947,0.987372 -0.62884202,1.041977 -0.207713,0.01992 -0.444334,-0.0048 -0.525826,-0.05493 z M 35.299924,3.5752651 c -0.105147,-0.03978 -0.47495,-0.06391 -0.821784,-0.05363 -0.478071,0.01417 -0.662864,-0.0134 -0.76396,-0.113971 -0.220204,-0.219061 0.108154,-0.441793 0.716136,-0.485771 0.411527,-0.02977 0.543922,-0.0043 0.753819,0.145194 0.22352,0.15916 0.418031,0.480244 0.335862,0.554414 -0.01589,0.01435 -0.114927,-0.0065 -0.220073,-0.04623 z M 23.815539,3.1553741 c -0.187899,-0.164977 -0.345512,-0.416734 -0.4373,-0.6985 -0.07893,-0.242304 -0.276667,-0.68133 -0.439409,-0.975613 -0.331154,-0.598816 -0.366844,-0.873821 -0.145191,-1.118745 0.253278,-0.279868 0.511581,-0.206422 1.003278,0.285275 0.328148,0.328148 0.468614,0.541416 0.513228,0.779229 0.03378,0.180084 0.134445,0.470555 0.22369,0.645491 0.199738,0.391519 0.204664,0.653487 0.01958,1.041605 -0.176369,0.369849 -0.352424,0.379693 -0.73788,0.04126 z M 11.411647,1.4813351 c -0.273382,-0.510817 0.442462,-1.177711 1.026005,-0.955848 0.324073,0.123212 0.828448,0.597072 0.828448,0.778326 0,0.186225 -0.118421,0.217664 -1.075633,0.285557 -0.61959,0.04395 -0.703728,0.03227 -0.77882,-0.108035 z"
       id="path75" />
  </g>
</svg>
