<svg
   xmlns:rdf="http://www.w3.org/1999/02/22-rdf-syntax-ns#"
   xmlns:svg="http://www.w3.org/2000/svg"
   xmlns="http://www.w3.org/2000/svg"
   width="210mm"
   height="297mm"
   viewBox="0 0 210 297"
   version="1.1">
  <g>
    <path d="m 37.232972,42.811838 c -0.06946,-0.106005 -0.178495,-0.43938 -0.242308,-0.740833 -0.06381,-0.301454 -0.236462,-0.821184 -0.383666,-1.154955 -0.147204,-0.333772 -0.267644,-0.722049 -0.267644,-0.862837 0,-1.193322 1.403301,1.069346 1.453213,2.343146 0.02186,0.55786 -0.306542,0.801686 -0.559595,0.415479 z m -32.3787465,-0.3445 c -0.2146563,-0.258645 -0.2037205,-0.607156 0.027681,-0.882162 0.2893648,-0.343889 0.5202852,-0.415463 0.7295169,-0.226111 0.2028709,0.183596 0.2205348,0.764068 0.031465,1.034003 -0.151211,0.215884 -0.6334439,0.261297 -0.7886629,0.07427 z M 1.7016524,41.873482 C 1.4461506,41.746799 1.3758779,41.234814 1.5852537,41.025438 c 0.1612402,-0.16124 0.5556483,-0.181451 0.7011689,-0.03593 0.1336983,0.133698 0.1307152,0.701805 -0.00423,0.806223 -0.1993229,0.15423 -0.3780216,0.178164 -0.5805368,0.07775 z M 24.697688,41.677674 c -0.882888,-0.184128 -1.145823,-0.477555 -1.141025,-1.273343 0.0016,-0.26955 -0.0077,-0.566272 -0.02068,-0.659383 -0.03693,-0.264515 0.300776,-0.268353 0.473085,-0.0054 0.183579,0.280176 0.655057,0.515361 1.376818,0.686789 0.817696,0.194214 0.811653,0.191616 0.734652,0.315805 -0.133388,0.215132 -0.917642,0.886708 -1.084187,0.928417 -0.09313,0.02332 -0.245534,0.02652 -0.338667,0.0071 z M 10.018987,41.263617 c -0.09386,-0.119326 -0.2146702,-0.350315 -0.2684632,-0.513308 -0.139562,-0.422878 0.03128,-0.585484 0.6871712,-0.654038 0.280206,-0.02929 0.581404,-0.09175 0.66933,-0.138807 0.245678,-0.131482 0.59433,-0.106407 0.59433,0.04275 0,0.136118 -0.513164,0.970041 -0.793732,1.289864 -0.236755,0.26988 -0.66558,0.257113 -0.888636,-0.02646 z m 3.318868,0.09353 c -0.147675,-0.06424 -0.304411,-0.186571 -0.348303,-0.271852 -0.111493,-0.216632 -0.186451,-1.078144 -0.105238,-1.209548 0.03695,-0.05978 0.270522,-0.189881 0.519053,-0.289104 0.428452,-0.171055 0.463728,-0.208828 0.680577,-0.728777 0.256292,-0.614524 0.445853,-0.805779 0.927073,-0.935358 0.667225,-0.179665 0.917685,0.265239 0.352171,0.625583 -0.486535,0.310021 -0.849408,0.987416 -0.913249,1.704813 -0.101887,1.144928 -0.38113,1.422203 -1.112084,1.104243 z m 6.910076,-0.20207 -0.192851,-0.156161 0.225804,-0.453129 c 0.124192,-0.249222 0.225804,-0.578497 0.225804,-0.731723 0,-0.221026 0.08724,-0.366297 0.422223,-0.703043 0.548657,-0.551552 0.817177,-0.57082 1.259724,-0.09039 0.169247,0.183733 0.414787,0.374162 0.545647,0.423175 0.312557,0.117067 0.21654,0.260042 -0.136194,0.202801 -0.301534,-0.04893 -0.374528,0.03615 -0.563958,0.657348 -0.120201,0.394178 -0.362686,0.61414 -0.916743,0.831596 -0.547996,0.215078 -0.625803,0.216826 -0.869456,0.01953 z m 17.973416,-0.114051 c -0.284648,-0.142034 -0.318537,-0.435057 -0.112564,-0.973296 0.120571,-0.315073 0.163911,-0.565313 0.129593,-0.748246 -0.07498,-0.399703 0.108297,-0.468687 0.379593,-0.142872 0.863162,1.036616 0.918992,1.205754 0.536551,1.625501 -0.26025,0.285637 -0.643097,0.383655 -0.933173,0.238913 z m -9.658626,-0.06422 c 0.01863,-0.05588 0.06149,-0.09874 0.09525,-0.09525 0.101236,0.01047 0.08163,0.126602 -0.02752,0.162984 -0.05588,0.01863 -0.08636,-0.01185 -0.06773,-0.06773 z M 7.7833709,40.824252 C 7.6128548,40.635834 7.481199,40.284562 7.5295673,40.147074 c 0.09854,-0.280099 0.8697885,0.07032 0.8697885,0.395189 0,0.158399 -0.250049,0.430311 -0.395711,0.430311 -0.04732,0 -0.146448,-0.06674 -0.2202739,-0.148322 z M 33.136448,40.462439 c -0.527753,-0.07681 -0.834485,-0.320262 -0.909881,-0.722157 -0.112028,-0.597159 0.279004,-0.780615 1.069435,-0.501735 0.485769,0.171389 0.558294,0.08047 0.375293,-0.470494 -0.205131,-0.617594 -0.04911,-1.774812 0.239286,-1.774812 0.144871,0 1.326094,1.220315 1.327125,1.371046 5.08e-4,0.07886 -0.111008,0.209534 -0.247884,0.290388 -0.381607,0.225422 -0.561423,0.61823 -0.441061,0.9635 0.129653,0.371924 0.129734,0.371481 -0.121933,0.670569 -0.238435,0.283364 -0.393489,0.304235 -1.29038,0.173695 z m -17.169586,-0.88281 c -0.06508,-0.169599 0.0315,-0.300388 0.221826,-0.300388 0.194841,0 0.271698,0.109364 0.202884,0.288693 -0.06466,0.16849 -0.361407,0.176661 -0.42471,0.0117 z m 9.574553,-0.12695 c -0.465718,-0.188775 -0.526655,-0.549736 -0.213323,-1.263633 0.288501,-0.657323 0.31215,-0.836201 0.141421,-1.069686 -0.113287,-0.15493 -0.137653,-0.150805 -0.734653,0.12437 -0.600529,0.276801 -0.628109,0.281368 -1.004659,0.166376 -0.212949,-0.06503 -0.606255,-0.11637 -0.874013,-0.114084 -0.267758,0.0023 -0.486833,-0.02638 -0.486833,-0.0637 0,-0.251582 0.382851,-1.411408 0.509066,-1.542188 0.14607,-0.151351 0.173112,-0.152671 0.49435,-0.02414 0.319777,0.12795 0.351304,0.12668 0.534333,-0.02153 0.166895,-0.135143 0.182433,-0.191809 0.109453,-0.399195 l -0.08505,-0.241696 h -1.652576 c -2.085474,0 -2.130481,-0.0185 -2.053382,-0.84414 0.05055,-0.541296 0.04734,-0.552315 -0.260051,-0.892557 -0.171176,-0.189472 -0.288636,-0.38105 -0.261022,-0.425732 0.07986,-0.129214 0.475694,-0.09122 0.857954,0.08234 0.483166,0.219383 1.250492,0.368514 1.553591,0.301942 0.310293,-0.06815 0.592002,-0.411042 0.592002,-0.720572 0,-0.304299 -0.133636,-0.403839 -0.681716,-0.507781 -0.249289,-0.04728 -0.53126,-0.143078 -0.626602,-0.212891 -0.630301,-0.461537 -0.810582,-0.558893 -0.950851,-0.513488 -0.08461,0.02739 -0.287181,0.305121 -0.450164,0.617187 -0.162983,0.312066 -0.452219,0.7273 -0.642746,0.922741 -0.22022,0.225902 -0.386809,0.499631 -0.457306,0.751422 -0.162499,0.580389 -0.336766,0.663324 -1.244838,0.59243 -0.66395,-0.05184 -0.760546,-0.041 -0.883595,0.09912 -0.213734,0.243378 -0.264267,0.513205 -0.156989,0.838259 0.0758,0.229688 0.192495,0.345113 0.513181,0.507617 0.326544,0.165473 0.460716,0.300415 0.629107,0.632718 0.117721,0.232312 0.253389,0.422386 0.301484,0.422386 0.129544,0 0.590653,-0.245003 0.907306,-0.482083 0.257486,-0.192783 0.309187,-0.201392 0.702667,-0.117005 0.233602,0.0501 0.648734,0.09109 0.922515,0.09109 0.52614,0 0.817979,0.160235 0.726417,0.398842 -0.02596,0.06765 -0.0472,0.138167 -0.0472,0.156695 0,0.01853 -0.147701,0.10904 -0.328225,0.201136 -0.451526,0.230352 -0.479783,0.369968 -0.180679,0.892747 0.140198,0.245039 0.254904,0.488513 0.254904,0.541053 0,0.120997 -0.355148,0.122753 -0.752443,0.0037 -0.262389,-0.07861 -0.388829,-0.06079 -0.879901,0.124051 -0.67243,0.253102 -0.957304,0.204342 -1.03654,-0.177416 -0.195415,-0.941502 -0.283238,-1.004336 -0.873957,-0.625272 -0.664919,0.426678 -0.879712,0.319156 -1.10837,-0.55483 -0.132147,-0.505097 -0.332106,-0.706452 -0.829745,-0.835538 -0.386323,-0.100211 -0.528836,-0.09494 -1.210736,0.04476 -0.42508,0.08709 -0.86977,0.227353 -0.988198,0.311696 -0.6084,0.433291 -0.625965,0.439039 -1.201911,0.393344 -0.521581,-0.04138 -0.584773,-0.02669 -0.955191,0.222011 -0.578558,0.388455 -0.859285,0.448119 -1.3868432,0.294753 -0.623523,-0.181263 -1.082992,-0.05504 -1.588645,0.436433 -0.409654,0.398164 -0.7841858,0.491947 -0.9872907,0.247221 -0.1679591,-0.202378 -0.038268,-0.367685 0.462065,-0.588956 0.4079607,-0.180419 0.4683737,-0.237857 0.4683737,-0.445303 0,-0.130991 -0.09525,-0.417093 -0.211667,-0.635781 -0.1259906,-0.236674 -0.2116665,-0.537113 -0.2116665,-0.742255 0,-0.461137 0.2429845,-0.57025 0.9736665,-0.437227 1.232167,0.224321 1.3446352,0.263287 1.6661842,0.577271 0.267925,0.261623 0.38771,0.315234 0.776324,0.347462 1.237942,0.102659 1.718149,-0.617711 1.197124,-1.795839 -0.172917,-0.390997 -0.271758,-0.50563 -0.528449,-0.612882 -0.173662,-0.07256 -0.423769,-0.222822 -0.555795,-0.333914 -0.188163,-0.158326 -0.338922,-0.201984 -0.697497,-0.201984 -0.4493,0 -0.460563,-0.0061 -0.6321712,-0.342481 -0.213027,-0.417567 -0.751148,-1.027683 -0.851638,-0.965576 -0.04023,0.02486 -0.114713,0.199573 -0.165517,0.388241 -0.05997,0.22271 -0.266074,0.529755 -0.587585,0.875355 -0.6339217,0.681418 -0.7639799,0.940971 -0.7639799,1.524651 0,0.412346 -0.024288,0.481772 -0.1904999,0.544534 C 6.9255501,35.542175 6.7220848,35.189397 6.9262912,34.621518 7.0970363,34.146692 7.0410994,33.621008 6.7659325,33.114502 6.6631319,32.925275 6.4739334,32.578227 6.3454914,32.343284 6.1023104,31.898466 5.8693374,31.765213 5.4978376,31.858453 4.9739139,31.989949 4.73781,32.64619 5.0973557,32.971574 c 0.2142463,0.193891 0.2154553,0.397683 0.0035,0.589502 -0.09121,0.08254 -0.2261333,0.331618 -0.2998301,0.553498 -0.2169353,0.653131 -0.4073074,0.749227 -1.3546666,0.683804 -0.1862666,-0.01286 -0.7196666,0.02523 -1.1853332,0.08465 -0.4656667,0.05942 -0.9800167,0.107879 -1.143,0.107687 -0.36291552,-4.24e-4 -0.97366662,-0.282352 -0.97366662,-0.449446 0,-0.06727 0.1575437,-0.233034 0.350097,-0.368365 0.2955872,-0.207747 0.51969002,-0.270636 1.43933332,-0.403916 0.971859,-0.140846 1.1102617,-0.181999 1.2843485,-0.381885 0.134026,-0.153893 0.1870386,-0.307017 0.1693301,-0.489112 -0.024499,-0.251922 -0.045747,-0.266364 -0.4279456,-0.290889 -0.4334334,-0.02781 -0.4666803,-0.06527 -0.282051,-0.317764 0.1007334,-0.137761 0.2339383,-0.166294 0.8254999,-0.176821 0.3879615,-0.0069 0.8103384,-0.05369 0.9386155,-0.103971 0.2199749,-0.08622 0.2323459,-0.119197 0.2176563,-0.580194 -0.011202,-0.35154 0.050445,-0.67203 0.2195568,-1.141436 0.2140677,-0.594192 0.2726834,-0.676756 0.654313,-0.921647 0.2556816,-0.16407 0.484287,-0.396606 0.5860994,-0.596174 0.1343729,-0.263393 0.2136301,-0.327187 0.4064941,-0.327187 0.3150236,0 0.8118698,-0.368286 1.3271969,-0.983783 0.2292694,-0.273836 0.5902074,-0.692 0.8020854,-0.929255 0.582796,-0.6526 0.69502,-1.226059 0.303521,-1.550975 -0.0747,-0.062 -0.135821,-0.2355 -0.135821,-0.385565 0,-0.388785 -0.212636,-0.54636 -0.72163,-0.534767 C 7.4472143,24.072457 7.0925327,23.860381 6.8248027,23.294446 6.7016173,23.034054 6.5811409,22.674218 6.5570774,22.494811 6.5158104,22.187142 6.5392334,22.145019 6.9695073,21.753105 7.4688452,21.298286 7.6373556,21.23621 7.6373556,21.507084 c 0,0.291555 0.4371922,1.459187 0.6246592,1.668309 0.123664,0.137949 0.248955,0.187173 0.431009,0.169333 0.281491,-0.02758 0.271139,0.03154 0.162159,-0.92619 l -0.05436,-0.477704 0.264932,-0.05146 c 0.145713,-0.0283 0.376599,-0.07296 0.513081,-0.09924 0.341322,-0.06571 0.4362832,-0.208763 0.5152242,-0.776127 0.03738,-0.268637 0.133005,-0.755131 0.212507,-1.081097 0.250955,-1.028936 0.251382,-1.11438 0.0072,-1.434578 -0.268123,-0.351527 -0.281816,-0.696393 -0.04368,-1.100008 0.144125,-0.244274 0.166694,-0.378131 0.120447,-0.714388 -0.04774,-0.347112 -0.02175,-0.483184 0.161309,-0.844427 0.298361,-0.588788 0.27915,-0.748636 -0.141613,-1.178311 l -0.359834,-0.367454 0.02128,-0.77875 c 0.02486,-0.909741 -0.08788,-1.174655 -0.6614392,-1.554216 -0.320082,-0.21182 -0.367128,-0.221282 -0.543111,-0.109222 -0.105971,0.06748 -0.407829,0.250639 -0.670796,0.407025 -0.5863239,0.348684 -0.6929175,0.517698 -0.5278361,0.836931 0.066496,0.128588 0.1993691,0.30481 0.2952741,0.391603 0.214208,0.193855 0.541976,1.146997 0.505042,1.468649 -0.02163,0.188412 -0.113332,0.278359 -0.456185,0.447479 -0.2360084,0.116417 -0.5207111,0.278342 -0.6326721,0.359833 -0.2889872,0.210342 -0.6431644,0.186587 -0.889403,-0.05965 -0.2832283,-0.283228 -0.2631453,-0.570302 0.088776,-1.268995 0.1628391,-0.323296 0.2960716,-0.658563 0.2960716,-0.745037 0,-0.293226 -0.2494755,-0.652739 -0.4883733,-0.703783 -0.6998778,-0.14954 -0.7779305,-0.354734 -0.3059282,-0.804258 0.1685007,-0.160476 0.4637757,-0.615381 0.6561666,-1.010899 0.2616831,-0.537969 0.4221775,-0.761917 0.6371102,-0.889 0.1580194,-0.09343 0.4403082,-0.3127514 0.6273072,-0.4873764 0.186999,-0.174626 0.39359,-0.317501 0.459091,-0.317501 0.18659,0 0.452523,0.161576 0.928359,0.5640544 0.533085,0.450901 0.9193952,0.62189 1.3993812,0.619397 0.610137,-0.0032 1.024678,-0.479414 0.789938,-0.9075194 -0.32608,-0.594681 -0.609242,-0.896466 -0.97362,-1.037653 -0.8046532,-0.31178 -0.7220402,-0.692525 0.195682,-0.901858 0.530832,-0.121084 0.607157,-0.120264 0.94874,0.01019 0.204307,0.07803 0.415288,0.114782 0.468847,0.08168 0.152354,-0.09416 0.03706,-1.001267 -0.169812,-1.335987 -0.380755,-0.616075 -0.112599,-1.215311 0.506678,-1.132249 0.179249,0.02404 0.427613,0.123716 0.551922,0.221497 0.284261,0.223599 0.556045,0.226647 0.753511,0.0085 0.319326,-0.352851 0.826467,-0.123326 0.978982,0.443073 0.08349,0.310041 0.07618,0.365984 -0.06107,0.46729 -0.144429,0.106609 -0.45956,0.0964 -0.887823,-0.02875 -0.241151,-0.07047 -0.432526,0.208182 -0.377911,0.550265 0.02668,0.167085 0.07304,0.55144 0.103034,0.854123 0.02999,0.302684 0.112771,0.617009 0.18395,0.6985 0.171792,0.196681 0.485512,0.187313 0.828627,-0.02474 0.398533,-0.246307 0.496986,-0.603317 0.37795,-1.370522 -0.1187,-0.765039 -0.05841,-0.827581 0.796611,-0.826427 l 0.597651,8.05e-4 0.249713,0.781921 c 0.345276,1.081155 0.428921,1.149583 1.725246,1.411388 0.904537,0.182681 1.032028,0.09777 1.194096,-0.795279 0.0756,-0.416593 0.153567,-0.568382 0.443883,-0.864193 0.37529,-0.382392 0.76125,-0.530287 0.957922,-0.367064 0.06541,0.05428 0.161712,0.314829 0.214008,0.578989 0.166712,0.842101 0.251199,1.09656 0.380572,1.146204 0.232793,0.08933 0.399706,-0.05389 0.605734,-0.519757 0.112549,-0.254494 0.293855,-0.581991 0.402902,-0.72777 0.409856,-0.547918 0.482304,-0.775389 0.374881,-1.177034 -0.14828,-0.554404 -0.04988,-0.805522 0.392294,-1.001116 0.205297,-0.090813 0.486694,-0.2785414 0.625328,-0.4171752 0.27655,-0.2765505 0.452814,-0.3061796 0.771621,-0.129706 0.209475,0.1159541 0.208526,0.1170951 -0.275167,0.3310073 -0.633954,0.2803649 -0.645979,0.4681579 -0.07066,1.1034509 0.228092,0.251866 0.439802,0.572169 0.470466,0.711783 0.07801,0.355198 0.282112,0.509219 0.716464,0.540675 0.356909,0.02585 0.377788,0.04225 0.465513,0.365728 0.08051,0.296876 0.151191,0.367442 0.572775,0.571857 0.45559,0.220904 0.488056,0.257705 0.616198,0.6985 0.0744,0.255921 0.18183,0.470442 0.238737,0.476715 0.05691,0.0063 0.217768,0.0158 0.357468,0.02117 0.243578,0.0094 0.256122,0.02887 0.305711,0.475428 0.02844,0.256117 0.152266,0.6531004 0.275166,0.8821834 0.122902,0.229084 0.22404,0.514834 0.224753,0.635 0.0018,0.295847 0.10475,0.437948 0.430831,0.594414 0.200694,0.0963 0.307032,0.228188 0.392632,0.486967 0.100876,0.304959 0.171771,0.375664 0.503844,0.502483 0.372523,0.142268 0.390633,0.141863 0.502589,-0.01125 0.06388,-0.08736 0.115928,-0.218225 0.115668,-0.290816 -0.0011,-0.303488 -0.182706,-0.750475 -0.380398,-0.936197 -0.231225,-0.217225 -0.276345,-0.556814 -0.105098,-0.791008 0.05868,-0.08025 0.329583,-0.204121 0.601997,-0.275258 0.492466,-0.128601 0.49723,-0.128064 0.832887,0.09406 0.185674,0.122873 0.468733,0.244687 0.62902,0.270698 0.202689,0.03289 0.382684,0.153326 0.591102,0.395504 0.25595,0.29741 0.292655,0.391447 0.251582,0.644546 -0.02645,0.162983 -0.04851,0.417841 -0.04902,0.56635 -6.78e-4,0.192537 -0.09811,0.3823 -0.339599,0.661316 -0.222342,0.256897 -0.338667,0.473212 -0.338667,0.629782 0,0.277898 0.0946,0.368774 0.529817,0.508965 0.174982,0.05636 0.356796,0.174693 0.404031,0.262952 0.08915,0.166585 0.231037,1.982871 0.217117,2.779372 -0.01197,0.685184 0.129182,0.731618 0.931004,0.306262 0.668295,-0.354518 1.558698,-1.179624 1.558698,-1.444388 0,-0.07955 -0.0431,-0.288473 -0.09577,-0.464283 -0.187781,-0.626756 0.0086,-0.848185 0.857771,-0.967399 0.20955,-0.02942 0.465644,-0.10888 0.569099,-0.176585 0.103454,-0.06771 0.372919,-0.162736 0.598809,-0.211181 0.2656,-0.05696 0.553891,-0.206399 0.815953,-0.422955 0.222884,-0.184179 0.414944,-0.334872 0.426801,-0.334872 0.275457,0 0.948548,-0.213261 1.189786,-0.376969 0.646569,-0.438774 0.875596,-0.203938 0.669173,0.686142 -0.102785,0.443202 -0.206844,0.654069 -0.456341,0.924741 -0.177756,0.192842 -0.350203,0.479877 -0.383215,0.637854 -0.111984,0.535902 -0.254169,0.668231 -0.717996,0.668231 -0.388027,0 -0.445362,0.02912 -0.833402,0.423334 -0.440744,0.447751 -0.604557,0.497012 -1.080475,0.324917 -0.297036,-0.107409 -0.369354,-0.06176 -1.506646,0.951074 -0.574735,0.511839 -1.162582,0.840675 -1.502841,0.840675 -0.222763,0 -0.351769,0.08183 -0.667372,0.423334 -0.286265,0.309755 -0.453453,0.423333 -0.623152,0.423333 -0.31167,0 -0.675221,-0.197809 -0.847893,-0.461339 -0.203079,-0.309937 -0.418414,-0.268599 -0.873808,0.167746 -0.440703,0.422267 -0.646948,0.45425 -0.687199,0.106568 -0.02109,-0.182143 0.03396,-0.267008 0.274119,-0.422609 0.24365,-0.157863 0.300702,-0.247591 0.301552,-0.474259 5.92e-4,-0.153758 0.08677,-0.428787 0.191548,-0.611176 l 0.1905,-0.331617 -0.243572,-0.658824 c -0.133964,-0.362353 -0.291256,-0.896987 -0.349538,-1.188076 -0.05828,-0.291089 -0.155831,-0.589337 -0.216777,-0.662772 -0.173988,-0.209644 -0.894182,-0.543642 -1.172244,-0.543642 -0.500895,0 -0.846328,0.539746 -0.852182,1.331549 -0.0015,0.198832 0.0552,0.310708 0.208169,0.410935 0.200373,0.13129 0.222424,0.127427 0.472163,-0.08271 0.289769,-0.243825 0.418849,-0.270702 0.570714,-0.118837 0.193508,0.193508 0.10851,0.490999 -0.237066,0.829734 -0.186267,0.182578 -0.338667,0.412029 -0.338667,0.50989 0,0.09786 -0.0979,0.384868 -0.21755,0.637792 -0.123872,0.261843 -0.1957,0.528706 -0.166809,0.619736 0.0577,0.181802 0.732013,1.400568 0.924348,1.670687 0.105291,0.147874 0.251062,0.188501 0.850997,0.23718 0.627061,0.05088 0.776487,0.0355 1.116575,-0.11494 0.451844,-0.199871 0.557769,-0.208988 0.917362,-0.07896 0.446457,0.161441 1.4909,-0.119486 1.962846,-0.527952 0.342113,-0.296096 0.426181,-0.328769 0.845946,-0.328769 0.681822,0 0.911415,0.151961 1.215245,0.804333 0.194748,0.418155 0.377327,1.627993 0.282788,1.873859 -0.03818,0.09929 -0.2348,0.359365 -0.436935,0.577947 l -0.367521,0.397423 -0.606146,-0.316187 C 35.553825,22.5461 35.173361,22.314598 35.04173,22.205555 c -0.321443,-0.266282 -0.568787,-0.249615 -0.863693,0.0582 -0.218966,0.228552 -0.283454,0.250799 -0.592611,0.204438 -0.190799,-0.02861 -0.572025,-0.01041 -0.847169,0.04046 -0.364399,0.06736 -0.630685,0.06682 -0.980502,-0.002 -0.445338,-0.08761 -0.499004,-0.08061 -0.738404,0.09639 -0.230422,0.17036 -0.285893,0.179381 -0.516258,0.08396 -0.141954,-0.0588 -0.391745,-0.292934 -0.555092,-0.5203 -0.344363,-0.47933 -0.628544,-0.547944 -0.852677,-0.205872 -0.182496,0.278523 -0.100498,0.511614 0.343981,0.977811 0.456963,0.479293 0.682411,0.928701 0.895606,1.785297 0.152415,0.612391 0.156003,0.692996 0.03832,0.861012 -0.196553,0.280619 -0.159446,0.453097 0.177786,0.826373 0.281805,0.311924 0.303377,0.371475 0.257038,0.709562 -0.09432,0.688111 0.222726,1.931805 0.542897,2.129682 0.05198,0.03213 0.270086,-0.11164 0.488043,-0.321692 0.216736,-0.208876 0.535187,-0.472878 0.70767,-0.586669 0.195351,-0.128879 0.414193,-0.396503 0.58036,-0.709729 0.248176,-0.467813 0.263212,-0.544116 0.215878,-1.095502 -0.02798,-0.325967 -0.07451,-0.678392 -0.103401,-0.783167 -0.09267,-0.33611 0.169408,-0.217951 0.657276,0.296333 0.601454,0.63402 0.924499,1.42398 0.748886,1.831298 -0.06265,0.145312 -0.116764,0.429552 -0.120256,0.631646 -0.0053,0.308844 -0.04237,0.386336 -0.232251,0.485906 -0.426258,0.223528 -0.411685,0.805866 0.04182,1.671027 0.322139,0.61455 0.263914,0.751237 -0.358241,0.840997 -0.241595,0.03486 -0.54989,0.12058 -0.685099,0.1905 -0.525158,0.271569 -0.873582,0.06676 -0.458312,-0.269405 0.626804,-0.507402 0.712067,-0.622075 0.712067,-0.957692 0,-0.26711 -0.04674,-0.36086 -0.253196,-0.50787 -0.257042,-0.183032 -0.395892,-0.213514 -1.328047,-0.291557 l -0.52291,-0.04378 -0.144379,0.378054 c -0.139256,0.364634 -0.136718,0.70508 0.0098,1.320891 0.04078,0.171362 -0.0064,0.288403 -0.209388,0.519618 -0.330205,0.376081 -0.544288,0.951754 -0.431981,1.161602 0.08288,0.154859 0.657572,0.425931 0.903009,0.425931 0.07491,0 0.283794,-0.13335 0.464197,-0.296334 0.320467,-0.289522 0.661787,-0.37729 0.893721,-0.229814 0.182924,0.116314 0.280458,0.528695 0.280936,1.187826 6.77e-4,0.929783 0.107571,1.24015 0.533485,1.548949 0.249653,0.181003 0.417873,0.244508 0.566709,0.213935 0.732415,-0.150442 0.926323,-0.217477 1.251386,-0.43261 0.315469,-0.208783 0.387604,-0.226338 0.557165,-0.135592 0.259643,0.138958 0.442145,0.473317 0.511787,0.937639 0.03143,0.20955 0.148921,0.557565 0.261093,0.773366 0.112172,0.215801 0.187003,0.409312 0.16629,0.430024 -0.02071,0.02071 -0.267199,6.77e-4 -0.547751,-0.04449 -0.535307,-0.08621 -0.584693,-0.124455 -1.208746,-0.936063 -0.208189,-0.270756 -0.280752,-0.307502 -0.607236,-0.307502 -0.327833,0 -0.404379,0.03924 -0.660679,0.338667 -0.282349,0.32986 -0.304024,0.338667 -0.83361,0.338667 -0.440463,0 -0.602882,-0.0402 -0.855219,-0.211667 -0.614729,-0.417718 -0.913146,-0.204964 -0.913146,0.651018 0,0.455507 0.0387,0.610043 0.219464,0.876418 0.329565,0.485641 0.35243,0.797177 0.07742,1.054897 -0.372629,0.349209 -0.809961,0.290674 -1.504226,-0.20133 -0.627366,-0.444598 -0.739995,-0.592597 -0.739995,-0.972389 0,-0.438054 0.199384,-0.549006 0.873918,-0.486315 0.679063,0.06311 0.819416,-0.0076 0.819416,-0.413121 0,-0.186473 -0.07462,-0.349049 -0.232834,-0.50728 -0.211743,-0.211767 -0.27369,-0.228644 -0.683891,-0.186319 -0.570601,0.05887 -0.820839,0.223662 -1.047219,0.689618 -0.174592,0.359365 -0.409382,0.523141 -0.974504,0.679756 -0.177866,0.04929 -0.463577,0.342058 -0.670974,0.687538 -0.09201,0.153264 -0.105779,0.153707 -0.351731,0.01134 -0.478445,-0.276941 -0.764029,-0.130536 -0.910962,0.467006 -0.03167,0.128794 -0.153687,0.309769 -0.271151,0.402167 -0.235955,0.185602 -0.244189,0.187071 -0.490007,0.08743 z m 6.435432,-4.3179 c 0.258175,-0.499257 0.0743,-1.443538 -0.281094,-1.443538 -0.186352,0 -0.859732,0.562887 -0.859732,0.718662 0,0.200424 0.672401,0.974671 0.846461,0.974671 0.09729,0 0.218283,-0.102671 0.294365,-0.249795 z m -2.847631,-0.02473 c 0.92786,-0.128635 0.989296,-0.164823 1.080088,-0.636204 0.09753,-0.506371 -0.04016,-1.043079 -0.346079,-1.348998 -0.263062,-0.263062 -0.316121,-0.280271 -0.864157,-0.280271 -0.558692,0 -0.611874,0.01837 -1.232496,0.425806 -0.70607,0.463528 -1.076363,0.619006 -1.691077,0.710043 -0.458657,0.06793 -0.449842,0.05903 -0.528297,0.533244 -0.05196,0.314083 -0.03238,0.383406 0.163743,0.579524 l 0.222766,0.222766 1.15999,-0.04227 c 0.637995,-0.02324 1.553979,-0.09689 2.035519,-0.163644 z M 14.998902,33.484315 c 0.153423,-0.163312 0.183368,-0.265924 0.142069,-0.486833 -0.162979,-0.8718 -0.163021,-0.915835 -0.001,-1.094809 0.196011,-0.216591 0.565281,-0.413565 0.769398,-0.41041 0.0838,0.0013 0.302033,0.115596 0.484953,0.254 0.182921,0.138405 0.381676,0.251645 0.441678,0.251645 0.06,0 0.243281,-0.134185 0.407284,-0.298189 0.250957,-0.250957 0.335223,-0.288379 0.531989,-0.236256 0.58339,0.15454 0.819114,0.0029 1.087354,-0.699473 0.134667,-0.352621 0.135851,-0.407513 0.01428,-0.662441 -0.322332,-0.675937 -1.062283,-0.569255 -1.480664,0.213476 -0.321278,0.601066 -0.456041,0.72414 -0.869373,0.793973 -0.29581,0.04998 -0.435446,0.0207 -0.813481,-0.170571 -0.400742,-0.202757 -0.486281,-0.218514 -0.701735,-0.12927 -0.139041,0.05759 -0.354955,0.277929 -0.498273,0.508479 -0.185627,0.298611 -0.336336,0.43438 -0.566508,0.510342 -0.301403,0.09947 -0.325049,0.09244 -0.608121,-0.180787 -0.285208,-0.275292 -0.298353,-0.279085 -0.415603,-0.119934 -0.251961,0.342 -0.0658,1.09501 0.322261,1.303545 0.144081,0.07743 0.398546,0.258655 0.565479,0.402732 0.600602,0.518376 0.881053,0.577575 1.188059,0.250781 z m 14.736452,-1.650743 c 0,-0.09039 -0.04142,-0.189936 -0.09204,-0.221223 -0.129463,-0.08001 -0.279294,0.09363 -0.21819,0.252868 0.07258,0.18913 0.310233,0.164888 0.310233,-0.03164 z m -4.388166,-0.568453 c 0.360653,-0.326387 0.08162,-0.743192 -0.462219,-0.69045 -0.360777,0.03499 -0.398429,0.267809 -0.09459,0.584943 0.271832,0.283733 0.344633,0.297527 0.556813,0.105507 z M 13.370375,30.706741 c 0.096,-0.104775 0.256912,-0.354583 0.357593,-0.555128 0.140299,-0.279464 0.271555,-0.402564 0.561968,-0.52705 0.472261,-0.202434 0.744612,-0.491266 1.070248,-1.135013 0.279991,-0.553508 0.289635,-0.917339 0.03998,-1.508142 -0.200542,-0.474574 -0.507326,-0.443348 -1.136744,0.115705 -1.358813,1.206906 -1.323395,1.166349 -1.218868,1.395763 0.145004,0.318248 0.117624,0.503173 -0.115528,0.780258 -0.173287,0.20594 -0.211667,0.34187 -0.211667,0.749657 0,0.506007 0.156336,0.87445 0.371043,0.87445 0.05909,0 0.185982,-0.08573 0.281977,-0.1905 z m -2.25476,-0.2469 c 0.783246,-0.440208 0.953613,-2.147805 0.251763,-2.523423 C 10.99327,27.736201 10.711859,27.8332 9.8037928,28.475366 l -0.226898,0.160457 -0.282689,-0.308624 c -0.155479,-0.169743 -0.328105,-0.308624 -0.383615,-0.308624 -0.05551,0 -0.213812,0.123825 -0.351783,0.275166 -0.13797,0.151342 -0.405171,0.433776 -0.59378,0.627633 -0.3829561,0.393609 -0.4101223,0.649467 -0.07295,0.687042 0.117756,0.01312 0.506658,-0.12573 0.880343,-0.314318 0.36817,-0.185804 0.701044,-0.318268 0.739721,-0.294365 0.03868,0.0239 0.13191,0.255321 0.207186,0.514263 0.153326,0.527424 0.6334272,1.129245 0.9008502,1.129245 0.09301,0 0.315962,-0.08253 0.495435,-0.1834 z m 16.579076,-0.240659 c 0.93018,-0.46903 1.060204,-0.686434 0.980781,-1.63989 -0.04078,-0.489592 -0.02781,-0.765423 0.04214,-0.896128 0.05558,-0.103857 0.127595,-0.55174 0.160029,-0.995298 0.05543,-0.75798 0.07408,-0.819061 0.310176,-1.01591 l 0.251204,-0.209442 -0.465667,0.06235 c -0.256116,0.03429 -0.522816,0.0575 -0.592666,0.05157 -0.06985,-0.0059 -0.38583,-0.03492 -0.702179,-0.06442 -1.067161,-0.09951 -1.583821,0.263534 -1.583821,1.11291 0,0.354186 0.03741,0.429119 0.381,0.763045 0.20955,0.20366 0.381,0.426462 0.381,0.495116 0,0.06865 -0.138652,0.255636 -0.308115,0.415515 -0.361837,0.341372 -0.323405,0.480927 0.117631,0.427137 0.225847,-0.02754 0.398572,0.01209 0.598422,0.137324 0.358813,0.224845 0.325329,0.415562 -0.112737,0.642138 -0.291195,0.150611 -0.34119,0.218279 -0.364165,0.492887 -0.02217,0.264995 0.08545,0.56049 0.204125,0.56049 0.01637,0 0.332647,-0.152727 0.702842,-0.339394 z m -3.353925,-0.245171 c 0.199974,-0.338529 0.181866,-0.663704 -0.05423,-0.973778 -0.109717,-0.144095 -0.226224,-0.357242 -0.258905,-0.473658 -0.218522,-0.778408 -0.538768,-1.100667 -1.093793,-1.100667 -0.652356,0 -0.724051,0.462301 -0.229992,1.483026 0.563332,1.163843 1.296703,1.641017 1.636919,1.065077 z m -7.780945,-4.189524 c 0.154566,-0.06458 0.369823,-0.245556 0.478348,-0.402166 0.108526,-0.156611 0.344451,-0.447622 0.524277,-0.646692 0.179827,-0.199071 0.30205,-0.402249 0.271606,-0.451507 -0.08968,-0.145113 -0.809424,-0.42222 -0.966863,-0.372251 -0.20234,0.06422 -0.339834,0.407202 -0.339834,0.847723 0,0.494751 -0.229422,0.718981 -0.735631,0.718981 -0.297529,0 -0.365036,0.02871 -0.365036,0.155222 0,0.08537 0.0254,0.180623 0.05645,0.211666 0.09933,0.09934 0.786095,0.06044 1.076688,-0.06098 z M 15.327,24.860579 c 0.05085,-0.26675 -0.220997,-0.580863 -0.477113,-0.551283 -0.185053,0.02137 -0.232278,0.07488 -0.252956,0.286608 -0.01972,0.201877 0.0183,0.281749 0.169333,0.355734 0.269886,0.13221 0.526102,0.0906 0.560736,-0.09106 z m 7.473863,-0.271991 c 0.31831,-0.421599 0.34626,-0.497214 0.289486,-0.783167 -0.103568,-0.521642 -0.07664,-0.650147 0.236443,-1.128564 0.164829,-0.251872 0.34788,-0.623754 0.406778,-0.826404 0.06,-0.206437 0.267593,-0.546976 0.472103,-0.77444 0.414852,-0.461415 0.478274,-0.818179 0.195682,-1.100771 -0.40346,-0.40346 -1.185334,0.0386 -1.185334,0.670169 0,0.313854 -0.707189,2.216421 -1.022477,2.750795 -0.223432,0.378689 -0.325932,1.33554 -0.163973,1.53069 0.194457,0.234305 0.410516,0.139536 0.771292,-0.338308 z m -11.372272,0.120561 c 0.03052,-0.158502 -0.844607,-0.839241 -1.078895,-0.839241 -0.08764,0 -0.272547,-0.09525 -0.4109002,-0.211666 -0.407264,-0.34269 -0.791355,-0.225581 -0.433576,0.132197 0.121552,0.121553 0.249866,0.167488 0.391974,0.140322 0.1696162,-0.03242 0.3136392,0.05824 0.7305352,0.4599 0.507515,0.488963 0.749499,0.585195 0.800862,0.318488 z m 1.171802,-0.04535 c 0.302999,-0.143782 0.568375,-0.457567 0.643346,-0.760703 0.161159,-0.651624 -0.920071,-0.590811 -1.225216,0.06891 -0.253873,0.548873 -0.260704,0.654409 -0.04788,0.739749 0.272857,0.109414 0.302947,0.107122 0.629752,-0.04796 z m 4.329566,-2.169728 c 0.04657,-0.05821 0.110334,-0.189609 0.141698,-0.292003 0.06818,-0.222585 -0.199686,-0.533497 -0.459635,-0.533497 -0.375768,0 -0.658627,0.577506 -0.4064,0.829733 0.133415,0.133416 0.61647,0.130593 0.724337,-0.0042 z m -3.158064,-1.132093 c 0.334565,-0.128384 0.53406,-1.157459 0.267302,-1.378849 -0.06462,-0.05363 -0.33373,-0.142866 -0.598021,-0.198301 -0.403173,-0.08457 -0.516841,-0.08041 -0.706103,0.02582 -0.336107,0.188652 -0.615912,0.642896 -0.533403,0.865941 0.157623,0.426097 1.134621,0.852547 1.570225,0.68539 z m 5.779591,-1.378094 c 0.218043,-0.324677 0.247993,-0.66335 0.07909,-0.89434 -0.09585,-0.131077 -0.173777,-0.145286 -0.486833,-0.08876 -0.204997,0.03701 -0.562673,0.07138 -0.794839,0.07638 -0.37891,0.0081 -0.434247,0.03437 -0.540618,0.256163 -0.08505,0.177343 -0.09734,0.33268 -0.04355,0.550333 0.07354,0.297528 0.08453,0.304213 0.58295,0.354366 0.874824,0.08803 0.990392,0.06363 1.203798,-0.254138 z m 7.853716,0.02341 c 0.235096,-0.235095 0.125543,-0.410121 -0.274861,-0.439129 -0.322866,-0.02339 -0.377223,-0.06006 -0.528436,-0.35646 -0.198309,-0.38872 -0.211362,-0.740369 -0.04752,-1.280216 0.08862,-0.291992 0.09803,-0.48748 0.03668,-0.762 -0.09203,-0.411817 -0.28294,-0.750251 -0.42321,-0.750251 -0.05074,0 -0.326091,0.170569 -0.611882,0.379042 -0.28579,0.208473 -0.591057,0.42898 -0.678369,0.490016 -0.215762,0.150831 -0.199611,0.499358 0.03864,0.833959 0.12314,0.172934 0.219497,0.46466 0.256148,0.775497 0.06259,0.530862 0.232919,0.791743 0.710623,1.088433 0.33762,0.209687 1.319981,0.223311 1.522181,0.02111 z M 15.939279,17.619036 c 0.503395,-0.320351 0.604622,-0.459885 0.572686,-0.789406 -0.02363,-0.243869 -0.06593,-0.287169 -0.344443,-0.352609 -0.174967,-0.04111 -0.3175,-0.126369 -0.3175,-0.189918 0,-0.06343 0.1524,-0.266202 0.338666,-0.450617 0.381593,-0.377797 0.399484,-0.436627 0.190345,-0.625895 -0.39358,-0.356186 -0.694838,-0.346183 -2.180011,0.07239 -0.394686,0.111234 -0.438858,0.107881 -0.652739,-0.04955 -0.317896,-0.233989 -0.61128,-0.214652 -0.822783,0.05423 -0.337193,0.428672 -0.248803,0.686205 0.570135,1.661136 0.558865,0.66532 0.703858,0.75248 1.413387,0.84963 0.643666,0.08813 0.86177,0.05638 1.232257,-0.179391 z m 7.923867,-1.382524 c 0.114032,-0.126005 0.128553,-0.200254 0.06044,-0.30906 -0.122188,-0.195196 -0.56683,-0.22952 -0.739282,-0.05707 -0.177934,0.177934 -0.173429,0.259049 0.02543,0.457908 0.188227,0.188227 0.430846,0.154147 0.653408,-0.09178 z m -3.354495,-0.918986 c 0.277272,-0.148392 0.358883,-0.391258 0.241013,-0.717224 -0.127878,-0.353641 -0.01057,-0.676274 0.296809,-0.816326 0.62847,-0.28635 0.396149,-1.215828 -0.26257,-1.050501 -0.118257,0.02968 -0.44446,0.300271 -0.724895,0.601313 -0.418274,0.449009 -0.591169,0.570979 -0.96232,0.678876 -0.355594,0.103374 -0.463578,0.175909 -0.504477,0.338863 -0.07607,0.303088 0.118319,0.692866 0.466513,0.935424 0.267448,0.186309 0.365333,0.206577 0.795701,0.164758 0.269904,-0.02623 0.564305,-0.08706 0.654226,-0.135183 z m -4.500319,-2.1017 c 0.143684,-0.181415 0.470954,-0.439643 0.727267,-0.573841 l 0.466024,-0.243995 0.530699,0.190311 c 0.291885,0.10467 0.60895,0.190302 0.704591,0.190292 0.258628,-2.6e-5 0.884442,-0.710355 0.884442,-1.003885 0,-0.04602 -0.141377,-0.130325 -0.314169,-0.187352 -0.172794,-0.05703 -0.492652,-0.193332 -0.710796,-0.3029 -0.486164,-0.244186 -0.780136,-0.251735 -1.094204,-0.0281 -0.13217,0.09411 -0.404128,0.228914 -0.604351,0.299556 -0.531258,0.187439 -0.725108,0.338235 -0.916122,0.712654 -0.135826,0.266239 -0.240216,0.352959 -0.513449,0.426532 -0.188629,0.05079 -0.364913,0.149553 -0.391741,0.219466 -0.06723,0.175209 0.217984,0.780084 0.386015,0.818639 0.218581,0.05015 0.56332,-0.160725 0.845794,-0.517379 z m 8.644044,0.07632 c 0.146988,-0.274652 0.104743,-0.661322 -0.08692,-0.795568 -0.13678,-0.09581 -0.237575,-0.102932 -0.465667,-0.03293 -0.160106,0.04914 -0.291101,0.123553 -0.291101,0.165369 0,0.234196 0.463597,0.826895 0.64678,0.826895 0.06009,0 0.148703,-0.0737 0.196908,-0.163766 z M 14.077588,12.94493 c 0.25171,-0.134711 0.203325,-0.21473 -0.32327,-0.534621 -0.545741,-0.331519 -0.790534,-0.571199 -0.963151,-0.943031 -0.145983,-0.314462 -0.412478,-0.39343 -0.412478,-0.122227 0,0.235607 0.618023,1.243136 0.918024,1.496604 0.243199,0.205476 0.521208,0.242245 0.780875,0.103275 z m 14.699479,-0.302763 c 0.117577,-0.157629 0.032,-0.450248 -0.168694,-0.576845 -0.102186,-0.06446 -0.19675,-0.04173 -0.372801,0.08958 -0.273682,0.204142 -0.337117,0.40835 -0.184118,0.592702 0.131893,0.158922 0.576629,0.09429 0.725613,-0.105441 z m -5.266258,-0.392758 c -0.06799,-0.326304 -0.296868,-0.590925 -0.436242,-0.504364 -0.05452,0.03386 -0.123947,0.160477 -0.15429,0.281374 -0.06789,0.270473 0.131171,0.498157 0.435519,0.498157 0.194886,0 0.207632,-0.02263 0.155013,-0.275167 z m 0.371432,-2.4976674 c 0.09734,-0.08149 0.235421,-0.291042 0.30685,-0.465667 l 0.129869,-0.3175 h -0.589819 c -0.706496,0 -1.02112,0.119687 -1.02112,0.388445 0,0.44125 0.798161,0.7095574 1.17422,0.394722 z M 4.8151336,39.053463 c -0.1285303,-0.12853 -0.044,-0.282222 0.1552221,-0.282222 0.1552222,0 0.2116667,0.04515 0.2116667,0.169333 0,0.165196 -0.2405629,0.239215 -0.3668888,0.112889 z m 30.9605904,-4.56201 c -0.08163,-0.212715 0.01928,-1.475059 0.126476,-1.582258 0.282964,-0.282964 0.436718,0.533635 0.232648,1.235614 -0.138272,0.475635 -0.263311,0.59633 -0.359124,0.346644 z M 3.7040645,30.791408 c -0.018321,-0.05821 -0.057812,-0.419797 -0.087758,-0.803529 -0.0538,-0.689402 -0.051867,-0.698873 0.1626234,-0.796601 0.4669065,-0.212737 0.6871299,0.339493 0.4569354,1.145807 -0.1180443,0.41348 -0.2173379,0.560156 -0.3792005,0.560156 -0.06561,0 -0.1342798,-0.04763 -0.1526003,-0.105833 z M 37.108794,30.325741 c -0.122258,-0.100273 -0.206425,-0.308402 -0.260387,-0.643885 -0.04385,-0.272646 -0.120345,-0.544652 -0.169979,-0.604458 -0.140819,-0.169676 -0.505789,-0.204845 -0.898691,-0.0866 -0.282869,0.08513 -0.400781,0.0863 -0.555871,0.0055 -0.22596,-0.117729 -0.225922,-0.122539 0.0052,-0.660216 0.140523,-0.326856 0.212648,-0.402167 0.385162,-0.402167 0.348991,0 1.09504,0.377781 1.354139,0.685702 0.133198,0.158297 0.359803,0.359344 0.503567,0.446773 0.366204,0.222702 0.470255,0.386511 0.473358,0.745214 0.002,0.237407 -0.05029,0.353031 -0.220393,0.486833 -0.272109,0.214041 -0.382505,0.218934 -0.616141,0.02731 z m 2.317045,-1.583652 c -0.345394,-0.345393 -0.252406,-0.977514 0.143798,-0.977514 0.383944,0 0.74905,0.352725 0.74905,0.72365 0,0.180463 -0.311777,0.461683 -0.511848,0.461683 -0.09525,0 -0.2667,-0.09352 -0.381,-0.207819 z m -7.473828,-1.972348 c -0.311892,-0.438678 -0.390001,-0.884392 -0.285046,-1.626554 0.115516,-0.816839 0.213166,-0.989823 0.599688,-1.062335 0.163437,-0.03066 0.44473,-0.131034 0.625096,-0.223049 0.369161,-0.188331 0.681692,-0.180648 0.719447,0.01769 0.0273,0.143386 -0.432418,0.980035 -0.764542,1.391417 -0.14002,0.173436 -0.237424,0.454027 -0.307092,0.884635 -0.142345,0.879825 -0.29062,1.035835 -0.587551,0.618198 z M 5.1820224,26.704913 C 5.0656057,26.637633 4.7036558,26.501968 4.3776891,26.403436 3.6960144,26.197382 3.4040225,25.969917 3.4040225,25.644939 c 0,-0.187672 0.099951,-0.292419 0.5715,-0.598921 0.5375488,-0.349402 0.6123676,-0.373226 1.2594264,-0.401043 0.6644509,-0.02857 0.6976773,-0.02085 0.9736666,0.226021 0.2610804,0.233537 0.2848416,0.294829 0.2753282,0.710212 -0.011281,0.492585 -0.2693276,1.110393 -0.5009062,1.199258 -0.227322,0.08723 -0.5763013,0.05432 -0.8010151,-0.07555 z M 36.377716,24.37023 c -0.138759,-0.268332 -0.114528,-0.753332 0.05046,-1.010054 0.07093,-0.110366 0.09031,-0.110161 0.16293,0.0017 0.126333,0.194661 0.268953,0.969033 0.207816,1.128355 -0.08473,0.220792 -0.272655,0.167237 -0.421209,-0.120034 z m 1.749955,-1.370538 c -0.128243,-0.128242 -0.119908,-0.358364 0.0171,-0.472069 0.145606,-0.120842 0.311253,0.03447 0.311253,0.291827 0,0.214803 -0.189672,0.31892 -0.32835,0.180242 z M 2.3043749,21.620695 c -0.2799604,-0.3523 -0.509019,-0.693076 -0.509019,-0.757279 0,-0.25944 -0.3829102,-0.563827 -0.80627542,-0.640931 -0.5760471,-0.104911 -0.8023912,-0.369234 -0.8023912,-0.937028 0,-0.396682 0.029022,-0.455981 0.4171482,-0.852346 0.3694719,-0.377314 0.43321892,-0.498238 0.55776092,-1.05803 0.1707564,-0.767517 0.3589541,-0.995111 0.7679741,-0.928735 0.5673889,0.09207 0.9087375,0.501362 1.0012748,1.200563 0.030815,0.232833 0.097368,0.594783 0.1478966,0.804333 0.075042,0.311213 0.066721,0.44105 -0.045426,0.708839 -0.264813,0.632332 -0.08362,1.256105 0.4441513,1.529025 0.7143967,0.369429 0.8078025,1.256122 0.156249,1.483254 C 3.0260358,22.3842 2.8545529,22.313036 2.3043749,21.620695 Z M 38.640897,21.097799 c 0.0281,-0.243444 0.270536,-0.362345 0.424627,-0.208254 0.125224,0.125224 -0.07475,0.440363 -0.27944,0.440363 -0.137553,0 -0.166615,-0.04646 -0.145187,-0.232109 z M 7.3507487,20.729766 C 7.2271218,20.632521 7.0745311,20.451546 7.0116583,20.327599 6.8632468,20.035022 6.754829,19.297909 6.8602071,19.297909 c 0.043941,0 0.227251,0.14604 0.4073544,0.324534 0.1801034,0.178495 0.4004858,0.364538 0.4897388,0.41343 0.1898525,0.103999 0.2209725,0.536955 0.053133,0.739191 -0.1420097,0.171111 -0.1906592,0.166318 -0.4596842,-0.0453 z m 0.8364721,-1.009282 c -0.07807,-0.126317 0.02984,-0.399483 0.180665,-0.457362 0.172813,-0.06631 0.28547,0.0095 0.28547,0.192184 0,0.273102 -0.341255,0.467238 -0.466135,0.265178 z M 4.8692752,14.332665 c -0.065484,-0.170649 0.1808829,-0.368756 0.4585867,-0.368756 0.2355102,0 0.3386419,0.205304 0.1919323,0.382078 -0.1427892,0.172051 -0.5828431,0.163039 -0.650519,-0.01332 z M 41.452093,11.632816 c -0.28423,-0.43379 -0.09999,-1.249144 0.251757,-1.114165 0.24533,0.09414 0.402983,1.030578 0.20657,1.226991 -0.157569,0.15757 -0.304925,0.121295 -0.458327,-0.112826 z m -8.733298,-1.037761 c -0.08979,-0.06002 -0.324293,-0.7286184 -0.49781,-1.4193424 -0.05753,-0.228999 0.261452,-0.376471 0.814305,-0.376471 0.568802,0 0.679397,0.131149 0.679397,0.805659 0,0.4389634 -0.03552,0.5799284 -0.1905,0.7560444 -0.20208,0.229638 -0.627205,0.353213 -0.805392,0.23411 z M 1.3720226,10.082559 c 0,-0.3710374 0.052752,-0.5879534 0.2110518,-0.8678344 0.1160786,-0.205232 0.2875347,-0.538248 0.3810136,-0.740034 0.1873585,-0.404438 0.392356,-0.434822 0.3636812,-0.05391 -0.00986,0.130928 0.0825,0.416693 0.2052353,0.635034 l 0.2231553,0.396984 -0.1661883,0.287053 C 2.4211982,10.031369 1.7038016,10.577237 1.4894541,10.577237 c -0.086732,0 -0.1174315,-0.129324 -0.1174315,-0.494683 z M 4.401691,9.3284086 C 4.0589998,8.9355396 3.9784443,8.3911796 4.2133653,8.0557826 c 0.1055307,-0.150666 0.1643738,-0.171149 0.29336,-0.102118 0.1882418,0.100744 0.5343396,1.130793 0.4593428,1.367086 -0.063214,0.199169 -0.3934177,0.203649 -0.5643771,0.0077 z m 30.846596,-0.155194 c -0.09461,-0.120281 -0.247493,-0.420403 -0.339734,-0.666936 -0.09224,-0.246534 -0.246052,-0.576747 -0.341804,-0.733807 -0.09575,-0.15706 -0.174238,-0.34753 -0.174412,-0.423268 -1.69e-4,-0.07574 0.270276,-0.399587 0.600999,-0.719666 l 0.601316,-0.581963 -0.04783,-0.592663 C 35.503102,4.9131316 35.517922,4.834931 35.719476,4.5440867 35.840744,4.3690983 36.121684,4.095372 36.343788,3.935806 36.565892,3.77624 36.89388,3.428485 37.07265,3.1630171 c 0.498843,-0.7407639 1.080979,-1.3431282 1.239309,-1.2823713 0.114318,0.043868 0.130335,0.1930739 0.106164,0.9889277 -0.01754,0.5774215 -0.06847,0.9854617 -0.132652,1.0628 -0.06756,0.081407 -0.258542,0.125535 -0.543302,0.125535 -0.578946,0 -0.693926,0.1067267 -0.759242,0.7047465 -0.07424,0.6797006 -0.226668,1.0006646 -0.725949,1.5285796 -0.29513,0.312057 -0.412104,0.49739 -0.374984,0.594123 0.117089,0.305128 0.619634,0.39023 1.228017,0.207954 0.253792,-0.07604 0.352937,-0.07378 0.454323,0.01037 0.314586,0.261083 0.0015,0.682055 -0.632313,0.850122 -0.432949,0.11481 -0.980406,0.624941 -1.069032,0.996147 -0.116166,0.486549 -0.342843,0.568881 -0.614702,0.223267 z m -4.244116,-1.435222 c -0.314355,-0.774521 -0.783827,-0.927007 -1.424713,-0.462751 -0.622397,0.450861 -1.02387,0.277654 -0.739355,-0.31898 0.188552,-0.395399 0.26344,-1.046427 0.14568,-1.266462 -0.129896,-0.242714 -0.462413,-0.303737 -0.826389,-0.151659 -0.438445,0.183194 -0.683321,0.160968 -1.266575,-0.11496 -0.46585,-0.220386 -0.536765,-0.290041 -0.754166,-0.7407662 -0.280564,-0.5816787 -0.305451,-0.915536 -0.09239,-1.2393336 0.253078,-0.3846017 0.461032,-0.3750485 1.421761,0.065314 0.896998,0.4111508 1.125306,0.5985265 1.528995,1.2548724 0.268784,0.4370074 0.782123,0.7339744 1.268753,0.7339744 0.37747,0 0.657096,0.325055 0.852841,0.991393 0.07126,0.242583 0.229546,0.611663 0.351744,0.820178 0.212231,0.362144 0.216174,0.39073 0.08808,0.638441 -0.07375,0.142627 -0.185846,0.259322 -0.249092,0.259322 -0.06325,0 -0.200575,-0.210862 -0.305176,-0.468583 z M 6.4172154,7.0994126 c -0.1205562,-0.143273 -0.2191931,-0.301025 -0.2191931,-0.35056 0,-0.04954 -0.08144,-0.25313 -0.1809766,-0.452434 -0.3092944,-0.619302 -0.050523,-0.798003 0.6585244,-0.454759 0.4111339,0.199027 0.8771188,0.686258 0.8771188,0.91711 0,0.08523 -0.078965,0.255357 -0.1754784,0.378054 -0.2547463,0.323857 -0.6696115,0.30769 -0.9599951,-0.03741 z m 33.5881396,-0.08715 c -0.33388,-0.09656 -0.398502,-0.19169 -0.280271,-0.412606 0.127185,-0.237648 0.351859,-0.213596 0.620096,0.06638 0.388498,0.405504 0.272792,0.523389 -0.339825,0.346223 z m -35.7204331,-0.8706 c -0.055201,-0.143851 0.018983,-0.305754 0.1400973,-0.305754 0.1067769,0 0.1021592,0.314774 -0.00559,0.381369 -0.046895,0.02898 -0.1074216,-0.005 -0.1345025,-0.07562 z m 14.8083211,-0.51009 c -0.212527,-0.182808 -0.237555,-0.259347 -0.237555,-0.726492 0,-0.8009739 0.311457,-0.9493572 1.133189,-0.5398708 0.714914,0.3562568 0.794344,0.8533518 0.200802,1.2566738 -0.401519,0.272839 -0.786551,0.276242 -1.096436,0.0097 z M 11.309173,4.069731 C 11.023623,3.9468119 10.650822,3.7224168 10.480727,3.5710752 10.310632,3.4197335 10.137612,3.2959085 10.096239,3.2959085 c -0.04137,0 -0.1829232,0.088766 -0.3145542,0.1972569 -0.35553,0.2930301 -0.493151,0.3181928 -0.943967,0.1725955 -0.372765,-0.1203899 -0.44555,-0.120127 -0.807975,0.00292 C 7.522623,3.840852 7.4893473,3.8393711 7.0931009,3.6269959 6.859797,3.5019524 6.6864003,3.4661231 6.5016881,3.5047909 5.8681902,3.6374078 5.5473165,3.6484173 5.1047137,3.5527223 4.8445501,3.4964724 4.5432575,3.4333228 4.4351745,3.4123898 4.0666666,3.3410189 4.2929896,3.1691529 4.7659466,3.1612067 5.2117214,3.1537171 5.7487291,3.0420824 6.21551,2.8598668 6.4387281,2.7727299 6.5235235,2.60673 6.6628916,1.9840488 6.7380381,1.6483026 6.85591,1.5179086 7.084267,1.5179086 c 0.2544424,0 0.4433344,0.2283959 0.5888933,0.7120495 0.066777,0.2218826 0.1908135,0.45603 0.2756375,0.5203274 0.234395,0.1776748 0.636329,0.1451572 1.072526,-0.086771 l 0.393187,-0.2090602 0.311104,0.1835554 c 0.259726,0.1532419 0.4202012,0.1798364 0.9717162,0.1610356 l 0.660612,-0.02252 0.375821,0.3866913 c 0.398523,0.4100494 0.628506,0.4756809 0.859039,0.245148 0.111155,-0.111155 0.127631,-0.2156742 0.07674,-0.4868333 -0.13133,-0.6997716 -0.09977,-0.9248157 0.141756,-1.0107083 0.316838,-0.1126768 0.591375,-0.018175 1.088288,0.374612 0.35812,0.2830769 0.431823,0.3858111 0.410317,0.5719323 -0.0233,0.2016619 -0.08363,0.2409871 -0.542831,0.3538738 -0.436945,0.1074145 -0.593246,0.2020779 -1.013511,0.6138333 -0.572943,0.5613414 -0.670369,0.5778437 -1.444389,0.2446566 z m 6.781555,-0.2488339 c -0.642119,-0.216888 -1.726466,-0.9501085 -1.729904,-1.1697372 -0.0053,-0.3376493 0.312588,-0.6111489 0.920835,-0.7922926 1.278836,-0.3808538 1.502757,-0.197284 1.493482,1.2243496 -0.0063,0.9661396 -0.0067,0.9665852 -0.684413,0.7376802 z M 33.339263,2.8815968 c -0.06186,-0.1000979 0.03105,-0.3476883 0.130483,-0.3476883 0.100203,0 0.09752,0.3151281 -0.0032,0.3773843 -0.04335,0.026791 -0.100623,0.013428 -0.127275,-0.029696 z m -7.71409,-0.3861731 c -0.1143,-0.1143 -0.207818,-0.3069785 -0.207818,-0.4281745 0,-0.121196 -0.04243,-0.3888468 -0.09428,-0.5947795 -0.150454,-0.59750471 0.05264,-1.05522771 0.468206,-1.05522771 0.387749,0 0.497985,0.2604546 0.510659,1.20652631 0.0064,0.4772938 -0.0036,0.9154319 -0.0222,0.9736402 -0.05663,0.1771737 -0.434235,0.1183409 -0.654561,-0.1019848 z M 10.071522,0.32579359 c -0.08149,-0.047465 -0.1481672,-0.1199384 -0.1481672,-0.1610532 0,-0.1329488 0.3269492,-0.1830607 0.5200612,-0.07971 0.181268,0.097012 0.182287,0.1045262 0.02935,0.2163571 -0.186364,0.1362726 -0.207023,0.1375293 -0.401243,0.024406 z" />
  </g>
</svg>
