<svg
   xmlns:rdf="http://www.w3.org/1999/02/22-rdf-syntax-ns#"
   xmlns:svg="http://www.w3.org/2000/svg"
   xmlns="http://www.w3.org/2000/svg"
   width="210mm"
   height="297mm"
   viewBox="0 0 210 297"
   version="1.1"
   id="svg10" >
  <g 
    id="layer3">
    <path
       style="fill:#808000;stroke-width:0.08466666"
       d="m 14.804567,40.44015 c -0.157257,-0.357284 -0.54002,-0.412353 -0.993458,-0.142932 -0.530224,0.315045 -0.771872,0.35105 -1.155953,0.17223 -0.188302,-0.08767 -0.447144,-0.18324 -0.575202,-0.212378 -0.317388,-0.07222 -0.292645,-0.179204 0.09856,-0.426161 0.392249,-0.247617 0.59994,-0.519522 0.59994,-0.785431 0,-0.237649 0.087,-0.245036 0.276688,-0.02349 0.12277,0.143385 0.249762,0.169333 0.828716,0.169333 0.37605,0 0.754372,-0.03781 0.840715,-0.08402 0.195968,-0.104879 0.372223,-0.619064 0.314814,-0.918396 -0.03522,-0.18363 0.0061,-0.256792 0.223766,-0.39592 0.277773,-0.177574 0.391267,-0.500901 0.231802,-0.660367 -0.142655,-0.142654 -0.108208,-0.241222 0.05633,-0.16119 0.08149,0.03964 0.509318,0.06955 0.950725,0.06648 l 0.802558,-0.0056 0.171108,-0.271905 c 0.240491,-0.382159 0.359796,-0.345802 0.406045,0.123738 0.02179,0.221192 0.06756,0.486164 0.10171,0.588827 0.05137,0.154412 0.02383,0.196264 -0.15938,0.242248 -0.121812,0.03057 -0.301624,0.168143 -0.399582,0.305714 l -0.178106,0.250127 -0.16292,-0.174874 c -0.202311,-0.217156 -0.424909,-0.223315 -0.61169,-0.01693 -0.110549,0.122156 -0.130079,0.242075 -0.08618,0.529166 0.03122,0.20417 0.09588,0.447417 0.143682,0.540551 0.07539,0.146877 0.06959,0.155046 -0.04374,0.0616 -0.07186,-0.05925 -0.154526,-0.22707 -0.183698,-0.37293 -0.07243,-0.362162 -0.199348,-0.493005 -0.478208,-0.493005 -0.386478,0 -0.828315,0.636708 -0.744359,1.072656 0.02097,0.108867 0.180003,0.195519 0.536664,0.292406 0.525755,0.14282 0.556866,0.193316 0.331248,0.537651 -0.09977,0.152274 -0.767066,0.467953 -0.989175,0.467953 -0.01777,0 -0.08681,-0.123825 -0.153424,-0.275167 z m 20.805848,-2.998425 c -0.03115,-0.03115 -0.05663,-0.129948 -0.05663,-0.21956 0,-0.08961 -0.135179,-0.320857 -0.300398,-0.513877 -0.26041,-0.304231 -0.293557,-0.391439 -0.24901,-0.655117 0.06373,-0.377192 -0.100857,-0.549425 -0.444938,-0.465618 -0.3084,0.07511 -0.707875,0.06055 -0.820359,-0.02991 -0.04966,-0.03994 -0.242695,-0.09262 -0.428962,-0.117063 -0.186266,-0.02445 -0.546994,-0.104932 -0.801618,-0.178856 -0.254623,-0.07392 -0.737867,-0.134409 -1.073876,-0.134409 -0.603524,0 -0.611249,-0.0028 -0.637715,-0.232833 -0.02391,-0.207834 -0.06497,-0.235606 -0.382398,-0.258662 -0.264273,-0.01919 -0.369038,-0.06815 -0.4079,-0.190589 -0.06906,-0.217599 -0.34233,-0.357121 -0.562554,-0.287224 -0.09717,0.03084 -0.431959,0.06304 -0.743983,0.07155 -0.441507,0.01205 -0.620074,0.05698 -0.805221,0.202619 -0.281437,0.221379 -0.393921,0.230343 -0.727272,0.05796 -0.209281,-0.108223 -0.249796,-0.180698 -0.249796,-0.44685 0,-0.212902 0.05585,-0.365495 0.169334,-0.462664 0.346361,-0.296564 0.113019,-0.749472 -0.464592,-0.901754 -0.2901,-0.07648 -0.359691,-0.0669 -0.49468,0.06808 -0.146659,0.14666 -0.148135,0.1744 -0.02224,0.417852 0.191738,0.37078 0.169579,0.398119 -0.123085,0.151858 -0.218691,-0.184017 -0.313182,-0.209462 -0.621114,-0.167255 -0.322072,0.04415 -0.397346,0.01978 -0.664987,-0.215207 -0.236187,-0.207375 -0.309705,-0.342919 -0.338151,-0.623438 -0.01999,-0.197148 -0.06429,-0.420797 -0.09845,-0.496997 -0.04657,-0.103885 0.0382,-0.206242 0.33882,-0.409126 0.345097,-0.232903 0.429689,-0.257472 0.60751,-0.176451 0.381315,0.173738 0.589431,-0.186416 0.284136,-0.49171 -0.153555,-0.153555 -0.146664,-0.162813 0.275167,-0.369658 0.237966,-0.116688 0.556491,-0.23934 0.707833,-0.272562 0.239366,-0.05254 0.275166,-0.03821 0.275166,0.110147 0,0.0938 -0.04021,0.276317 -0.08936,0.405589 -0.127447,0.335211 -0.03253,0.602435 0.282135,0.794293 0.330455,0.201487 0.432329,0.207161 0.605756,0.03373 0.104527,-0.104527 0.13988,-0.109095 0.163826,-0.02117 0.124978,0.458904 0.203056,0.615512 0.357835,0.71774 0.156605,0.103434 0.204562,0.0955 0.412832,-0.06833 0.210258,-0.165389 0.279657,-0.176341 0.644212,-0.101662 0.497607,0.101933 0.647335,0.02938 0.718132,-0.348008 l 0.05418,-0.288781 0.393729,0.276374 c 0.366581,0.257319 0.395562,0.30497 0.420311,0.6911 0.03236,0.504864 0.126074,0.630548 0.470618,0.631163 0.388937,6.77e-4 0.876108,0.154331 0.929354,0.293088 0.08789,0.229042 0.55229,0.40411 0.822297,0.309985 0.151706,-0.05289 0.263817,-0.0551 0.294274,-0.0058 0.02706,0.04379 0.16482,0.07961 0.306132,0.07961 0.185724,0 0.269202,-0.04693 0.301211,-0.169333 0.05725,-0.218908 0.201711,-0.215101 0.394793,0.0104 0.129989,0.151817 0.213069,0.171623 0.534877,0.127515 0.333118,-0.04566 0.38653,-0.03101 0.425131,0.116598 0.03761,0.143818 0.115844,0.168819 0.528277,0.168819 0.432425,0 0.508582,-0.02744 0.713084,-0.256962 0.125925,-0.14133 0.265865,-0.23415 0.310978,-0.206269 0.04816,0.02976 0.02932,0.103398 -0.04563,0.178344 -0.198717,0.198717 -0.152097,0.422789 0.145911,0.701302 0.2166,0.20243 0.251858,0.277366 0.169334,0.359891 -0.209958,0.209958 -0.106877,0.409435 0.368831,0.713742 l 0.473058,0.302612 -0.449039,0.237503 -0.44904,0.237502 -0.46396,-0.205184 c -0.255178,-0.112853 -0.513635,-0.186123 -0.574351,-0.162824 -0.247448,0.09495 -0.02814,0.894009 0.364424,1.327787 0.137815,0.152284 0.133666,0.159222 -0.09519,0.159222 -0.131609,0 -0.30253,0.05723 -0.379826,0.127185 -0.0773,0.06995 -0.16602,0.101702 -0.197167,0.07056 z m -5.41984,-1.283908 c -0.272418,-0.301018 -0.158445,-0.639058 0.244946,-0.726501 0.2341,-0.05075 0.271365,-0.02806 0.40124,0.244291 0.137445,0.288227 0.136437,0.306966 -0.02523,0.468637 -0.210049,0.210049 -0.438622,0.215045 -0.620951,0.01357 z M 18.838224,35.907016 c 0.06091,-0.33143 -0.07033,-0.525699 -0.355137,-0.525699 -0.217862,0 -0.255834,-0.08093 -0.107544,-0.229222 0.05157,-0.05156 0.119651,-0.22111 0.151301,-0.376767 0.04266,-0.2098 0.108243,-0.290301 0.253523,-0.311194 0.299694,-0.0431 0.602087,0.05889 0.602087,0.203067 0,0.07113 0.114058,0.194228 0.253464,0.273554 0.281674,0.160281 0.337599,0.355896 0.101748,0.355896 -0.157209,0 -0.653246,0.424311 -0.843431,0.721472 -0.09547,0.149165 -0.101605,0.136988 -0.05601,-0.111107 z M 3.1484942,35.755424 C 3.1803922,35.58856 3.112634,35.447157 2.8620312,35.157608 2.4440817,34.674705 2.4418167,34.49443 2.8512876,34.302484 c 0.1949738,-0.0914 0.3665104,-0.254529 0.4445,-0.422721 0.086335,-0.186188 0.167665,-0.257666 0.2539999,-0.223227 0.326984,0.130432 0.4203553,0.113556 0.6921704,-0.125101 0.4477588,-0.393137 0.6909232,-0.420662 0.9245567,-0.104656 0.2048258,0.277041 0.5320035,0.351074 0.6134567,0.13881 0.034032,-0.08869 0.129599,-0.108985 0.3470085,-0.0737 0.1839964,0.02986 0.3494371,0.0077 0.4277576,-0.05731 0.1078666,-0.08952 0.1277166,-0.07412 0.1277166,0.09911 0,0.112805 -0.041326,0.246426 -0.091835,0.296935 -0.050509,0.05051 -0.079084,0.18171 -0.0635,0.291555 0.020726,0.146092 0.09654,0.211859 0.2823349,0.244922 0.2081442,0.03704 0.2260007,0.05625 0.098909,0.106379 -0.0853,0.03365 -0.3053182,0.06118 -0.4889289,0.06118 -0.2781888,0 -0.3472523,0.03528 -0.4143131,0.211666 -0.071176,0.187208 -0.1298784,0.211667 -0.5079999,0.211667 -0.373234,0 -0.4373238,0.02577 -0.5046918,0.202966 -0.058444,0.153718 -0.217146,0.248819 -0.6540711,0.391946 -0.317297,0.103939 -0.6370537,0.241205 -0.7105704,0.305035 -0.073517,0.06383 -0.2208333,0.116053 -0.3273702,0.116053 -0.1625918,0 -0.1869929,-0.0351 -0.1519231,-0.21856 z m 1.3120972,-0.527181 c 0.098152,-0.124482 0.085302,-0.446343 -0.035353,-0.885512 -0.022603,-0.08227 -0.19582,-0.228521 -0.3849263,-0.324996 -0.3384036,-0.17264 -0.3463815,-0.172857 -0.5055084,-0.01373 -0.1344338,0.134434 -0.1464925,0.201621 -0.07156,0.398708 0.065618,0.172589 0.062538,0.313302 -0.011328,0.517577 -0.1512368,0.418238 0.00418,0.56896 0.5130874,0.497571 0.2140149,-0.03002 0.4370299,-0.11535 0.4955883,-0.189618 z m 36.8151876,0.587723 c -0.02493,-0.04034 0.0262,-0.138083 0.113619,-0.217201 0.08742,-0.07912 0.183415,-0.274246 0.213314,-0.43362 0.09387,-0.500385 0.663287,-0.607162 0.779011,-0.14608 0.07422,0.295724 -0.05464,0.471959 -0.420052,0.574484 -0.167667,0.04704 -0.352152,0.132835 -0.409967,0.19065 -0.123387,0.123387 -0.212929,0.133696 -0.275925,0.03177 z m -3.070357,-1.128061 c -0.183955,-0.08893 -0.183685,-0.09014 0.06708,-0.301138 0.297526,-0.250352 0.348915,-0.225422 0.276959,0.134361 -0.05834,0.291691 -0.07197,0.298298 -0.344035,0.166777 z M 9.0446946,34.112858 C 8.8397792,33.974006 8.5578206,33.859255 8.4181206,33.857855 8.2071338,33.855747 8.1094937,33.776623 7.8415423,33.390648 7.5857995,33.022258 7.4716825,32.925984 7.2907596,32.925984 c -0.1893048,0 -0.2450253,-0.05374 -0.3268823,-0.315269 -0.054273,-0.173398 -0.080397,-0.344848 -0.058054,-0.381 0.079162,-0.128087 0.2052268,-0.06291 0.2852076,0.147454 0.044579,0.117252 0.1773671,0.249804 0.2950845,0.294559 0.4767081,0.181245 1.1476999,-0.44834 0.7712211,-0.723629 -0.078881,-0.05768 -0.2182037,-0.08531 -0.3096056,-0.06141 -0.1342805,0.03512 -0.1619716,0.005 -0.1442322,-0.157122 0.018601,-0.169942 -0.020077,-0.204634 -0.2532118,-0.227112 -0.1987218,-0.01916 -0.2751666,-0.06888 -0.2751666,-0.178954 0,-0.08383 -0.09565,-0.248074 -0.2125564,-0.36498 L 6.850008,30.745962 7.1811979,30.46014 c 0.4796907,-0.413981 0.8000182,-0.625877 0.9088402,-0.601196 0.052388,0.01188 0.2809884,-0.14457 0.508,-0.347669 0.2270125,-0.2031 0.4984737,-0.414567 0.6032487,-0.469927 0.151497,-0.08005 0.190505,-0.173718 0.190522,-0.457509 l 2.1e-5,-0.356855 0.363956,-0.0077 c 0.6955822,-0.01475 0.7911322,-0.07337 0.9517072,-0.583878 0.145956,-0.464032 0.145794,-0.466269 -0.0555,-0.768469 -0.242229,-0.363666 -1.0406452,-0.798939 -1.4654792,-0.798939 -0.1621205,0 -0.3915088,-0.04408 -0.5097525,-0.09796 -0.170495,-0.07768 -0.1948273,-0.122249 -0.117569,-0.215339 0.053581,-0.06456 0.1009083,-0.363286 0.1051712,-0.663833 0.00427,-0.300547 0.041483,-0.546545 0.08271,-0.546661 0.041227,-8.4e-5 0.1601208,0.09168 0.2642091,0.203994 0.1384602,0.149402 0.3212662,0.220699 0.6811572,0.265665 0.3956922,0.04944 0.5317892,0.108858 0.6958172,0.303794 0.249522,0.296541 0.766401,0.339607 1.01106,0.08424 0.215832,-0.225276 0.767252,-0.391197 1.19651,-0.360025 0.302908,0.022 0.408779,-0.01264 0.600736,-0.196548 0.205932,-0.197296 0.245594,-0.208103 0.341155,-0.09296 0.05947,0.07166 0.170141,0.129567 0.245931,0.128683 0.192932,-0.0023 1.208881,-0.685763 1.593072,-1.071789 0.103346,-0.103838 0.345767,-0.208727 0.554902,-0.240088 0.345967,-0.05188 0.392156,-0.03492 0.67497,0.247896 0.347056,0.347056 0.496422,0.369482 0.926316,0.139073 0.353975,-0.18972 0.410206,-0.161525 0.410206,0.205681 0,0.219587 -0.04864,0.288428 -0.274164,0.388055 -0.234846,0.103744 -0.401567,0.305933 -0.512009,0.620931 -0.01475,0.04207 -0.130618,0.0085 -0.257486,-0.07465 -0.162874,-0.106718 -0.215915,-0.197631 -0.180467,-0.309318 0.0763,-0.240398 -0.0255,-0.46038 -0.263151,-0.568662 -0.263389,-0.120008 -0.544723,-0.126644 -0.544723,-0.01285 0,0.04657 -0.109634,0.08467 -0.243633,0.08467 -0.297773,0 -0.39643,0.112091 -0.607919,0.6907 -0.186075,0.509079 -0.209165,0.839382 -0.06851,0.980037 0.07147,0.07147 0.03909,0.237951 -0.127,0.652824 -0.122616,0.306288 -0.222938,0.645831 -0.222938,0.75454 0,0.284377 0.272255,0.496343 0.607454,0.47294 0.458168,-0.03199 0.662546,-0.0011 0.662546,0.100208 0,0.05942 -0.09019,0.07721 -0.239762,0.0473 -0.372033,-0.07441 -0.707956,0.181518 -0.879735,0.670229 -0.167189,0.475655 -0.557831,0.79589 -0.970874,0.79589 -0.29857,0 -0.427871,-0.124044 -0.498757,-0.478478 -0.03467,-0.17336 -0.0087,-0.28505 0.08416,-0.362132 0.305792,-0.253784 0.05097,-0.627871 -0.627702,-0.921484 -0.20955,-0.09066 -0.473366,-0.264673 -0.586258,-0.386702 -0.482693,-0.521757 -0.999733,-0.119119 -0.725892,0.565278 0.129081,0.322606 0.127359,0.339529 -0.047,0.461657 -0.13013,0.09115 -0.171375,0.192334 -0.146759,0.36005 0.02346,0.159847 -0.01397,0.263384 -0.118925,0.328927 -0.186948,0.116751 -0.193462,0.278697 -0.02437,0.605691 0.187311,0.362221 0.0981,0.566671 -0.538634,1.234428 -0.5667,0.59431 -0.573476,0.598282 -1.1024382,0.646247 -0.6194029,0.05617 -0.8200274,0.19895 -0.9481627,0.674807 -0.094058,0.349306 -0.011642,0.762985 0.2281588,1.145211 0.097052,0.154693 0.1962514,0.1905 0.5277759,0.1905 0.590292,0 0.8873852,0.381689 0.555455,0.713619 -0.193552,0.193552 -0.387133,0.164898 -0.8067112,-0.119412 z M 20.076015,33.935634 c 0.01669,-0.05006 0.06653,-0.09102 0.110772,-0.09102 0.04424,0 0.09409,0.04096 0.110772,0.09102 0.01669,0.05006 -0.03316,0.09102 -0.110772,0.09102 -0.07761,0 -0.127459,-0.04096 -0.110772,-0.09102 z m -0.237894,-0.8966 c -0.185999,-0.201877 -0.407116,-0.36705 -0.491371,-0.36705 -0.08426,0 -0.292499,0.1524 -0.462764,0.338667 -0.34883,0.381614 -0.562522,0.448853 -0.47089,0.148166 0.03193,-0.104775 0.110696,-0.250649 0.175039,-0.324166 0.155395,-0.177554 0.148805,-0.538859 -0.01227,-0.672536 -0.11424,-0.09481 -0.109555,-0.118142 0.04033,-0.200867 0.19195,-0.105939 0.681585,-1.000459 0.681585,-1.245195 0,-0.103342 0.05941,-0.160735 0.166387,-0.160735 0.09151,0 0.296568,-0.1143 0.455677,-0.254 0.159109,-0.1397 0.35216,-0.254 0.428999,-0.254 0.07684,0 0.279761,-0.05852 0.450937,-0.13004 l 0.311227,-0.130039 -0.176367,0.193539 c -0.194868,0.213843 -0.36686,0.517447 -0.36686,0.647593 0,0.150465 0.261333,0.35028 0.458124,0.35028 0.123615,0 0.227035,0.07683 0.290285,0.21565 0.147511,0.32375 0.125616,0.412871 -0.209186,0.851485 -0.222118,0.29099 -0.321983,0.520948 -0.359833,0.82858 -0.04813,0.391217 -0.07345,0.43011 -0.311633,0.478763 -0.227686,0.04651 -0.300407,0.0083 -0.597423,-0.314095 z m 0.650904,-0.966371 c 0.18122,-0.286323 -0.04955,-0.670679 -0.402684,-0.670679 -0.117734,0 -0.220195,-0.06147 -0.246987,-0.148166 -0.146446,-0.473925 -0.418209,-0.589975 -0.508841,-0.217292 -0.03189,0.131152 -0.109455,0.313611 -0.172358,0.405464 -0.161145,0.235311 -0.143316,0.362076 0.08271,0.588104 0.166055,0.166054 0.273817,0.19439 0.684535,0.179997 0.313673,-0.01099 0.514609,-0.05999 0.563624,-0.137428 z m -2.983122,-0.851324 c -0.29185,-0.106894 -0.361522,-0.301006 -0.197751,-0.550951 0.159456,-0.243362 0.469353,-0.260185 0.671811,-0.03647 0.154416,0.170628 0.118,0.495135 -0.06942,0.618604 -0.112766,0.07429 -0.117714,0.07391 -0.404639,-0.03118 z m 12.205883,-0.115688 c -0.06075,-0.0732 -0.06898,-0.127 -0.01943,-0.127 0.04729,0 0.107905,0.05715 0.13471,0.127 0.0268,0.06985 0.03554,0.127 0.01942,0.127 -0.01612,0 -0.07674,-0.05715 -0.13471,-0.127 z m -6.260892,-0.489812 c -0.0024,-0.03656 0.0584,-0.162385 0.135203,-0.279601 0.131593,-0.200837 0.129838,-0.226386 -0.03043,-0.443159 -0.09354,-0.12652 -0.19718,-0.315442 -0.23031,-0.419828 -0.03313,-0.104384 -0.175873,-0.249588 -0.317206,-0.322674 -0.233614,-0.120807 -0.294148,-0.120722 -0.666074,9.32e-4 -0.626204,0.204821 -0.863902,0.173665 -1.271198,-0.166622 -0.197778,-0.165239 -0.402778,-0.283864 -0.455554,-0.263612 -0.06312,0.02422 -0.0849,-0.05787 -0.06365,-0.239899 0.01777,-0.152196 -0.0094,-0.30252 -0.06046,-0.334052 -0.168518,-0.104149 -0.103244,-0.228237 0.071,-0.134981 0.09007,0.0482 0.274855,0.08765 0.41063,0.08765 0.144062,0 0.401998,0.113173 0.619399,0.27177 0.36293,0.264762 0.628705,0.336828 1.696419,0.459994 0.379088,0.04373 0.394327,0.05641 0.444424,0.369697 0.02853,0.178429 0.0301,0.381155 0.0035,0.450502 -0.02661,0.06935 0.0125,0.243825 0.08692,0.387728 0.1121,0.21678 0.114921,0.261642 0.01645,0.261642 -0.06537,0 -0.178646,0.08572 -0.251733,0.1905 -0.07309,0.104775 -0.134884,0.160585 -0.137327,0.124021 z m -4.856302,-1.84793 c -0.122887,-0.07149 -0.132744,-0.113167 -0.05027,-0.212544 0.06175,-0.07441 0.09554,-0.341318 0.08489,-0.670499 -0.01639,-0.506211 -0.0044,-0.546882 0.161668,-0.546882 0.595759,0 0.892715,0.57943 0.468123,0.913416 -0.114465,0.09004 -0.253931,0.264253 -0.309924,0.387145 -0.113165,0.248369 -0.135751,0.256612 -0.354487,0.129364 z m 8.407861,-8.13e-4 C 26.886036,28.720806 26.695536,28.595769 26.57912,28.489224 26.462703,28.38268 26.130503,28.209208 25.840896,28.103732 25.264561,27.893827 25.1803,27.825217 25.098477,27.499204 c -0.08747,-0.348485 0.256837,-0.527007 0.872116,-0.452196 0.26484,0.0322 0.58886,0.113146 0.720044,0.179876 0.131185,0.06673 0.302635,0.108645 0.381,0.09314 0.07843,-0.01551 0.181496,0.04879 0.229269,0.143053 0.04773,0.09418 0.176474,0.184056 0.286093,0.199724 0.187769,0.02684 0.196355,0.0538 0.148326,0.465666 -0.03511,0.301117 -0.10731,0.483294 -0.231972,0.585347 -0.204866,0.16771 -0.211347,0.168399 -0.5009,0.05328 z M 38.300468,28.39901 c -0.15781,-0.119361 -0.155361,-0.124414 0.06156,-0.127 0.293673,-0.0035 0.50514,0.07973 0.445942,0.175512 -0.07102,0.114919 -0.323311,0.0908 -0.507502,-0.04851 z M 22.215893,27.319531 c -0.06483,-0.220312 -0.132889,-0.283708 -0.328509,-0.306012 -0.155915,-0.01778 -0.273192,0.01914 -0.318608,0.100295 -0.06199,0.110767 -0.121202,0.100222 -0.430597,-0.07668 -0.197299,-0.112809 -0.492076,-0.210755 -0.655059,-0.217658 -0.19952,-0.0084 -0.234102,-0.02454 -0.105851,-0.04924 0.215108,-0.04143 0.698518,-0.690035 0.698518,-0.937216 0,-0.200875 -0.255903,-0.442367 -0.468764,-0.442367 -0.0875,0 -0.300139,0.137724 -0.472524,0.306053 -0.172384,0.16833 -0.353491,0.281293 -0.402457,0.251031 -0.04897,-0.03026 -0.114523,-0.196562 -0.145682,-0.369554 -0.07463,-0.414314 -0.174193,-0.526196 -0.468273,-0.526196 -0.275935,0 -0.293487,-0.05623 -0.123391,-0.395306 0.06613,-0.131832 0.157244,-0.334944 0.202467,-0.451361 l 0.08222,-0.211667 0.09387,0.238345 c 0.05163,0.13109 0.09386,0.342545 0.09386,0.4699 0,0.291819 0.140434,0.434755 0.427144,0.434755 0.272348,0 0.50419,-0.236916 0.50419,-0.515225 0,-0.113058 0.03792,-0.337785 0.08427,-0.499392 0.11407,-0.397743 0.05427,-0.535896 -0.346884,-0.801367 -0.385783,-0.255299 -0.665559,-0.255701 -0.793601,-0.0011 -0.07683,0.152747 -0.120779,0.162366 -0.383119,0.08384 -0.49034,-0.146767 -0.677333,-0.287953 -0.677333,-0.511409 0,-0.237279 -0.255157,-0.435238 -0.667216,-0.51765 -0.179166,-0.03583 -0.303101,-0.123169 -0.350063,-0.246687 -0.09625,-0.253169 -0.405916,-0.462303 -0.684526,-0.462303 -0.123637,0 -0.272225,-0.05715 -0.330195,-0.127 -0.141496,-0.170491 -0.45094,-0.160544 -0.65842,0.02117 -0.201846,0.176774 -0.35758,0.615549 -0.35758,1.007467 0,0.221485 -0.035,0.283699 -0.159596,0.283699 -0.233733,0 -0.433071,-0.363598 -0.433071,-0.789936 0,-0.250131 -0.05836,-0.446751 -0.177587,-0.598327 -0.145638,-0.185148 -0.182565,-0.368519 -0.205253,-1.01922 -0.03054,-0.876016 -0.169851,-1.264689 -0.508605,-1.419036 -0.113281,-0.05161 -0.22915,-0.166891 -0.257486,-0.256171 -0.06189,-0.194998 -0.518317,-0.488552 -0.760302,-0.488993 -0.227967,-4.23e-4 -0.376766,-0.157062 -0.376766,-0.396637 0,-0.23274 -0.36434,-0.358588 -0.604297,-0.208732 -0.207074,0.12932 -0.578669,0.123794 -0.590408,-0.0088 -0.0052,-0.05821 -0.002,-0.194696 0.007,-0.303306 0.01329,-0.160608 -0.02052,-0.193223 -0.181128,-0.174708 -0.108611,0.01252 -0.288652,-0.0077 -0.400092,-0.04491 -0.121985,-0.04075 -0.332593,-0.02478 -0.529216,0.04011 -0.2462012,0.08125 -0.3777592,0.08447 -0.5344362,0.01309 -0.182763,-0.08327 -0.250125,-0.05937 -0.558295,0.198099 -0.1927504,0.161039 -0.4027288,0.292797 -0.4666183,0.292797 -0.06389,0 -0.3056255,-0.168269 -0.5371905,-0.373932 -0.322961,-0.286835 -0.5321126,-0.396993 -0.8979468,-0.47294 -0.4592858,-0.09535 -0.4893412,-0.0904 -0.8128861,0.133817 -0.1847817,0.128054 -0.4475635,0.359927 -0.5839595,0.515274 -0.3436195,0.39136 -0.6850282,0.386854 -1.0520922,-0.01389 -0.3402004,-0.371412 -0.7176509,-0.403533 -0.9949022,-0.08467 -0.2197977,0.252789 -0.6426551,0.283397 -0.9682156,0.07008 -0.131402,-0.0861 -0.412441,-0.14706 -0.7171182,-0.155557 -0.4261098,-0.01188 -0.5683625,-0.06034 -0.9512977,-0.324081 -0.2476496,-0.170561 -0.52685594,-0.31011 -0.62046184,-0.31011 -0.2643367,0 -0.3004882,-0.09756 -0.1109248,-0.299339 0.1475404,-0.157049 0.1589446,-0.217298 0.07571,-0.399977 -0.053914,-0.118313 -0.2478191,-0.282651 -0.4309168,-0.365217 -0.2527742,-0.113985 -0.3268547,-0.192447 -0.3077692,-0.32597 0.023794,-0.166463 0.084732,-0.177111 1.14126924,-0.199437 l 1.1161335,-0.02358 0.287903,0.252782 c 0.2277951,0.200007 0.2805987,0.30255 0.252917,0.491157 -0.037569,0.255975 0.2190488,0.57774 0.4100023,0.514088 0.056405,-0.0188 0.1922789,0.05554 0.3019421,0.165204 0.1096632,0.109663 0.2345441,0.17766 0.277513,0.151103 0.042969,-0.02656 0.2807746,-0.05222 0.528457,-0.05703 0.5888151,-0.01144 0.7640548,-0.106507 0.7305725,-0.396326 -0.02509,-0.217176 -0.048986,-0.227705 -0.5448163,-0.240052 -0.2852164,-0.0071 -0.6281164,-0.07225 -0.762,-0.144777 -0.2289112,-0.124002 -0.2318319,-0.132065 -0.048987,-0.135253 0.1238762,-0.0022 0.2459128,-0.09308 0.3362807,-0.250537 0.1870877,-0.325981 0.4985582,-0.364748 1.0107848,-0.125807 0.7014296,0.327199 2.5280893,0.437073 3.0229952,0.181832 0.089008,-0.04591 0.4076427,-0.134893 0.7080781,-0.197752 0.6951116,-0.145437 0.7954236,-0.230869 0.7787156,-0.663206 -0.02264,-0.585859 -0.0074,-0.641253 0.175912,-0.641253 0.374958,0 0.66432,0.241363 0.7848262,0.654642 0.09779,0.335363 0.174179,0.429282 0.481254,0.591666 0.499132,0.263948 0.739547,0.242656 1.175797,-0.10413 0.414093,-0.329172 0.440854,-0.338043 0.584985,-0.193912 0.154028,0.154029 0.125541,0.220339 -0.157557,0.366734 -0.206573,0.106823 -0.253815,0.180275 -0.232833,0.362008 0.02474,0.214323 0.05527,0.229507 0.509237,0.253266 0.480045,0.02513 0.484254,0.02325 0.708679,-0.315881 0.227515,-0.343796 0.227999,-0.35143 0.06372,-1.004609 -0.03279,-0.130354 3.39e-4,-0.230568 0.100347,-0.303705 0.10507,-0.07683 0.137935,-0.186446 0.110975,-0.370138 -0.02451,-0.166996 0.015,-0.331646 0.109706,-0.457204 l 0.14801,-0.196221 0.225371,0.210575 c 0.123954,0.115817 0.279879,0.315351 0.3465,0.443409 0.103394,0.198741 0.173499,0.232557 0.478789,0.23095 0.427467,-0.0023 0.659829,-0.167153 0.902623,-0.640575 l 0.177509,-0.346125 -0.209945,-0.474724 c -0.231016,-0.52237 -0.3982,-0.653359 -0.833888,-0.653359 -0.258009,0 -0.285989,-0.02181 -0.252534,-0.196815 0.05694,-0.297872 -0.344798,-0.734519 -0.675799,-0.734519 -0.143535,0 -0.330896,-0.06328 -0.416357,-0.14062 -0.13021,-0.117838 -0.234098,-0.128126 -0.64121,-0.0635 -0.41143,0.06531 -0.502979,0.113128 -0.597842,0.312262 l -0.112016,0.235141 -0.152786,-0.18868 c -0.143394,-0.177086 -0.179109,-0.182605 -0.581119,-0.08981 -0.3502,0.08084 -0.506514,0.07565 -0.856924,-0.02841 -0.5040552,-0.149688 -0.6837192,-0.412412 -0.6837192,-0.999801 0,-0.2317999 -0.05171,-0.4308649 -0.133048,-0.5122049 -0.157288,-0.157288 -0.469383,-0.174083 -0.6106078,-0.03286 -0.055104,0.05511 -0.1103494,0.08368 -0.1227667,0.0635 C 8.7277933,9.2780361 8.62979,9.0119481 8.62979,8.7711381 c 0,-0.384242 -0.2019249,-0.622009 -0.7646111,-0.90033 -0.3782005,-0.187072 -0.4676521,-0.274226 -0.5139893,-0.50079 -0.073247,-0.358139 -0.3042943,-0.606032 -0.5648473,-0.606032 -0.1146935,0 -0.3377751,-0.113476 -0.4957368,-0.252168 C 6.1326437,6.3731251 5.7070944,6.1212691 5.3449403,5.9521371 4.8842851,5.7370031 4.6317259,5.5610981 4.5042178,5.3665831 4.3898355,5.1920911 4.1819347,5.0350661 3.9459807,4.9449551 3.422205,4.7449231 3.2404896,4.2644771 3.465133,3.6736211 3.5744319,3.3861421 3.4462379,3.1374431 3.1323552,3.0280231 2.922218,2.9547681 2.4491209,2.3739281 2.4491209,2.1891881 c 0,-0.03975 0.081354,-0.129249 0.180786,-0.198894 0.1647138,-0.11537 0.2174024,-0.107482 0.5926666,0.08874 0.3498805,0.182947 0.4118807,0.252674 0.4118807,0.463212 0,0.395679 0.2208113,0.824245 0.482434,0.936342 0.4305995,0.184499 1.4151826,0.969697 1.8638249,1.486388 0.318731,0.367076 0.5949747,0.582324 0.9948333,0.775172 0.440627,0.212511 0.5535743,0.306191 0.5535743,0.459145 0,0.282464 0.1592297,0.39536 0.5576197,0.39536 0.3177904,0 0.3681332,0.0289 0.4871152,0.279635 0.2425996,0.511241 0.4032148,0.594903 1.0160962,0.529269 l 0.5432722,-0.05818 0.187862,0.388072 c 0.103325,0.213441 0.269877,0.431231 0.370115,0.48398 0.194186,0.102186 0.305843,0.232887 0.307957,0.360481 6.77e-4,0.04304 -0.08443,0.0011 -0.189204,-0.09324 -0.315014,-0.283589 -0.403384,-0.306497 -0.576835,-0.149526 -0.210162,0.190194 -0.215161,0.642292 -0.0092,0.828716 0.08516,0.07707 0.293416,0.140122 0.462794,0.140122 0.169379,0 0.444518,0.06512 0.61142,0.14471 0.251479,0.119922 0.332845,0.126359 0.475005,0.03758 0.271958,-0.169841 0.973077,-0.22002 1.34752,-0.09644 0.297683,0.09824 0.352794,0.09372 0.501933,-0.04125 0.154667,-0.139971 0.229567,-0.143406 0.975175,-0.04472 0.712464,0.0943 0.81306,0.128492 0.853635,0.290159 0.08296,0.330533 0.325199,0.4086589 0.815574,0.263034 0.535194,-0.158936 0.799789,-0.32625 0.871061,-0.550807 0.09532,-0.300335 0.212383,-0.184912 0.212383,0.209411 0,0.20955 -0.03198,0.381 -0.07108,0.381 -0.102461,0 -0.267591,0.3954369 -0.267591,0.6407989 0,0.141812 0.06902,0.240944 0.213618,0.306829 0.180874,0.08241 0.252254,0.06877 0.465667,-0.08902 0.245234,-0.181309 0.252048,-0.181805 0.252048,-0.01833 0,0.09241 -0.09787,0.265891 -0.217493,0.385512 -0.119622,0.119623 -0.20449,0.283279 -0.188597,0.363683 0.01609,0.08139 -0.04701,0.187313 -0.14234,0.238965 -0.141258,0.07653 -0.212204,0.05504 -0.405246,-0.1228 -0.219409,-0.202128 -0.242907,-0.206679 -0.376645,-0.07294 -0.112206,0.112206 -0.125083,0.192593 -0.06036,0.376799 0.08442,0.240261 0.157887,0.266926 1.144203,0.415304 0.344041,0.05176 0.58514,-0.117461 0.58514,-0.410687 0,-0.182762 0.21721,-0.398128 0.406209,-0.40276 0.06043,-0.0015 0.19791,0.0923 0.305507,0.208396 0.181101,0.195412 0.188661,0.241652 0.10179,0.622597 -0.05161,0.226329 -0.14065,0.467637 -0.197863,0.536238 -0.05721,0.0686 -0.162498,0.264683 -0.233969,0.435737 -0.07147,0.171053 -0.18068,0.311006 -0.242688,0.311006 -0.06201,0 -0.181701,0.0762 -0.265986,0.169334 -0.09884,0.109216 -0.261304,0.169531 -0.457623,0.169891 -0.167407,3.38e-4 -0.418677,0.07626 -0.558377,0.168775 -0.189954,0.125801 -0.397612,0.168358 -0.823548,0.168776 -0.513982,5.08e-4 -0.583097,0.02124 -0.708418,0.2125 -0.148186,0.226161 -0.252263,1.366057 -0.140016,1.533517 0.03482,0.05195 0.22524,0.176552 0.423149,0.276888 0.197908,0.100335 0.359833,0.238803 0.359833,0.307706 0,0.159606 -0.153652,0.158567 -0.541927,-0.0037 -0.311373,-0.130099 -0.643406,-0.06202 -0.643406,0.131924 0,0.164508 -0.244314,0.076 -0.300359,-0.108812 -0.151217,-0.498646 -0.643547,-0.714211 -1.023454,-0.448115 -0.258016,0.180722 -0.419743,0.820964 -0.287826,1.139441 0.173118,0.417943 0.374613,0.545083 0.764948,0.482666 0.375221,-0.06 0.39896,-0.0476 0.982128,0.512859 0.202215,0.194343 0.454491,0.380288 0.560613,0.413211 0.106122,0.03292 0.357476,0.210473 0.558563,0.394554 0.359551,0.329144 0.374993,0.334225 0.931334,0.306456 0.559853,-0.02795 0.565993,-0.02587 0.592119,0.20055 0.03593,0.311414 0.317828,0.395947 0.54911,0.164664 0.149936,-0.149936 0.160493,-0.205586 0.07472,-0.393847 -0.153569,-0.337047 -0.120097,-0.588078 0.111774,-0.838271 0.347853,-0.37534 0.257943,-0.535509 -0.381,-0.678726 -0.43068,-0.09654 -0.456846,-0.168203 -0.197935,-0.542154 0.225438,-0.325608 0.365586,-0.435864 0.368565,-0.289954 0.0046,0.226088 0.193209,0.310101 0.746063,0.332347 0.730457,0.02939 0.883161,-0.08685 0.56503,-0.430119 -0.116447,-0.125649 -0.211723,-0.30904 -0.211723,-0.407535 0,-0.215946 0.05418,-0.17033 0.240246,0.202275 0.129063,0.258453 0.18295,0.286987 0.648754,0.343526 0.688073,0.08352 1.030689,0.01691 1.193855,-0.232117 0.179714,-0.274279 0.842873,-0.647653 1.261478,-0.710242 0.290057,-0.04337 0.338667,-0.08066 0.338667,-0.259802 0,-0.127286 -0.06896,-0.243548 -0.176168,-0.296995 -0.09689,-0.04831 -0.160904,-0.133623 -0.142247,-0.189592 0.02071,-0.06214 0.221187,0.04525 0.514835,0.275775 0.274277,0.21532 0.571861,0.378119 0.69258,0.378888 0.258903,0.0017 0.47736,0.124707 0.355305,0.200141 -0.127922,0.07906 -0.075,1.531282 0.06181,1.696129 0.158362,0.190815 0.566331,0.167037 0.778758,-0.04539 0.151363,-0.151364 0.172128,-0.245314 0.130989,-0.592667 -0.02835,-0.239345 -0.01499,-0.412789 0.03179,-0.412789 0.04437,0 0.152131,-0.07145 0.239462,-0.158784 0.135073,-0.135073 0.152338,-0.248857 0.115623,-0.762 -0.04253,-0.594469 -0.04017,-0.603216 0.16295,-0.603216 0.11336,0 0.242305,0.03487 0.286543,0.0775 0.04424,0.04262 0.175684,0.09025 0.2921,0.105834 0.170947,0.02289 0.272828,0.155443 0.529592,0.689055 0.254824,0.529581 0.368608,0.678387 0.573287,0.749738 0.313866,0.109415 0.421121,0.29719 0.421121,0.737271 0,0.277504 -0.03434,0.348941 -0.1905,0.396298 -0.475126,0.144084 -0.728761,0.649058 -0.4445,0.884974 0.192154,0.159473 0.152431,0.54945 -0.08467,0.831226 -0.255115,0.303187 -0.265252,0.470942 -0.04535,0.750502 0.153317,0.19491 0.156013,0.227162 0.0345,0.412613 -0.193172,0.294818 -0.202573,1.256281 -0.01413,1.445424 0.127858,0.128333 0.196901,0.133128 0.604269,0.04196 0.494675,-0.110703 0.76568,-0.327827 0.718437,-0.575596 -0.0162,-0.08496 -0.114789,-0.166641 -0.219089,-0.181521 -0.134894,-0.01925 -0.189635,-0.08446 -0.189635,-0.225909 0,-0.109369 -0.02223,-0.256794 -0.04941,-0.32761 -0.06812,-0.177517 0.502458,-0.324323 0.997043,-0.256533 l 0.379002,0.05195 -0.155318,0.304649 c -0.08543,0.167556 -0.155319,0.353741 -0.155319,0.413745 0,0.06 -0.05581,0.109098 -0.124021,0.109098 -0.06821,0 -0.168533,0.08317 -0.222938,0.184828 -0.08422,0.157362 -0.07069,0.207686 0.09107,0.338666 0.256008,0.207302 0.547279,0.193939 0.697292,-0.03199 0.104929,-0.158031 0.204232,-0.18653 0.663783,-0.1905 0.53936,-0.0047 0.540752,-0.0053 0.72763,-0.33843 0.104339,-0.185992 0.318653,-0.401183 0.484059,-0.486042 0.163252,-0.08375 0.320589,-0.190734 0.349638,-0.237737 0.02905,-0.047 0.09819,-0.08548 0.153653,-0.08551 0.06825,-3.5e-5 0.09151,0.134478 0.07198,0.416238 -0.0242,0.349033 -10e-4,0.431177 0.143317,0.508436 0.123135,0.0659 0.179587,0.193967 0.198192,0.449615 0.01997,0.2744 0.07154,0.380045 0.221916,0.454616 0.107745,0.05343 0.303411,0.200148 0.434812,0.326039 0.170405,0.163257 0.308455,0.220943 0.481434,0.201167 0.212958,-0.02435 0.245716,-0.06627 0.268723,-0.343951 0.0152,-0.183412 0.08971,-0.36121 0.177419,-0.423333 0.08317,-0.05891 0.208256,-0.216582 0.277969,-0.350383 0.101161,-0.194159 0.249481,-0.282186 0.734656,-0.436012 0.730994,-0.231764 1.027421,-0.412973 1.027421,-0.628073 0,-0.237799 0.09183,-0.433871 0.178205,-0.38049 0.04169,0.02576 0.07579,0.116131 0.07579,0.200813 0,0.225669 0.218415,0.371326 0.464279,0.309618 0.156789,-0.03935 0.289667,-0.206606 0.506991,-0.638155 0.161982,-0.321654 0.333563,-0.60896 0.381288,-0.638456 0.132659,-0.08199 0.103353,-0.392984 -0.05335,-0.566136 -0.130629,-0.144343 -0.130177,-0.154833 0.0067,-0.154833 0.279237,0 1.152451,0.459394 1.126537,0.592666 -0.01515,0.0779 -0.105513,0.120499 -0.23372,0.110185 -0.114963,-0.0092 -0.29845,0.0019 -0.407748,0.02484 -0.193237,0.04051 -0.197085,0.05851 -0.139367,0.651816 0.03561,0.366005 0.126041,0.719749 0.226004,0.88404 0.09165,0.150636 0.144838,0.342593 0.118184,0.426569 -0.02665,0.08398 0.02431,0.295423 0.113255,0.469879 0.198763,0.389863 0.109884,0.833109 -0.208941,1.042012 -0.192358,0.126038 -0.253081,0.124766 -0.798638,-0.01673 -0.568947,-0.147566 -0.608236,-0.147591 -1.078779,-6.77e-4 -0.570145,0.177973 -0.699994,0.266732 -0.699994,0.478481 0,0.310883 -0.197838,0.596218 -0.448092,0.646269 -0.149573,0.02992 -0.306631,0.147845 -0.398848,0.299484 -0.08366,0.137577 -0.27023,0.321967 -0.414589,0.409757 -0.14436,0.08779 -0.262434,0.188754 -0.262388,0.224363 4.5e-5,0.03561 -0.344025,0.056 -0.764604,0.04531 -0.740283,-0.01882 -0.767738,-0.01274 -0.860339,0.1905 -0.09788,0.214825 -0.430571,0.29285 -0.53414,0.125271 -0.09689,-0.156775 -0.33761,-0.08637 -0.578952,0.169333 -0.15147,0.160483 -0.324018,0.254 -0.468656,0.254 -0.125907,0 -0.378383,0.0762 -0.561059,0.169333 -0.182676,0.09313 -0.420117,0.169333 -0.527647,0.169333 -0.135484,0 -0.277959,0.116974 -0.464063,0.381 -0.232645,0.330057 -0.308902,0.381 -0.570313,0.381 -0.165969,0 -0.425334,0.03544 -0.576369,0.07876 -0.242054,0.06942 -0.274608,0.05938 -0.274608,-0.08467 0,-0.134967 0.06064,-0.163423 0.348277,-0.163423 0.335332,0 0.346461,-0.0087 0.299439,-0.232833 -0.02686,-0.128059 -0.07407,-0.366184 -0.104913,-0.529167 -0.03084,-0.162983 -0.09406,-0.343958 -0.140473,-0.402166 -0.10748,-0.13478 -0.440689,-0.136188 -0.654332,-0.0028 -0.210127,0.131226 -0.933756,-0.03858 -1.060331,-0.248819 -0.283858,-0.471478 -0.423715,-0.532927 -1.132973,-0.497793 -0.371436,0.0184 -0.716143,0.05867 -0.766016,0.08949 -0.157657,0.09744 -0.09846,0.385584 0.120989,0.588967 0.340915,0.315949 0.280282,0.470793 -0.1905,0.486496 -0.625379,0.02086 -0.686231,0.0044 -1.041942,-0.281432 -0.324639,-0.260915 -0.333891,-0.283044 -0.333891,-0.798604 v -0.530252 l 0.23778,0.06819 c 0.130778,0.03751 0.357486,0.130097 0.503795,0.205756 0.378678,0.195823 0.516526,0.172327 0.680529,-0.115994 0.0951,-0.167177 0.233911,-0.270577 0.407479,-0.30352 0.185,-0.03511 0.357582,-0.173661 0.580607,-0.466111 0.218706,-0.286787 0.37817,-0.416146 0.512993,-0.416146 0.107598,0 0.2559,-0.02313 0.329559,-0.05139 0.08788,-0.03372 0.133925,-0.0046 0.133925,0.08467 0,0.09833 -0.07995,0.136059 -0.288289,0.136059 -0.252092,0 -0.316282,0.04777 -0.51126,0.380473 -0.270658,0.461842 -0.201382,0.66964 0.266298,0.798772 0.171282,0.04729 0.396871,0.191836 0.501309,0.321205 0.156456,0.193805 0.216823,0.218781 0.342887,0.141865 0.188382,-0.114939 0.274116,-0.580354 0.302532,-1.642315 0.02017,-0.753774 0.0111,-0.80341 -0.144292,-0.789633 -0.217008,0.01924 -0.469185,-0.118851 -0.469185,-0.256921 0,-0.0601 -0.09525,-0.198745 -0.211667,-0.308113 -0.161814,-0.152016 -0.211667,-0.284171 -0.211667,-0.561108 0,-0.199242 -0.04588,-0.462956 -0.101958,-0.586032 -0.08668,-0.190249 -0.08034,-0.235872 0.04233,-0.304524 0.158305,-0.08859 0.191157,-0.33027 0.0624,-0.45903 -0.13169,-0.131689 -0.0035,-0.441441 0.204324,-0.493594 0.178474,-0.04479 0.194942,-0.107422 0.249295,-0.948148 0.05054,-0.781763 0.03773,-0.939634 -0.09741,-1.200043 -0.154623,-0.297952 -0.154375,-0.301094 0.03904,-0.494507 0.335075,-0.335075 0.215932,-0.795014 -0.20594,-0.795014 -0.200091,0 -0.223604,0.03305 -0.312202,0.438857 -0.02728,0.124955 -0.125625,0.251319 -0.218541,0.28081 -0.20934,0.06644 -0.30649,0.41699 -0.183655,0.66269 0.151393,0.302823 0.142869,0.677391 -0.02106,0.925473 l -0.154293,0.233495 -0.328739,-0.296995 c -0.357207,-0.322715 -0.584156,-0.371735 -0.756974,-0.163502 -0.09225,0.111152 -0.08582,0.179865 0.03843,0.41058 0.133413,0.247733 0.136471,0.307588 0.02887,0.565006 -0.06619,0.158356 -0.187371,0.343504 -0.269285,0.41144 -0.400444,0.332111 -0.308045,0.79528 0.212336,1.064381 0.241872,0.125076 0.275233,0.122051 0.55399,-0.05023 0.16314,-0.100826 0.308192,-0.169449 0.322337,-0.152496 0.01414,0.01695 0.04898,0.153105 0.07741,0.302559 0.05052,0.265556 0.03491,0.282091 -0.686338,0.72734 -0.592064,0.365496 -0.756733,0.511953 -0.832595,0.740509 -0.05201,0.156697 -0.137735,0.299294 -0.1905,0.316882 -0.137832,0.04594 -0.119969,-0.03383 0.08881,-0.396588 l 0.184746,-0.321005 -0.178953,-0.361696 c -0.176966,-0.357678 -0.177137,-0.363644 -0.01541,-0.537234 0.08995,-0.09655 0.163539,-0.263495 0.163539,-0.370997 0,-0.20485 -0.54249,-0.873279 -0.708745,-0.873279 -0.05301,0 -0.229548,-0.174483 -0.392314,-0.38774 -0.388432,-0.508923 -1.087999,-1.321063 -1.249126,-1.450132 -0.19223,-0.153985 -0.605863,0.08695 -0.666069,0.387976 -0.03384,0.169199 -0.125045,0.264283 -0.321717,0.335401 -0.150968,0.05459 -0.327353,0.198033 -0.391963,0.318761 -0.104587,0.19542 -0.0982,0.254694 0.0582,0.54023 0.119736,0.218594 0.151513,0.363905 0.09979,0.456326 -0.199817,0.357055 0.345027,0.718023 0.838141,0.555281 0.159396,-0.0526 0.296783,-0.08232 0.305304,-0.06604 0.0085,0.01628 0.08833,0.162955 0.177359,0.325938 0.08903,0.162983 0.192359,0.467783 0.229628,0.677333 0.03727,0.20955 0.09369,0.512402 0.125383,0.673004 0.05359,0.271591 0.02916,0.316695 -0.349564,0.645244 l -0.407183,0.353242 0.08243,1.065703 c 0.06162,0.79664 0.118621,1.105693 0.225769,1.224089 0.07883,0.08711 0.143336,0.233041 0.143336,0.324289 0,0.186861 0.678072,0.794429 0.886616,0.794429 0.122833,0 0.278327,0.221833 0.203344,0.290094 -0.0174,0.01584 -0.147229,0.05351 -0.288521,0.08373 -0.235203,0.0503 -0.263799,0.03147 -0.338666,-0.222944 z m 12.809749,-3.728046 c 0.135002,-0.167584 0.209887,-0.633559 0.111582,-0.694316 -0.138933,-0.08587 -0.599438,0.302571 -0.599438,0.505627 0,0.0999 0.0254,0.207033 0.05644,0.238077 0.09249,0.09249 0.339938,0.06416 0.431411,-0.04939 z M 19.57942,22.286869 c 0.473981,-0.04476 0.600733,-0.08933 0.704517,-0.24772 0.09924,-0.151467 0.105716,-0.232074 0.02999,-0.373565 -0.07285,-0.136121 -0.07201,-0.210009 0.0034,-0.300912 0.167685,-0.202049 0.02691,-0.476086 -0.574065,-1.11752 -0.475883,-0.50792 -0.620691,-0.613834 -0.839245,-0.613834 -0.188308,0 -0.303939,0.06076 -0.402817,0.211667 -0.09732,0.148525 -0.215052,0.211667 -0.394675,0.211667 -0.195746,0 -0.289927,0.05965 -0.400215,0.253464 -0.07933,0.139406 -0.210026,0.253706 -0.290444,0.254 -0.167779,5.93e-4 -0.365922,0.272877 -0.45136,0.620201 -0.05828,0.23693 -0.05638,0.23823 0.261859,0.178528 0.253979,-0.04765 0.39689,-0.01845 0.687976,0.140565 0.202074,0.110388 0.367407,0.243987 0.367407,0.296889 0,0.185366 0.352737,0.542346 0.535312,0.54175 0.101395,-3.38e-4 0.444439,-0.02516 0.76232,-0.05518 z m -3.124891,-1.434943 c 0.144268,-0.05536 0.182883,-0.33169 0.05721,-0.409362 -0.0422,-0.02608 -0.05675,-0.123779 -0.03234,-0.217114 0.04343,-0.166093 -0.0986,-0.422798 -0.233928,-0.422798 -0.03754,0 -0.128123,0.05987 -0.201299,0.133047 -0.192235,0.192235 -0.165981,0.591674 0.05225,0.794987 0.212074,0.197577 0.183974,0.188063 0.358111,0.12124 z M 8.686232,26.77354 C 8.655187,26.7425 8.629787,26.67773 8.629787,26.629606 c 0,-0.05305 0.039435,-0.04805 0.1001886,0.0127 0.055104,0.05511 0.080504,0.119875 0.056445,0.143934 -0.02406,0.02406 -0.069145,0.01834 -0.1001886,-0.0127 z M 6.4936526,26.038375 c -0.3352238,-0.152397 -0.4007447,-0.21999 -0.4021666,-0.41489 -0.0011,-0.151274 0.042789,-0.232834 0.1253014,-0.232834 0.1490581,0 0.1656583,-0.194395 0.03453,-0.404365 -0.075649,-0.121134 -0.03818,-0.205632 0.2059811,-0.464518 0.3365546,-0.356852 0.4190736,-0.372996 0.9075384,-0.177551 0.2966374,0.118691 0.3378798,0.164884 0.2834732,0.3175 -0.035018,0.09823 -0.068883,0.372996 -0.075254,0.610589 -0.012593,0.469619 -0.2165674,0.832111 -0.5096027,0.905638 -0.093133,0.02337 -0.3495439,-0.03944 -0.5698008,-0.139569 z m 11.0261344,-0.35139 c 0,-0.06985 0.05595,-0.127 0.124343,-0.127 0.07574,0 0.105294,0.04964 0.07561,0.127 -0.0268,0.06985 -0.08276,0.127 -0.124343,0.127 -0.04158,0 -0.07561,-0.05715 -0.07561,-0.127 z m 5.439833,-1.004139 c -0.114483,-0.0567 -0.1905,-0.17158 -0.1905,-0.28789 0,-0.186984 0.0072,-0.188842 0.211667,-0.05485 0.116416,0.07628 0.211666,0.210507 0.211666,0.298285 0,0.08778 -0.0095,0.154918 -0.02117,0.1492 -0.01164,-0.0057 -0.106892,-0.05285 -0.211667,-0.104743 z M 3.6513875,23.003051 c -0.05588,-0.05588 -0.1016,-0.209097 -0.1016,-0.340482 0,-0.471877 0.6787181,-0.536746 0.747637,-0.07146 0.053743,0.362837 -0.4035507,0.654425 -0.646037,0.411938 z M 22.764352,21.847816 c -0.165885,-0.134326 -0.167554,-0.154665 -0.03812,-0.464453 l 0.135365,-0.323975 0.207405,0.408798 c 0.114073,0.224839 0.207565,0.41388 0.207759,0.420091 1.7e-4,0.0062 -0.07598,0.03125 -0.169287,0.05565 -0.0933,0.0244 -0.24771,-0.01885 -0.343126,-0.09612 z m 11.138434,-1.791164 c 0.02878,-0.04657 0.09043,-0.08467 0.136993,-0.08467 0.04657,0 0.06112,0.0381 0.03234,0.08467 -0.02878,0.04657 -0.09043,0.08467 -0.136993,0.08467 -0.04657,0 -0.06112,-0.0381 -0.03234,-0.08467 z m 3.328458,-0.819837 c 0.06112,-0.02446 0.134144,-0.02145 0.162278,0.0067 0.02813,0.02813 -0.02187,0.04814 -0.111125,0.04447 -0.09863,-0.0041 -0.118694,-0.02413 -0.05115,-0.05115 z m -7.926764,-2.023267 -0.190983,-0.13377 0.206665,-0.162563 c 0.297693,-0.234165 0.391624,-0.20208 0.391624,0.13377 0,0.32983 -0.107336,0.37267 -0.407306,0.162563 z m 1.649084,-1.023341 c -0.110249,-0.110249 -0.05399,-0.263114 0.112889,-0.306754 0.134689,-0.03522 0.169333,-0.0026 0.169333,0.159459 0,0.191848 -0.156164,0.273353 -0.282222,0.147295 z M 27.15062,15.338308 c -0.246347,-0.02577 -0.3175,-0.07001 -0.3175,-0.197434 0,-0.20871 0.13963,-0.207511 0.486833,0.0042 0.255803,0.155966 0.359441,0.273817 0.211667,0.240696 -0.03493,-0.0078 -0.206375,-0.02918 -0.381,-0.04744 z m -5.31106,-0.317187 c -0.07215,-0.08693 -0.2629,-0.130131 -0.58364,-0.13218 -0.368843,-0.0024 -0.530237,-0.04705 -0.714521,-0.197844 -0.236148,-0.193239 -0.236936,-0.197146 -0.09842,-0.487614 0.134098,-0.281205 0.131788,-0.309131 -0.05828,-0.704485 -0.175865,-0.365815 -0.243065,-0.424725 -0.60326,-0.528833 l -0.405348,-0.11716 0.06101,-0.31401 c 0.03356,-0.172705 0.06382,-0.39021 0.06724,-0.483343 0.0096,-0.259784 0.121474,-0.381 0.351757,-0.381 0.115312,0 0.48664,-0.14675 0.825173,-0.326112 0.338533,-0.179362 0.665456,-0.342759 0.726495,-0.363105 0.125414,-0.0418 0.279472,-0.785635 0.271053,-1.3087069 -0.0031,-0.190809 0.04428,-0.415114 0.105219,-0.498456 0.09348,-0.127838 0.10635,-0.02313 0.08233,0.669586 -0.02966,0.8555449 -0.146149,1.1693969 -0.475344,1.2807529 -0.359731,0.121687 -0.49064,0.714717 -0.158019,0.715847 0.07651,2.54e-4 0.281686,0.04007 0.455949,0.08846 0.410809,0.114089 0.452742,0.292031 0.282683,1.199577 -0.171869,0.917207 -0.169079,1.142011 0.0154,1.240741 0.171219,0.09163 0.782078,0.654621 0.782078,0.720789 0,0.02424 -0.111381,-0.01984 -0.247514,-0.09797 -0.232722,-0.133565 -0.257297,-0.133201 -0.411194,0.0061 -0.145889,0.132029 -0.175327,0.134093 -0.270852,0.01899 z m 8.963484,-0.179416 c -0.370757,-0.1813 -0.393288,-0.212605 -0.447576,-0.621852 -0.03835,-0.289128 -0.110462,-0.464225 -0.21912,-0.532083 -0.212744,-0.132861 -0.06819,-0.319785 0.247298,-0.319785 0.607358,0 0.949067,-1.048269 0.465661,-1.428516 -0.182501,-0.143556 -0.202288,-0.198569 -0.124021,-0.344812 0.11644,-0.217571 0.190017,-0.218468 0.3835,-0.0047 0.209097,0.23105 0.967744,0.240433 1.172211,0.0145 0.179909,-0.198798 0.178642,-0.513201 -0.0031,-0.778828 -0.196411,-0.287008 -0.279411,-0.333543 -0.597574,-0.335043 -0.255675,-0.0012 -0.275167,-0.02148 -0.275167,-0.286211 0,-0.165104 -0.07811,-0.3842139 -0.185743,-0.5210499 -0.119657,-0.15212 -0.182452,-0.344456 -0.176494,-0.540585 0.01094,-0.360139 -0.09641,-0.494429 -0.754192,-0.943426 -0.502166,-0.342774 -0.792916,-0.406291 -1.102183,-0.240777 -0.09652,0.05165 -0.297601,0.09966 -0.44686,0.106679 -0.347266,0.01633 -0.317083,-0.208921 0.04638,-0.346112 0.207107,-0.07817 0.248121,-0.140765 0.246571,-0.376293 -10e-4,-0.155386 -0.08265,-0.453971 -0.181395,-0.663521 -0.108455,-0.230158 -0.183139,-0.565362 -0.18864,-0.846666 l -0.0091,-0.465665 -0.423333,-0.002 c -0.347308,-0.0016 -0.499453,-0.05605 -0.846714,-0.302783 -0.232833,-0.165427 -0.434971,-0.379488 -0.449195,-0.475689 -0.02937,-0.198628 0.275799,-0.447039 0.7447,-0.606197 0.255205,-0.08662 0.310052,-0.08041 0.402167,0.04557 0.05866,0.08023 0.106661,0.190598 0.106661,0.245268 0,0.19078 0.352287,0.545569 0.541721,0.545569 0.333298,0 0.558946,-0.335031 0.558946,-0.829895 0,-0.418902 -0.01475,-0.447294 -0.338667,-0.651772 -0.186266,-0.117585 -0.338666,-0.245063 -0.338666,-0.283284 0,-0.150743 0.113202,-0.167589 0.300683,-0.04475 0.108134,0.07085 0.265693,0.121632 0.350129,0.112843 0.30201,-0.03143 0.365188,0.0065 0.365188,0.219508 0,0.165337 0.06708,0.244016 0.286064,0.335512 0.467367,0.195278 0.511607,0.490886 0.137269,0.917232 -0.3358,0.382455 -0.325691,0.667711 0.07097,2.002602 0.152591,0.513519 0.701718,1.393783 0.953546,1.528557 0.09121,0.04881 0.160819,0.176403 0.160819,0.294755 0,0.255584 0.275581,0.547355 0.516982,0.547355 0.09807,0 0.253238,0.09525 0.344811,0.211666 0.195293,0.248274 0.494684,0.274222 0.688824,0.0597 0.115249,-0.127349 0.121935,-0.20277 0.04127,-0.465594 -0.112081,-0.365196 -0.06536,-0.451171 0.166493,-0.306377 0.139323,0.08701 0.315251,0.05257 1.087745,-0.212945 0.506848,-0.174207 0.987698,-0.351626 1.068558,-0.394262 0.08086,-0.04264 0.298795,-0.07752 0.484299,-0.07752 0.275426,0 0.371198,-0.04587 0.52222,-0.250144 0.101716,-0.137579 0.290725,-0.273379 0.420018,-0.301776 0.284695,-0.06253 0.415299,-0.208502 0.595967,-0.666099 0.129875,-0.328949 0.158781,-0.349729 0.5199,-0.373742 0.247055,-0.01643 0.435248,-0.08385 0.531768,-0.1905 0.08924,-0.09861 0.259262,-0.165073 0.422273,-0.165073 0.187433,0 0.311706,-0.05847 0.396864,-0.186724 l 0.12398,-0.186724 0.150084,0.229057 c 0.08255,0.125982 0.197715,0.229058 0.255929,0.229058 0.05821,0 0.209745,0.08173 0.336735,0.181619 0.240818,0.189427 0.242795,0.214916 0.07076,0.912717 -0.07378,0.299264 -0.278813,0.463754 -0.278813,0.223682 0,-0.07448 -0.127235,-0.196099 -0.282744,-0.270256 -0.259452,-0.123725 -0.304788,-0.123433 -0.550333,0.0035 -0.161754,0.08365 -0.267589,0.203771 -0.267589,0.303719 0,0.14564 -0.02522,0.153851 -0.211667,0.0689 -0.116416,-0.05304 -0.211666,-0.145316 -0.211666,-0.205051 0,-0.05974 -0.08387,-0.167354 -0.18638,-0.239154 -0.171876,-0.120386 -0.201525,-0.116317 -0.381,0.05229 -0.34484,0.323961 -0.203775,0.968522 0.230995,1.055476 0.295295,0.05906 0.454808,0.308949 0.54545,0.854491 0.07609,0.45796 -0.02215,0.502362 -0.717398,0.324247 -0.699205,-0.179127 -0.713031,-0.17706 -1.089185,0.162772 -0.180403,0.162983 -0.368852,0.296333 -0.418777,0.296333 -0.04992,0 -0.14472,0.07703 -0.210659,0.171166 -0.103038,0.147107 -0.20784,0.169934 -0.745635,0.162407 -1.108046,-0.01551 -1.1982,-0.0036 -1.397983,0.1840459 -0.113509,0.106636 -0.248753,0.159672 -0.328822,0.128946 -0.299963,-0.11511 -0.803939,0.672077 -0.803939,1.255712 0,0.262546 -0.02584,0.299053 -0.211667,0.299053 -0.23973,0 -0.269424,0.133863 -0.08735,0.393804 0.110834,0.158237 0.108539,0.191232 -0.02117,0.304292 -0.08001,0.06975 -0.231204,0.171148 -0.335979,0.225336 -0.227681,0.117756 -0.237052,0.261348 -0.05094,0.780637 l 0.140393,0.391737 -0.396079,0.514734 c -0.217843,0.283104 -0.423706,0.52899 -0.457474,0.546413 -0.03377,0.01742 -0.23708,-0.05423 -0.451805,-0.159233 z m -18.56235,-0.992313 c -0.167684,-0.1276 -0.308907,-0.505031 -0.308907,-0.825585 0,-0.227674 0.02489,-0.248488 0.297162,-0.248488 0.192389,0 0.348282,-0.0597 0.44215,-0.169334 0.07974,-0.09313 0.21272,-0.169333 0.295505,-0.169333 0.166224,0 0.205066,0.210293 0.05587,0.3025 -0.05819,0.03597 -0.07659,0.192775 -0.04777,0.407163 0.05315,0.395364 -0.05336,0.594871 -0.384887,0.720915 -0.152004,0.05779 -0.256767,0.05244 -0.349121,-0.01784 z M 38.28928,13.568039 c -0.0663,-0.172768 0.114921,-0.281807 0.471039,-0.283424 0.237354,-0.0011 0.268669,0.01902 0.185585,0.119134 -0.05497,0.06624 -0.213762,0.160107 -0.352868,0.208599 -0.206424,0.07196 -0.262265,0.06382 -0.303756,-0.04431 z m 2.556172,-0.28472 c 0.02878,-0.04657 0.06913,-0.08467 0.08966,-0.08467 0.02054,0 0.03734,0.0381 0.03734,0.08467 0,0.04657 -0.04035,0.08467 -0.08966,0.08467 -0.04931,0 -0.06612,-0.0381 -0.03734,-0.08467 z m -1.735666,-0.07467 c 0,-0.04657 0.0381,-0.108213 0.08467,-0.136993 0.04657,-0.02878 0.08467,-0.01423 0.08467,0.03234 0,0.04657 -0.0381,0.108213 -0.08467,0.136993 -0.04657,0.02878 -0.08467,0.01423 -0.08467,-0.03234 z M 28.92089,11.544708 c -0.225443,-0.207471 -0.527994,-0.407822 -0.672335,-0.445225 -0.1776,-0.04602 -0.28059,-0.135877 -0.31859,-0.277962 -0.155479,-0.581359 0.414678,-0.8252559 0.778579,-0.333054 0.102939,0.139232 0.256479,0.275149 0.341202,0.302039 0.09039,0.02869 0.15404,0.129723 0.15404,0.244511 0,0.107592 0.05715,0.332401 0.127,0.499576 0.218633,0.523262 0.149554,0.524966 -0.409896,0.01012 z m -6.263375,-0.08792 c -0.03378,-0.208184 -0.0071,-0.373415 0.08248,-0.510084 0.07711,-0.117682 0.111678,-0.284933 0.08273,-0.400265 -0.03428,-0.136569 0.03515,-0.338804 0.2235,-0.6509979 0.27862,-0.461829 0.48489,-0.626842 0.48489,-0.387906 0,0.07315 0.1524,0.2292 0.338667,0.346785 0.186266,0.117585 0.338666,0.2657969 0.338666,0.3293619 0,0.06356 0.05715,0.163001 0.127,0.220971 0.204127,0.16941 0.155024,0.320542 -0.08899,0.273896 -0.252599,-0.04829 -0.561555,0.201495 -0.718807,0.581134 -0.07466,0.18025 -0.159216,0.245637 -0.317641,0.245637 -0.118743,0 -0.280387,0.05837 -0.359212,0.1297 -0.13171,0.119196 -0.147364,0.104761 -0.193288,-0.178232 z M 6.4778528,10.6042 c -0.077783,-0.202699 -0.017154,-0.218265 0.1026904,-0.02636 0.05684,0.09102 0.068999,0.165483 0.02702,0.165483 -0.041979,0 -0.1003488,-0.0626 -0.1297104,-0.139119 z M 29.910695,10.53437 c -0.09759,-0.06836 -0.219577,-0.291633 -0.27108,-0.496173 -0.0515,-0.2045409 -0.151586,-0.4199799 -0.222403,-0.4787529 -0.07082,-0.05877 -0.127728,-0.20697 -0.126468,-0.329326 l 0.0023,-0.222467 0.294042,0.316256 c 0.168724,0.181471 0.294042,0.404229 0.294042,0.522671 0,0.113528 0.09525,0.3196129 0.211667,0.4579659 0.116416,0.138354 0.211666,0.274626 0.211666,0.30283 0,0.09298 -0.213233,0.05344 -0.393758,-0.073 z M 15.487787,9.0499851 c 0,-0.04657 0.0381,-0.08467 0.08467,-0.08467 0.04657,0 0.08467,0.0381 0.08467,0.08467 0,0.04657 -0.0381,0.08467 -0.08467,0.08467 -0.04657,0 -0.08467,-0.0381 -0.08467,-0.08467 z m 1.413446,-0.555014 c -0.274837,-0.23947 -0.38686,-0.254551 -0.614097,-0.08268 -0.09039,0.06837 -0.192924,0.125518 -0.227849,0.127 -0.105042,0.0045 -0.07054,-0.447487 0.05211,-0.682517 0.205247,-0.393328 0.249065,-0.839056 0.09881,-1.005087 -0.119462,-0.132004 -0.121029,-0.177607 -0.01353,-0.393668 0.183741,-0.3693 0.329977,-0.961542 0.342568,-1.387369 0.0062,-0.20955 0.0579,-0.46422 0.114907,-0.565934 0.141152,-0.251866 0.126024,-0.879018 -0.02605,-1.080081 -0.162809,-0.215253 -0.156877,-0.431984 0.02386,-0.871611 0.127563,-0.310288 0.183488,-0.360627 0.402166,-0.361998 0.1397,-8.75e-4 0.4064,-0.0565 0.592667,-0.123601 0.477867,-0.172158 0.77628,-0.157495 0.982027,0.04825 0.150099,0.1501 0.168686,0.237753 0.119693,0.564464 -0.0319,0.212724 -0.11457,0.473107 -0.183711,0.578629 -0.09495,0.144906 -0.103517,0.233326 -0.03503,0.361304 0.109479,0.204564 0.119408,0.519243 0.01638,0.519243 -0.04087,0 -0.12173,-0.05715 -0.1797,-0.127 -0.144478,-0.174084 -0.367911,-0.159241 -0.544775,0.03619 -0.129175,0.142738 -0.133473,0.192696 -0.03429,0.398587 0.06281,0.130375 0.20783,0.257582 0.325064,0.285126 0.163908,0.03851 0.213606,0.10618 0.220264,0.299913 0.0047,0.137601 0.03396,0.329873 0.06495,0.427271 0.04708,0.14796 0.0018,0.198504 -0.275127,0.307296 -0.182313,0.07161 -0.400406,0.239575 -0.484652,0.373245 -0.08425,0.133671 -0.240533,0.350736 -0.347305,0.482368 -0.240249,0.296186 -0.250957,0.613299 -0.0248,0.734336 0.225166,0.120506 0.237829,0.881878 0.01928,1.159486 l -0.146284,0.185818 z m -2.871065,-0.08416 c -0.05863,-0.05863 0.123192,-0.459941 0.208786,-0.460832 0.07595,-7.62e-4 0.07801,0.06358 0.01014,0.31684 -0.05001,0.186629 -0.126184,0.236729 -0.218921,0.143992 z m 8.061619,-0.207492 c 0,-0.09407 0.05644,-0.169334 0.127,-0.169334 0.07055,0 0.127,0.07526 0.127,0.169334 0,0.09407 -0.05645,0.169333 -0.127,0.169333 -0.07056,0 -0.127,-0.07526 -0.127,-0.169333 z m -6.731,-1.27 c 0.02878,-0.04657 0.09043,-0.08467 0.136993,-0.08467 0.04657,0 0.06112,0.0381 0.03234,0.08467 -0.02878,0.04657 -0.09043,0.08467 -0.136993,0.08467 -0.04657,0 -0.06112,-0.0381 -0.03234,-0.08467 z m -5.24848,-0.167953 c -0.02925,-0.04733 -0.2055792,-0.08605 -0.3918462,-0.08605 -0.204219,0 -0.317894,-0.03361 -0.28634,-0.08467 0.07904,-0.127888 0.6849872,-0.10147 0.7980772,0.0348 0.0624,0.07518 0.06841,0.138459 0.01622,0.170715 -0.04561,0.02819 -0.10686,0.01253 -0.136109,-0.03479 z m 17.567479,-3.901044 c 0,-0.04931 0.0381,-0.06612 0.08467,-0.03734 0.04657,0.02878 0.08467,0.06913 0.08467,0.08966 0,0.02053 -0.0381,0.03734 -0.08467,0.03734 -0.04657,0 -0.08467,-0.04035 -0.08467,-0.08966 z M 10.373577,0.82816309 c -0.09291,-0.186246 -0.107097,-0.308343 -0.04853,-0.417767 0.04551,-0.08504 0.08274,-0.231067 0.08274,-0.324514 0,-0.257993 0.146419,-0.294878 0.394843,-0.09947 0.219667,0.172789 0.24051,0.272538 0.204337,0.977904 -0.0042,0.08248 -0.09339,0.12700001 -0.254312,0.12700001 -0.192645,0 -0.277018,-0.05857 -0.379078,-0.26315601 z"
       id="path75" />
  </g>
</svg>
