<?xml version="1.0" encoding="UTF-8" standalone="no"?>
<!-- Created with Inkscape (http://www.inkscape.org/) -->

<svg
   xmlns:dc="http://purl.org/dc/elements/1.1/"
   xmlns:cc="http://creativecommons.org/ns#"
   xmlns:rdf="http://www.w3.org/1999/02/22-rdf-syntax-ns#"
   xmlns:svg="http://www.w3.org/2000/svg"
   xmlns="http://www.w3.org/2000/svg"
   xmlns:sodipodi="http://sodipodi.sourceforge.net/DTD/sodipodi-0.dtd"
   xmlns:inkscape="http://www.inkscape.org/namespaces/inkscape"
   width="210mm"
   height="297mm"
   viewBox="0 0 210 297"
   version="1.1"
   id="svg8"
   inkscape:version="0.92.2 2405546, 2018-03-11"
   sodipodi:docname="dial.svg">
  <defs
     id="defs2" />
  <sodipodi:namedview
     id="base"
     pagecolor="#ffffff"
     bordercolor="#666666"
     borderopacity="1.0"
     inkscape:pageopacity="0.0"
     inkscape:pageshadow="2"
     inkscape:zoom="0.7"
     inkscape:cx="162.85714"
     inkscape:cy="846.96247"
     inkscape:document-units="mm"
     inkscape:current-layer="layer3"
     showgrid="false"
     inkscape:window-width="1441"
     inkscape:window-height="947"
     inkscape:window-x="167"
     inkscape:window-y="0"
     inkscape:window-maximized="0" />
  <metadata
     id="metadata5">
    <rdf:RDF>
      <cc:Work
         rdf:about="">
        <dc:format>image/svg+xml</dc:format>
        <dc:type
           rdf:resource="http://purl.org/dc/dcmitype/StillImage" />
        <dc:title></dc:title>
      </cc:Work>
    </rdf:RDF>
  </metadata>
  <g
     inkscape:label="Layer 1"
     inkscape:groupmode="layer"
     id="layer1">
    <path
       style="fill:#483e37;fill-opacity:1;stroke-width:0.34828073"
       d="M 99.377975,48.306549 A 49.499996,49.5 0 0 1 49.877971,97.806547 49.499996,49.5 0 0 1 0.37797472,48.306549 49.499996,49.5 0 0 1 49.877971,-1.1934533 49.499996,49.5 0 0 1 99.377975,48.306549 Z"
       id="path4522"
       inkscape:connector-curvature="0" />
  </g>
  <g
     inkscape:groupmode="layer"
     id="layer3"
     inkscape:label="inr">
    <circle
       id="path3713"
       cx="50.583332"
       cy="47.979172"
       style="fill:#b6b6b6;fill-opacity:1;stroke-width:0.29563904"
       r="40" />
    <ellipse
       style="fill:#483e37;fill-opacity:1;stroke-width:0.34014937"
       id="path4528"
       cx="50.270836"
       cy="46.212799"
       rx="23.434523"
       ry="22.489584" />
    <path
       sodipodi:type="star"
       style="opacity:1;fill:#483e37;fill-opacity:1;stroke:#483e37;stroke-width:1;stroke-miterlimit:4;stroke-dasharray:none;stroke-opacity:1;paint-order:stroke markers fill"
       id="path4624"
       sodipodi:sides="12"
       sodipodi:cx="50.270828"
       sodipodi:cy="44.889881"
       sodipodi:r1="29.355881"
       sodipodi:r2="14.67794"
       sodipodi:arg1="0.96850898"
       sodipodi:arg2="1.2303084"
       inkscape:flatsided="false"
       inkscape:rounded="1.53"
       inkscape:randomized="0"
       d="M 66.901781,69.080358 C 47.175203,82.642379 77.737003,50.730895 55.172483,58.725188 32.607964,66.719481 76.443145,72.273159 52.578417,74.154925 28.71369,76.036691 71.136727,63.681435 47.598132,59.322436 24.059539,54.963437 59.24508,81.690653 37.636737,71.387947 16.028394,61.08524 58.94545,71.596793 40.739929,56.052492 22.534408,40.508192 39.642373,81.247411 26.080352,61.520834 12.518331,41.794256 44.429815,72.356056 36.435521,49.791536 28.441228,27.227017 22.887551,71.062198 21.005785,47.19747 19.124019,23.332742 31.479275,65.755779 35.838274,42.217185 40.197272,18.678592 13.470056,53.864133 23.772763,32.25579 34.075469,10.647447 23.563916,53.564502 39.108217,35.358981 54.652518,17.153461 13.913299,34.261425 33.639876,20.699405 53.366453,7.1373835 22.804654,39.048868 45.369173,31.054574 67.933693,23.060281 24.098512,17.506604 47.963239,15.624838 71.827967,13.743072 29.40493,26.098328 52.943524,30.457327 76.482117,34.816325 41.296576,8.0891091 62.904919,18.391815 84.513263,28.694522 41.596207,18.182969 59.801728,33.72727 78.007248,49.27157 60.899284,8.5323516 74.461305,28.258929 88.023326,47.985506 56.111842,17.423706 64.106135,39.988226 72.100428,62.552745 77.654106,18.717565 79.535872,42.582292 81.417638,66.44702 69.062382,24.023983 64.703383,47.562577 60.344384,71.10117 87.0716,35.915629 76.768894,57.523972 66.466187,79.132316 76.97774,36.21526 61.433439,54.420781 c -15.5443,18.20552 25.194919,1.097556 5.468342,14.659577 z"
       inkscape:transform-center-x="-0.27254327"
       inkscape:transform-center-y="-2.9260154"
       transform="matrix(1.1543261,0,0,1.1351113,-6.9275279,-3.2384255)" />
    <ellipse
       style="opacity:1;fill:#b6b6b6;fill-opacity:1;stroke:#b6b6b6;stroke-width:0.88504171;stroke-miterlimit:4;stroke-dasharray:none;stroke-opacity:1;paint-order:stroke markers fill"
       id="path5415"
       cx="51.017857"
       cy="47.16666"
       rx="17.057478"
       ry="17.05748" />
  </g>
  <g
     inkscape:groupmode="layer"
     id="layer4"
     inkscape:label="nob" />
  <g
     inkscape:groupmode="layer"
     id="layer2"
     inkscape:label="outr" />
</svg>
