<svg
   xmlns:dc="http://purl.org/dc/elements/1.1/"
   xmlns:cc="http://creativecommons.org/ns#"
   xmlns:rdf="http://www.w3.org/1999/02/22-rdf-syntax-ns#"
   width="210mm"
   height="297mm"
   viewBox="0 0 210 297"
   version="1.1" >
  <g
     id="layer1">
    <path
       style="opacity:1;fill:#ff0000;fill-opacity:1;stroke:#ff0000;stroke-width:1;stroke-miterlimit:4;stroke-dasharray:none;stroke-opacity:1;paint-order:stroke markers fill"
       id="path819"
       d="m 103.59549,167.80106 -16.982253,-12.09428 5.32258,20.15784 -8.659926,-18.96507 -5.46943,20.11849 1.982821,-20.7542 -14.795911,14.68841 12.094273,-16.98225 -20.15784,5.32258 18.965075,-8.65993 -20.118491,-5.46943 20.754199,1.98282 -14.68841,-14.79591 16.982253,12.09427 -5.322579,-20.15784 8.659925,18.96508 5.469431,-20.11849 -1.982821,20.75419 14.795914,-14.6884 -12.094276,16.98225 20.157836,-5.32258 -18.965071,8.65992 20.118491,5.46944 -20.754199,-1.98283 z"
       transform-center-y="-3.4015151e-06"
       transform="matrix(0.85676325,0,0,2.1623472,35.221997,-248.69144)" />
    <ellipse
       style="opacity:1;fill:#444444;fill-opacity:1;stroke:#666666;stroke-width:1.14095771;stroke-miterlimit:4;stroke-dasharray:none;stroke-opacity:0;paint-order:stroke markers fill"
       id="path821"
       cx="106.35278"
       cy="74.249992"
       rx="18.442785"
       ry="42.273685" />
    <ellipse
       style="opacity:1;fill:#ff0000;fill-opacity:1;stroke:#ff0000;stroke-width:1.03393781;stroke-miterlimit:4;stroke-dasharray:none;stroke-opacity:0;paint-order:stroke markers fill"
       id="path815"
       cx="106.35277"
       cy="73.856102"
       rx="12.587805"
       ry="36.812603" />
  </g>
</svg>
